<svg id="Layer_1" data-name="Layer 1" xmlns="http://www.w3.org/2000/svg" xmlns:xlink="http://www.w3.org/1999/xlink" width="80" height="80" viewBox="0 0 80 80"><defs><filter id="Filter_1" x="-20" y="-20" width="140" height="140" name="Filter_1"><feColorMatrix result="result1" values="1 0 0 0 0 0 1 0 0 0 0 0 1 0 0 0 0 0 0.75 0" in="SourceGraphic"/></filter><radialGradient id="radial-gradient" cx="282.1521" cy="-295.9773" r="27.8" gradientTransform="matrix(0.4843, 0, 0, -0.4843, -105.2189, -81.8157)" gradientUnits="userSpaceOnUse"><stop offset="0" stop-color="#fff"/><stop offset="1" stop-color="#fff" stop-opacity="0"/></radialGradient><radialGradient id="radial-gradient-2" cx="1430.9756" cy="190.81" r="27.8" gradientTransform="matrix(0.1828, 0.1828, 0.1828, -0.1828, -282.5027, -189.3854)" xlink:href="#radial-gradient"/><radialGradient id="radial-gradient-3" cx="461.8211" cy="-536.666" r="27.8" gradientTransform="matrix(0.3646, 0, 0, -0.3646, -115.4602, -157.4753)" xlink:href="#radial-gradient"/><radialGradient id="radial-gradient-4" cx="1430.9756" cy="190.81" r="27.8" gradientTransform="matrix(0.1828, 0.1828, 0.1828, -0.1828, -253.6552, -213.4657)" xlink:href="#radial-gradient"/></defs><title>bell-icon</title><g id="bell_con_copy_3_0_Layer1_0_FILL" data-name="bell con copy 3 0 Layer1 0 FILL"><path d="M76.68,24.4136a2.3909,2.3909,0,0,1-.3056-.55A35.0769,35.0769,0,0,0,72.83,17.9962a9.7384,9.7384,0,0,0,1.65-3.2392,9.6606,9.6606,0,0,0,.55-3.1781,9.9206,9.9206,0,0,0-1.1612-4.8283,10.0652,10.0652,0,0,0-6.1118-5.195,10.1678,10.1678,0,0,0-8.0064.6112,9.9655,9.9655,0,0,0-3.7893,3.3A43.3006,43.3006,0,0,0,46.977,3.6336q-13.2013-1.3446-18.3963,6.54-4.4616,6.7229-7.09,10.94a22.7549,22.7549,0,0,0-13.69,2.9336Q.4054,28.4474,1.4445,37.0038a28.8123,28.8123,0,0,0,3.7281,9.7177Q8.0453,51.55,15.3182,57.3559a20.455,20.455,0,0,0-1.2835,2.8725,13.6931,13.6931,0,0,0,8.9231,17.1741,13.1971,13.1971,0,0,0,10.4512-.9168,13.3933,13.3933,0,0,0,4.5226-3.667q7.5176,4.3393,12.7125,5.2561a30.5791,30.5791,0,0,0,7.9453.3056q1.2224-.1222,2.5058-.3056,8.312-2.1391,9.84-10.5734a22.88,22.88,0,0,0-2.2-13.8125q2.9947-3.9727,7.7008-10.5734Q81.9364,35.4758,76.68,24.4136Z" fill="#c7c3be"/></g><g id="bell_con_copy_3_0_Layer0_0_FILL" data-name="bell con copy 3 0 Layer0 0 FILL"><path d="M76.5579,24.658a2.39,2.39,0,0,1-.3055-.55,35.08,35.08,0,0,0-3.5449-5.8673,9.7372,9.7372,0,0,0,1.65-3.2393,9.6623,9.6623,0,0,0,.55-3.1781A9.9221,9.9221,0,0,0,73.7465,6.995,10.0649,10.0649,0,0,0,67.6348,1.8a10.1682,10.1682,0,0,0-8.0064.6111,9.9642,9.9642,0,0,0-3.7893,3.3,43.302,43.302,0,0,0-8.9843-1.8335q-13.2013-1.3446-18.3964,6.54-4.4616,6.723-7.09,10.94a22.754,22.754,0,0,0-13.69,2.9336Q.2832,28.6919,1.3222,37.2482A28.813,28.813,0,0,0,5.05,46.9659Q7.9229,51.7943,15.1959,57.6a20.4662,20.4662,0,0,0-1.2834,2.8725,13.693,13.693,0,0,0,8.9231,17.174A13.1963,13.1963,0,0,0,33.2867,76.73a13.3939,13.3939,0,0,0,4.5227-3.6671q7.5176,4.3393,12.7125,5.2561a30.5739,30.5739,0,0,0,7.9452.3056q1.2223-.1222,2.5059-.3056,8.312-2.139,9.84-10.5733a22.882,22.882,0,0,0-2.2-13.8126q2.9947-3.9726,7.7008-10.5733,5.5005-7.64.2444-18.702M65.9235,5.7727a1.1548,1.1548,0,0,0,.3667.0611A4.9891,4.9891,0,0,1,69.3461,8.523a4.9965,4.9965,0,0,1,.3667,4.0337l-.1223.2445a6.32,6.32,0,0,1-.6111,1.1613,31.3689,31.3689,0,0,0-2.4447-2.2q-1.2836-1.0389-2.6281-1.9557Q62.7455,9.0119,61.5841,8.34a10.8074,10.8074,0,0,0-1.1612-.6723,5.79,5.79,0,0,1,1.7724-1.4668h.0611a5.008,5.008,0,0,1,3.6671-.4278M72.83,25.6359q.4092,1.3248.7945,2.2614a25.828,25.828,0,0,1,.9168,3.667q.5437,2.6829-1.8336,6.6007a65.9641,65.9641,0,0,1-6.7229,9.4732,11.9731,11.9731,0,0,0-1.2835,1.9558q-7.5247-8.86-12.2846-10.6345,12.0048,12.666,13.5681,20.9634v.0611a20.2067,20.2067,0,0,1,.2445,2.2,10.6813,10.6813,0,0,1-.2445,2.3225v.1222q-1.2834,5.6227-5.44,7.3952a13.9546,13.9546,0,0,1-8.0675.55A57.7609,57.7609,0,0,1,40.01,68.7849v-.0611l-.7945-.3667q.0862-.5064.4278-1.7724.3324-1.2016-.55-4.645a20.8024,20.8024,0,0,0-.9779-3.1781q4.0573-5.6885,5.195-7.273a66.2848,66.2848,0,0,1,7.7008,7.8231,19.9307,19.9307,0,0,1,2.3225,3.4837.2486.2486,0,0,0,.0611.1833,16.5474,16.5474,0,0,1,.9779,2.567,17.3871,17.3871,0,0,1,.55,2.5669,3.676,3.676,0,0,1-.1833,1.5891.0473.0473,0,0,0,.0611,0A3.3835,3.3835,0,0,0,56.0224,67.44a6.3471,6.3471,0,0,0-.1833-2.1391q-.34-1.5649-.6723-2.6892A24.9372,24.9372,0,0,0,49.85,54.3l-1.2224-1.2223A71.571,71.571,0,0,0,33.47,41.8932q-2.6282-1.3446-2.9948-1.4668-.1833-.0612-1.7724-.7335a51.4417,51.4417,0,0,0-8.0064-2.3835,10.0873,10.0873,0,0,0-6.0506.3055q-.4332.2345-.7946.4279.2-.0282.4279-.0612a14.61,14.61,0,0,1,4.4615.1834q2.63.4956,3.3.6723a40.6106,40.6106,0,0,1,4.8283,1.8946h-.0611q4.0336,2.1391,7.3341,4.156-2.0051,2.6448-3.5449,4.645l-2.0168,2.628a17.2213,17.2213,0,0,0-2.0169,0,13.2242,13.2242,0,0,0-5.7451,1.65q-.681.3745-1.65.9168A59.081,59.081,0,0,1,9.6953,43.1155Q5.7839,36.576,8.29,31.87a11.92,11.92,0,0,1,4.0338-4.2171,4.7969,4.7969,0,0,0,.4889-.3667,12.47,12.47,0,0,1,3.7893-1.7113,24.6269,24.6269,0,0,1,9.9011-.1222q2.5669.4889,3.7893.8556.8556.2445,3.4225,1.2223,3.4969,1.326,5.7451,2.3225A56.6,56.6,0,0,0,27.725,22.4578q.2445-.4278.489-.9168A63.5094,63.5094,0,0,1,34.57,11.9456,10.8568,10.8568,0,0,1,39.154,8.4619a11.5441,11.5441,0,0,1,1.8946-.7334,17.3629,17.3629,0,0,1,5.9284-.55,34.3634,34.3634,0,0,1,11.9791,3.117,24.99,24.99,0,0,1,5.3783,3.117A27.4184,27.4184,0,0,1,70.8129,21.48a28.6638,28.6638,0,0,1,2.0169,4.156M18.4963,61.4508a8.9813,8.9813,0,0,1,4.5227-5.44A9.1011,9.1011,0,0,1,30.17,55.4a8.9441,8.9441,0,0,1,5.44,4.5838,8.8075,8.8075,0,0,1,.6112,7.0285h-.0612q-.1833.4888-.3667,1.1a9.0722,9.0722,0,0,1-4.156,4.4,8.9682,8.9682,0,0,1-7.09.6111A9.1694,9.1694,0,0,1,19.0463,68.54a8.79,8.79,0,0,1-.55-7.09m18.58-4.5227A14.7445,14.7445,0,0,0,35.12,54.9112a12.6052,12.6052,0,0,0-2.628-1.65,14.8911,14.8911,0,0,0-1.7113-.6723l5.0116-6.6618q2.8727,1.9558,3.6671,2.5058.1833.1223,2.1391,2.0169Q40.0471,52.6593,37.076,56.9281Z" fill="#c7c3be"/><path d="M35.12,54.9112a14.7445,14.7445,0,0,1,1.9558,2.0169q2.9712-4.269,4.5227-6.4785Q39.643,48.555,39.46,48.4327q-.7945-.55-3.6671-2.5058l-5.0116,6.6618a14.8911,14.8911,0,0,1,1.7113.6723,12.6052,12.6052,0,0,1,2.628,1.65m-12.1012,1.1a8.9813,8.9813,0,0,0-4.5227,5.44,8.79,8.79,0,0,0,.55,7.09,9.1694,9.1694,0,0,0,5.5006,4.5838,8.9682,8.9682,0,0,0,7.09-.6111,9.0722,9.0722,0,0,0,4.156-4.4q.1835-.6111.3667-1.1H36.22a8.8075,8.8075,0,0,0-.6112-7.0285A8.9441,8.9441,0,0,0,30.17,55.4a9.1011,9.1011,0,0,0-7.1507.6111m50.6053-28.114q-.3854-.9366-.7945-2.2614a28.6638,28.6638,0,0,0-2.0169-4.156,27.4184,27.4184,0,0,0-6.4785-8.0675,24.99,24.99,0,0,0-5.3783-3.117A34.3634,34.3634,0,0,0,46.977,7.1784a17.3629,17.3629,0,0,0-5.9284.55,11.5441,11.5441,0,0,0-1.8946.7334A10.8568,10.8568,0,0,0,34.57,11.9456,63.5094,63.5094,0,0,0,28.214,21.541q-.2445.489-.489.9168A56.6,56.6,0,0,1,39.46,29.853q-2.2482-.9965-5.7451-2.3225-2.567-.9779-3.4225-1.2223-1.2224-.3667-3.7893-.8556a24.6269,24.6269,0,0,0-9.9011.1222,12.47,12.47,0,0,0-3.7893,1.7113,4.7969,4.7969,0,0,1-.4889.3667A11.92,11.92,0,0,0,8.29,31.87Q5.7839,36.576,9.6953,43.1155a59.081,59.081,0,0,0,9.4733,11.6124q.969-.5423,1.65-.9168a13.2242,13.2242,0,0,1,5.7451-1.65,17.2213,17.2213,0,0,1,2.0169,0l2.0168-2.628q1.54-2,3.5449-4.645-3.3-2.0169-7.3341-4.156h.0611a40.6106,40.6106,0,0,0-4.8283-1.8946q-.67-.1767-3.3-.6723a14.61,14.61,0,0,0-4.4615-.1834q-.2276.033-.4279.0612.3615-.1935.7946-.4279a10.0873,10.0873,0,0,1,6.0506-.3055,51.4417,51.4417,0,0,1,8.0064,2.3835q1.5891.6723,1.7724.7335.3667.1221,2.9948,1.4668A71.571,71.571,0,0,1,48.6272,53.0777L49.85,54.3a24.9372,24.9372,0,0,1,5.3172,8.312q.3321,1.1242.6723,2.6892a6.3471,6.3471,0,0,1,.1833,2.1391A3.3835,3.3835,0,0,1,54.8,69.7017a.0473.0473,0,0,1-.0611,0,3.676,3.676,0,0,0,.1833-1.5891,17.3871,17.3871,0,0,0-.55-2.5669,16.5474,16.5474,0,0,0-.9779-2.567.2486.2486,0,0,1-.0611-.1833,19.9307,19.9307,0,0,0-2.3225-3.4837A66.2848,66.2848,0,0,0,43.31,51.4886q-1.1376,1.5846-5.195,7.273a20.8024,20.8024,0,0,1,.9779,3.1781q.8823,3.4434.55,4.645-.3415,1.266-.4278,1.7724l.7945.3667v.0611a57.7609,57.7609,0,0,0,12.468,3.7893,13.9546,13.9546,0,0,0,8.0675-.55q4.1561-1.7724,5.44-7.3952v-.1222a10.6813,10.6813,0,0,0,.2445-2.3225,20.2067,20.2067,0,0,0-.2445-2.2v-.0611Q64.4213,51.6254,52.4165,38.96q4.76,1.7747,12.2846,10.6345a11.9731,11.9731,0,0,1,1.2835-1.9558,65.9641,65.9641,0,0,0,6.7229-9.4732q2.3775-3.9177,1.8336-6.6007a25.828,25.828,0,0,0-.9168-3.667M66.29,5.8338a1.1548,1.1548,0,0,1-.3667-.0611,5.008,5.008,0,0,0-3.6671.4278h-.0611a5.79,5.79,0,0,0-1.7724,1.4668,10.8074,10.8074,0,0,1,1.1612.6723q1.1613.6723,2.3225,1.4669,1.3446.9167,2.6281,1.9557a31.3689,31.3689,0,0,1,2.4447,2.2,6.32,6.32,0,0,0,.6111-1.1613l.1223-.2445a4.9965,4.9965,0,0,0-.3667-4.0337A4.9891,4.9891,0,0,0,66.29,5.8338Z" fill="#4a2434"/></g><g id="constellation_bell01_0_Layer0_1_FILL" data-name="constellation bell01 0 Layer0 1 FILL"><path d="M76.5579,24.658a2.39,2.39,0,0,1-.3055-.55,35.08,35.08,0,0,0-3.5449-5.8673,9.7372,9.7372,0,0,0,1.65-3.2393,9.6623,9.6623,0,0,0,.55-3.1781A9.9221,9.9221,0,0,0,73.7465,6.995,10.0649,10.0649,0,0,0,67.6348,1.8a10.1682,10.1682,0,0,0-8.0064.6111,9.9642,9.9642,0,0,0-3.7893,3.3,43.302,43.302,0,0,0-8.9843-1.8335q-13.2013-1.3446-18.3964,6.54-4.4616,6.723-7.09,10.94a22.754,22.754,0,0,0-13.69,2.9336Q.2832,28.6919,1.3222,37.2482A28.813,28.813,0,0,0,5.05,46.9659Q7.9229,51.7943,15.1959,57.6a20.4662,20.4662,0,0,0-1.2834,2.8725,13.693,13.693,0,0,0,8.9231,17.174A13.1963,13.1963,0,0,0,33.2867,76.73a13.3939,13.3939,0,0,0,4.5227-3.6671q7.5176,4.3393,12.7125,5.2561a30.5739,30.5739,0,0,0,7.9452.3056q1.2223-.1222,2.5059-.3056,8.312-2.139,9.84-10.5733a22.882,22.882,0,0,0-2.2-13.8126q2.9947-3.9726,7.7008-10.5733,5.5005-7.64.2444-18.702M65.9235,5.7727a1.1548,1.1548,0,0,0,.3667.0611A4.9891,4.9891,0,0,1,69.3461,8.523a4.9965,4.9965,0,0,1,.3667,4.0337l-.1223.2445a6.32,6.32,0,0,1-.6111,1.1613,31.3689,31.3689,0,0,0-2.4447-2.2q-1.2836-1.0389-2.6281-1.9557Q62.7455,9.0119,61.5841,8.34a10.8074,10.8074,0,0,0-1.1612-.6723,5.79,5.79,0,0,1,1.7724-1.4668h.0611a5.008,5.008,0,0,1,3.6671-.4278M70.8129,21.48A27.0451,27.0451,0,0,1,72.83,25.697q.4278,1.2836.7945,2.2614a25.2477,25.2477,0,0,1,.9168,3.6059q.55,2.6892-1.8336,6.6007a65.9641,65.9641,0,0,1-6.7229,9.4732,11.9731,11.9731,0,0,0-1.2835,1.9558Q57.1837,40.732,52.4776,38.96,64.3956,51.611,65.9846,59.9229v.0611a20.2067,20.2067,0,0,1,.2445,2.2,10.6813,10.6813,0,0,1-.2445,2.3225v.1222q-1.2834,5.6227-5.44,7.3952a13.9546,13.9546,0,0,1-8.0675.55A57.7609,57.7609,0,0,1,40.01,68.7849v-.0611l-.7945-.3667a12.5019,12.5019,0,0,1,.4278-1.7113,11.8851,11.8851,0,0,0-.4889-4.645,25.3757,25.3757,0,0,0-.9779-3.1781q3.9726-5.745,5.1339-7.3341a66.2848,66.2848,0,0,1,7.7008,7.8231,19.9307,19.9307,0,0,1,2.3225,3.4837.2486.2486,0,0,0,.0611.1833,16.5474,16.5474,0,0,1,.9779,2.567,17.3871,17.3871,0,0,1,.55,2.5669A4.6509,4.6509,0,0,1,54.8,69.7017,3.3835,3.3835,0,0,0,56.0224,67.44a6.3471,6.3471,0,0,0-.1833-2.1391q-.3668-1.5891-.6723-2.6892A25.2594,25.2594,0,0,0,49.85,54.3l-1.2224-1.2223A71.571,71.571,0,0,0,33.47,41.8932q-2.6282-1.3446-2.9948-1.4668-.1833-.0612-1.7724-.7335a47.7232,47.7232,0,0,0-7.9453-2.3224q-3.85-.7945-6.1117.3056-.4279.1833-.7946.3667a1.7937,1.7937,0,0,0,.4279-.0612,14.7915,14.7915,0,0,1,4.5227.2445q2.5668.4278,3.2392.6112a40.6106,40.6106,0,0,1,4.8283,1.8946h-.0611q4.0336,2.1391,7.3341,4.156-2.0169,2.6281-3.5449,4.645L28.5807,52.222a11.0216,11.0216,0,0,0-2.0169-.0611,13.2242,13.2242,0,0,0-5.7451,1.65q-.6723.3667-1.65.9168A59.081,59.081,0,0,1,9.6953,43.1155Q5.7839,36.576,8.29,31.87a11.92,11.92,0,0,1,4.0338-4.2171,2.3888,2.3888,0,0,1,.55-.3056,10.8706,10.8706,0,0,1,3.7281-1.7724,24.6269,24.6269,0,0,1,9.9011-.1222q2.5669.4889,3.7893.8556.8556.2445,3.4225,1.2223,3.4838,1.3446,5.8062,2.3225A57.1148,57.1148,0,0,0,27.725,22.4578q.2445-.4278.489-.9168A63.5094,63.5094,0,0,1,34.57,11.9456,10.2666,10.2666,0,0,1,39.154,8.523a8.8159,8.8159,0,0,1,1.8946-.7945,17.3629,17.3629,0,0,1,5.9284-.55,34.3634,34.3634,0,0,1,11.9791,3.117,24.99,24.99,0,0,1,5.3783,3.117A27.4184,27.4184,0,0,1,70.8129,21.48M18.4963,61.4508a8.9813,8.9813,0,0,1,4.5227-5.44A9.1011,9.1011,0,0,1,30.17,55.4a8.9441,8.9441,0,0,1,5.44,4.5838,8.8075,8.8075,0,0,1,.6112,7.0285h-.0612q-.1833.4888-.3667,1.1a9.0722,9.0722,0,0,1-4.156,4.4,8.9682,8.9682,0,0,1-7.09.6111A9.1694,9.1694,0,0,1,19.0463,68.54a8.79,8.79,0,0,1-.55-7.09m18.58-4.5227A18.35,18.35,0,0,0,35.12,54.9112a12.6052,12.6052,0,0,0-2.628-1.65,16.5683,16.5683,0,0,0-1.65-.6111l4.95-6.723q2.8727,1.9558,3.6671,2.5058.1833.1223,2.1391,2.0169Q40.0708,52.65,37.076,56.9281Z" fill="#c7c3be"/></g><g filter="url(#Filter_1)"><g id="star2_0_Layer0_0_FILL" data-name="star2 0 Layer0 0 FILL"><path d="M44.899,61.5823,32.9846,60.323l-1.3077-9.5654L30.006,60.25,19.23,61.776l10.9458,1.3319,1.3319,11.2606L32.9119,63.06Z" fill="url(#radial-gradient)"/></g></g><g filter="url(#Filter_1)"><g id="star2_0_Layer0_0_FILL-2" data-name="star2 0 Layer0 0 FILL"><path d="M19,42.3988,14.9783,37.427l3.1165-4.1035-4.2132,2.952L9.2389,32.7843l3.6282,4.6336L9.12,42.17l4.7982-3.738Z" fill="url(#radial-gradient-2)"/></g></g><g filter="url(#Filter_1)"><g id="star2_0_Layer0_0_FILL-3" data-name="star2 0 Layer0 0 FILL"><path d="M63.0563,38.23l-8.9692-.9479-.9844-7.2009-1.2579,7.1462-8.1123,1.1485,8.24,1.0026,1.0027,8.477,1.0573-8.5134Z" fill="url(#radial-gradient-3)"/></g></g><g filter="url(#Filter_1)"><g id="star2_0_Layer0_0_FILL-4" data-name="star2 0 Layer0 0 FILL"><path d="M47.8471,18.3185l-4.0213-4.9718,3.1165-4.1035-4.2132,2.9519L38.0863,8.7039l3.6283,4.6337L37.9675,18.09l4.7982-3.738Z" fill="url(#radial-gradient-4)"/></g></g></svg>