<?xml version="1.0" encoding="utf-8"?>
<!-- Generator: Adobe Illustrator 23.1.0, SVG Export Plug-In . SVG Version: 6.00 Build 0)  -->
<svg version="1.1" id="Layer_1" xmlns="http://www.w3.org/2000/svg" xmlns:xlink="http://www.w3.org/1999/xlink" x="0px" y="0px"
	 viewBox="0 0 193.4 290.3" style="enable-background:new 0 0 193.4 290.3;" xml:space="preserve">
<style type="text/css">
	.st0{fill:#97610B;}
	.st1{fill:#FFCC00;}
	.st2{fill:#FFE26C;}
</style>
<path class="st0" d="M191.3,125.1c-0.5-70.7-1.9-109.1-4-115.1c-3.4-7-9.5-10.3-18.1-10h-0.5c-0.2,0-0.4,0-0.6,0.1L79.5,15.6
	c-17.9,3.2-35.7,6.1-53.5,8.9C14.8,26.2,7.9,30.7,5.2,37.9L1.1,283.7c-0.4,0-0.8,0.6-1.2,1.9c0.4-0.4,0.8-0.8,1.2-1.1L1,290.3
	c27.8-31.5,61.7-67.1,101.6-106.8c41.7,41.1,72,71.5,90.8,91.1C192.6,243.3,191.9,193.4,191.3,125.1z"/>
<path class="st1" d="M180.7,241.8l0.2,1.9c-4.9-77-8.7-148.6-11.5-214.8l-0.2,0c0,0,0-0.1,0-0.1L28,49.3c-0.3,7.2-0.5,15.3-0.8,24.4
	c0,0,0.1,0,0.1,0c0,0,0,0,0,0C27,85,26.6,98.5,25.8,114.2c-1.6,34-4.3,78.4-8,133.2c0,0,0.1-0.1,0.1-0.1c0,0,0,0,0,0
	c25.8-33.3,51.7-63.5,77.7-90.5c-0.7-5.4-0.9-11.3-0.6-17.3c24.9,29,53.4,63,85.5,102.2c0,0,0-0.1,0-0.1c0,0,0,0,0,0l0.2,1.9
	c0-0.6-0.1-1.3-0.1-1.9c0,0,0,0,0,0L180.7,241.8z"/>
<g transform="matrix( 1, 0, 0, 1, -47.6,-4149.9) ">
	<path class="st2" d="M75.8,4199.1c-0.3,7.2-0.5,15.3-0.8,24.4c40.9-13.6,83-22.5,126.3-26.7c6,48.6,15,113.5,26.9,194.6
		c0,0.1,0.1,0.1,0.1,0.1l0.2,1.9c-4.8-76.9-8.6-148.5-11.5-214.8L75.8,4199.1z"/>
</g>
</svg>
