<svg id="Layer_1" data-name="Layer 1" xmlns="http://www.w3.org/2000/svg" xmlns:xlink="http://www.w3.org/1999/xlink" width="80" height="80" viewBox="0 0 80 80"><defs><filter id="Filter_1" x="-20" y="-20" width="140" height="140" name="Filter_1"><feColorMatrix result="result1" values="1 0 0 0 0 0 1 0 0 0 0 0 1 0 0 0 0 0 0.75 0" in="SourceGraphic"/></filter><radialGradient id="radial-gradient" cx="681.9368" cy="297.0362" r="27.8" gradientTransform="matrix(0.3284, 0.326, 0.3284, -0.3308, -262.0541, -92.7352)" gradientUnits="userSpaceOnUse"><stop offset="0" stop-color="#fff"/><stop offset="1" stop-color="#fff" stop-opacity="0"/></radialGradient><radialGradient id="radial-gradient-2" cx="947.1178" cy="412.776" r="27.8" gradientTransform="matrix(0.2244, 0.2883, 0.29, -0.2265, -267.7671, -138.6038)" xlink:href="#radial-gradient"/><radialGradient id="radial-gradient-3" cx="1773.7576" cy="135.6081" r="27.8" gradientTransform="matrix(0.1525, 0.1514, 0.1525, -0.1536, -241.9872, -187.029)" xlink:href="#radial-gradient"/><radialGradient id="radial-gradient-4" cx="1068.0547" cy="239.933" r="27.8" gradientTransform="matrix(0.2333, 0.2316, 0.2333, -0.235, -281.9746, -160.1614)" xlink:href="#radial-gradient"/></defs><title>community-icon</title><g id="community_bubble_0_Layer3_0_FILL" data-name="community bubble 0 Layer3 0 FILL"><path d="M71.1583,15.67Q63.7121,7.1562,53.104,7.132l-25.2965-.12q-10.6082-.0243-18.2584,8.396A29.3577,29.3577,0,0,0,2.001,35.5062a.2089.2089,0,0,0-.051.1533A29.4527,29.4527,0,0,0,9.1411,55.9052q7.4462,8.4626,18.0544,8.4868l19.7884.11q3.774,10.7336,19.9413,8.932a1.4951,1.4951,0,0,0,1.02-.5175,1.5374,1.5374,0,0,0,.459-1.1254,1.4415,1.4415,0,0,0-.357-1.1194q-4.1821-5.12-3.9781-9.1A25.8621,25.8621,0,0,0,70.75,56.1676,29.74,29.74,0,0,0,78.2985,36.12a.2093.2093,0,0,1,.051-.1534A29.641,29.641,0,0,0,71.1583,15.67Z" fill="#b8e7fe"/></g><g id="community_bubble_0_Layer2_0_FILL" data-name="community bubble 0 Layer2 0 FILL"><path d="M71.1583,15.6189Q63.7121,7.1052,53.104,7.081L27.8075,6.9605q-10.6082-.0243-18.2584,8.396A29.3577,29.3577,0,0,0,2.001,35.4552a.2089.2089,0,0,0-.051.1533A29.4527,29.4527,0,0,0,9.1411,55.8542q7.4462,8.4626,18.0544,8.4868l19.7884.11q3.774,10.7336,19.9413,8.932a1.4951,1.4951,0,0,0,1.02-.5175,1.5374,1.5374,0,0,0,.459-1.1254,1.4415,1.4415,0,0,0-.357-1.1194q-4.1821-5.12-3.9781-9.1A25.8621,25.8621,0,0,0,70.75,56.1166a29.74,29.74,0,0,0,7.5482-20.0477.2093.2093,0,0,1,.051-.1534A29.641,29.641,0,0,0,71.1583,15.6189Z" fill="#093951"/></g><g id="community_bubble_0_Layer1_0_FILL" data-name="community bubble 0 Layer1 0 FILL"><path d="M78.2985,36.0689a.2093.2093,0,0,1,.051-.1534,29.641,29.641,0,0,0-7.1912-20.2966Q63.7121,7.1052,53.104,7.081L27.8075,6.9605q-10.6082-.0243-18.2584,8.396A29.3577,29.3577,0,0,0,2.001,35.4552a.2089.2089,0,0,0-.051.1533A29.4527,29.4527,0,0,0,9.1411,55.8542q7.4462,8.4626,18.0544,8.4868l19.7884.11q3.774,10.7336,19.9413,8.932a1.4951,1.4951,0,0,0,1.02-.5175,1.5374,1.5374,0,0,0,.459-1.1254,1.4415,1.4415,0,0,0-.357-1.1194q-4.1821-5.12-3.9781-9.1A25.8621,25.8621,0,0,0,70.75,56.1166a29.74,29.74,0,0,0,7.5482-20.0477m-12.24-20.6677L68.2,17.5786a2.4493,2.4493,0,0,0,.357.3034,26.286,26.286,0,0,1,6.3751,17.9056.3937.3937,0,0,0-.051.1534q0,1.173-.102,2.3468a.3285.3285,0,0,1,0,.255A25.7619,25.7619,0,0,1,68.2,53.84a22.1964,22.1964,0,0,1-6.5282,5.0969,1.8248,1.8248,0,0,0-.867,1.23q-.969,4.2912,2.2951,9.4694a2.01,2.01,0,0,1,.306.5077.146.146,0,0,1,.051.1017q-1.734-.0384-2.2441-.0856-.816-.045-1.632-.141a6.01,6.01,0,0,0-.663-.1482,1.9186,1.9186,0,0,1-.612-.0975,2.1824,2.1824,0,0,1-.714-.1988,11.2974,11.2974,0,0,1-1.9891-.6484,5.3082,5.3082,0,0,1-.459-.3026,9.3965,9.3965,0,0,1-3.57-2.9319A9.7589,9.7589,0,0,1,49.8909,62.39a.6251.6251,0,0,0-.102-.3563,1.7131,1.7131,0,0,0-.918-.9113A1.664,1.664,0,0,0,47.8,61.079l-20.6044-.104a19.918,19.918,0,0,1-15.4023-7.3843A25.7692,25.7692,0,0,1,5.3671,35.7365v-.204a35.1773,35.1773,0,0,1,.459-5.1035,25.6578,25.6578,0,0,1,4.4881-10.59,26.8121,26.8121,0,0,1,1.785-2.2061,1.7968,1.7968,0,0,1,.357-.36q.867-.9244,1.683-1.6954a3.3712,3.3712,0,0,0,.357-.3086l.051,0a.0455.0455,0,0,1,.051-.0514,16.2413,16.2413,0,0,1,2.0911-1.5963,19.3784,19.3784,0,0,1,11.0672-3.1922L53.053,10.55a19.2272,19.2272,0,0,1,7.14,1.2737,3.3112,3.3112,0,0,0,.357.2014,18.2935,18.2935,0,0,1,5.5081,3.3766M19.3413,29.718a5.9726,5.9726,0,0,0-4.335,1.8678A5.8634,5.8634,0,0,0,13.17,35.9343a5.72,5.72,0,0,0,1.8361,4.2706,5.8844,5.8844,0,0,0,4.335,1.8043,5.9459,5.9459,0,0,0,4.3351-1.8168,5.7928,5.7928,0,0,0,1.785-4.3482,6.0419,6.0419,0,0,0-6.12-6.1262M44.74,40.14a5.7933,5.7933,0,0,0,1.7851-4.3482,6.042,6.042,0,0,0-6.12-6.1262,5.9726,5.9726,0,0,0-4.335,1.8678,5.8634,5.8634,0,0,0-1.8361,4.3485A5.72,5.72,0,0,0,36.07,40.1525a5.8844,5.8844,0,0,0,4.335,1.8043A5.9459,5.9459,0,0,0,44.74,40.14M61.2641,29.5127a5.9726,5.9726,0,0,0-4.335,1.8678A5.8634,5.8634,0,0,0,55.093,35.729,5.72,5.72,0,0,0,56.9291,40a5.8844,5.8844,0,0,0,4.335,1.8043,5.9459,5.9459,0,0,0,4.3351-1.8168,5.7937,5.7937,0,0,0,1.7851-4.3482,6.042,6.042,0,0,0-6.12-6.1262Z" fill="#c7c3be"/><path d="M68.5573,17.882a2.4493,2.4493,0,0,1-.357-.3034q7.0892,7.8531,6.5791,20.7092.102-1.1739.102-2.3468a.3937.3937,0,0,1,.051-.1534A26.286,26.286,0,0,0,68.5573,17.882Z" fill="#b8e7ff"/><path d="M68.2,17.5786l-2.1421-2.1774A18.2935,18.2935,0,0,0,60.55,12.0246a3.3112,3.3112,0,0,1-.357-.2014,19.2272,19.2272,0,0,0-7.14-1.2737l-25.2965-.1206a19.3784,19.3784,0,0,0-11.0672,3.1922,16.2413,16.2413,0,0,0-2.0911,1.5963.0455.0455,0,0,0-.051.0514l-.051,0a3.3712,3.3712,0,0,1-.357.3086q-.816.771-1.683,1.6954a1.7968,1.7968,0,0,0-.357.36,26.8121,26.8121,0,0,0-1.785,2.2061,25.6578,25.6578,0,0,0-4.4881,10.59,35.1773,35.1773,0,0,0-.459,5.1035v.204a25.7692,25.7692,0,0,0,6.4261,17.8542A19.918,19.918,0,0,0,27.1955,60.975L47.8,61.079a1.664,1.664,0,0,1,1.071.0431,1.7131,1.7131,0,0,1,.918.9113.6251.6251,0,0,1,.102.3563,9.7589,9.7589,0,0,0,1.6831,3.3027,9.3965,9.3965,0,0,0,3.57,2.9319,5.3082,5.3082,0,0,0,.459.3026,11.2974,11.2974,0,0,0,1.9891.6484,2.1824,2.1824,0,0,0,.714.1988,1.9186,1.9186,0,0,0,.612.0975,6.01,6.01,0,0,1,.663.1482q.816.096,1.632.141.51.0473,2.2441.0856a.146.146,0,0,0-.051-.1017,2.01,2.01,0,0,0-.306-.5077q-3.2642-5.1782-2.2951-9.4694a1.8248,1.8248,0,0,1,.867-1.23A22.1964,22.1964,0,0,0,68.2,53.84a25.7619,25.7619,0,0,0,6.5791-15.2975.3285.3285,0,0,0,0-.255q.51-12.856-6.5791-20.7092M56.9291,31.3805a5.9726,5.9726,0,0,1,4.335-1.8678,6.042,6.042,0,0,1,6.12,6.1262,5.7937,5.7937,0,0,1-1.7851,4.3482,5.9459,5.9459,0,0,1-4.3351,1.8168A5.8844,5.8844,0,0,1,56.9291,40,5.72,5.72,0,0,1,55.093,35.729a5.8634,5.8634,0,0,1,1.8361-4.3485M46.5249,35.7918A5.7933,5.7933,0,0,1,44.74,40.14a5.9459,5.9459,0,0,1-4.3351,1.8168,5.8844,5.8844,0,0,1-4.335-1.8043,5.72,5.72,0,0,1-1.8361-4.2706A5.8634,5.8634,0,0,1,36.07,31.5334a5.9726,5.9726,0,0,1,4.335-1.8678,6.042,6.042,0,0,1,6.12,6.1262m-31.5186-4.206a5.9726,5.9726,0,0,1,4.335-1.8678,6.0419,6.0419,0,0,1,6.12,6.1262,5.7928,5.7928,0,0,1-1.785,4.3482,5.9459,5.9459,0,0,1-4.3351,1.8168,5.8844,5.8844,0,0,1-4.335-1.8043A5.72,5.72,0,0,1,13.17,35.9343,5.8634,5.8634,0,0,1,15.0063,31.5858Z" fill="#093951"/></g><g filter="url(#Filter_1)"><g id="star2_0_Layer0_0_FILL" data-name="star2 0 Layer0 0 FILL"><path d="M68.5323,40.4124l-7.2246-8.88,5.5994-7.4135-7.57,5.359-8.3412-6.2115,6.5185,8.2773-6.7324,8.5875,8.6207-6.7787Z" fill="url(#radial-gradient)"/></g></g><g filter="url(#Filter_1)"><g id="star2_0_Layer0_0_FILL-2" data-name="star2 0 Layer0 0 FILL"><path d="M70.6983,49.0217l-4.7667-7.6824,5.1214-5.2528L64.5949,39.532,58.688,33.83l4.2745,7.14-6.1252,6.06,7.4221-4.4536Z" fill="url(#radial-gradient-2)"/></g></g><g filter="url(#Filter_1)"><g id="star2_0_Layer0_0_FILL-3" data-name="star2 0 Layer0 0 FILL"><path d="M53.473,64.9274l-3.3557-4.1243L52.718,57.36l-3.5158,2.4891L45.3279,56.964l3.0277,3.8444-3.1268,3.9887,4.0039-3.1486Z" fill="url(#radial-gradient-3)"/></g></g><g filter="url(#Filter_1)"><g id="star2_0_Layer0_0_FILL-4" data-name="star2 0 Layer0 0 FILL"><path d="M29.6108,37.245l-5.1321-6.3075,3.9774-5.2662L23.079,29.4781l-5.9252-4.4122,4.6306,5.88-4.7822,6.1L23.1257,32.23Z" fill="url(#radial-gradient-4)"/></g></g></svg>