<svg id="Layer_1" data-name="Layer 1" xmlns="http://www.w3.org/2000/svg" xmlns:xlink="http://www.w3.org/1999/xlink" width="80" height="80" viewBox="0 0 80 80"><defs><filter id="Filter_1" x="-20" y="-20" width="140" height="140" name="Filter_1"><feColorMatrix result="result1" values="1 0 0 0 0 0 1 0 0 0 0 0 1 0 0 0 0 0 0.75 0" in="SourceGraphic"/></filter><radialGradient id="radial-gradient" cx="473.9047" cy="329.7396" r="27.8" gradientTransform="matrix(0.4195, 0.4195, 0.4195, -0.4195, -290.6237, -36.1679)" gradientUnits="userSpaceOnUse"><stop offset="0" stop-color="#fff"/><stop offset="1" stop-color="#fff" stop-opacity="0"/></radialGradient><radialGradient id="radial-gradient-2" cx="748.2742" cy="-920.4051" r="27.8" gradientTransform="matrix(0.2615, 0, 0, -0.2615, -171.6598, -178.3594)" xlink:href="#radial-gradient"/><radialGradient id="radial-gradient-3" cx="748.2742" cy="-920.4051" r="27.8" gradientTransform="matrix(0.2615, 0, 0, -0.2615, -141.4245, -171.9908)" xlink:href="#radial-gradient"/><radialGradient id="radial-gradient-4" cx="748.2742" cy="-920.4051" r="27.8" gradientTransform="matrix(0.2615, 0, 0, -0.2615, -170.2377, -229.6791)" xlink:href="#radial-gradient"/></defs><title>explore-icon</title><g id="constellation_map01_0_Layer0_0_FILL" data-name="constellation map01 0 Layer0 0 FILL"><path d="M31.0529,66.9827h-.1236v.0619A.1782.1782,0,0,0,31.0529,66.9827Z" fill="#125002"/><path d="M62.4012,38.17a12.0237,12.0237,0,0,0-1.5458-1.36q-1.0511-.7419-2.5969-1.6694a8.7871,8.7871,0,0,0-2.906-1.1748,5.0121,5.0121,0,0,0-2.4733,0A3.9333,3.9333,0,0,0,51.148,35.14a2.3987,2.3987,0,0,0-.5565,1.1748,1.3294,1.3294,0,0,0-.2473.742,3.0436,3.0436,0,0,0,.3091,1.6076,3.483,3.483,0,0,0,.9275,1.36.0546.0546,0,0,1,.0618.0618,1.0776,1.0776,0,0,1,0,.742.7164.7164,0,0,1-.1237.1854,7.3821,7.3821,0,0,0-.3709,2.35,5.0249,5.0249,0,0,0,.0618,1.36,12.7628,12.7628,0,0,0,.6183,3.03,10.8536,10.8536,0,0,0,1.6076,3.1534,8.8124,8.8124,0,0,0,2.5351,2.4114,5.4007,5.4007,0,0,0,1.9167.9275,2.1454,2.1454,0,0,0,1.9168-.2474A7.2721,7.2721,0,0,0,61.0409,52.7a39.8209,39.8209,0,0,0,2.1023-4.6992q1.5457-4.0189,1.0511-6.3067a7.1785,7.1785,0,0,0-.9275-2.35,9.67,9.67,0,0,0-.8656-1.1748m-8.038-3.03a7.8417,7.8417,0,0,1,4.2045,1.7313,16.029,16.029,0,0,1,2.906,2.535,5.8506,5.8506,0,0,1,1.36,3.5244,8.5418,8.5418,0,0,1-.4328,2.4114q-.1855.6183-.4328,1.36a31.7145,31.7145,0,0,1-1.484,3.5862,4.9061,4.9061,0,0,1-1.0511,1.4839l-.0618.0619a2.4153,2.4153,0,0,1-1.113.7419,2.8223,2.8223,0,0,1-1.9167-.6183A8.5141,8.5141,0,0,1,53.25,47.135a15.16,15.16,0,0,1-.1236-5.8121l.4328-1.7313a6.6314,6.6314,0,0,1-1.2366-1.5457,1.884,1.884,0,0,1-.0619-1.9168A2.197,2.197,0,0,1,54.3632,35.14Z" fill="#a2ce8c"/></g><g id="world_con_color_copy_2_0_Layer1_0_FILL" data-name="world con color copy 2 0 Layer1 0 FILL"><path d="M74.9529,49.7319a35.5872,35.5872,0,0,0,.4328-14.9012A34.2017,34.2017,0,0,0,71.243,23.0828a33.4194,33.4194,0,0,0-6.8014-8.4708q1.7313,1.422.0618,0T61.1027,11.83A25.5771,25.5771,0,0,0,56.8364,9.109,23.2252,23.2252,0,0,0,51.148,7.0068a5.8843,5.8843,0,0,1-1.4221-.4329,1.8828,1.8828,0,0,1-.6184-.4328q-.4327-.371-.68-.6183A8.2335,8.2335,0,0,0,41.255,3.8534a2.1674,2.1674,0,0,0-.6183.3091.1781.1781,0,0,0-.0618-.1236,10.9218,10.9218,0,0,0-1.484-1.5458.1781.1781,0,0,1-.0618-.1237,9.7214,9.7214,0,0,0-1.6076-.9274,7.0842,7.0842,0,0,0-3.03-.8038,6.3341,6.3341,0,0,0-2.7824.8038,16.8832,16.8832,0,0,0-2.4732,1.9167,17.3951,17.3951,0,0,0-2.2878,2.7206,5.9365,5.9365,0,0,0-2.7205-.4947,8.7611,8.7611,0,0,0-1.7931.4329q-.4329.1854-.9275.4328a6.5551,6.5551,0,0,0-1.4839,1.2366q-.5565.6183-1.2367,1.5458a11.7134,11.7134,0,0,0-.68,1.1129,2.7288,2.7288,0,0,0-.371.9275,3.0158,3.0158,0,0,0-.3091.9274,2.8509,2.8509,0,0,0-.2474.9893A37.31,37.31,0,0,0,6.3824,27.2873,34.0462,34.0462,0,0,0,3.971,45.8984a34.7676,34.7676,0,0,0,7.2342,17.3745,38.4867,38.4867,0,0,0,6.5541,6.3686,36.7966,36.7966,0,0,0,4.6373,2.9678,21.96,21.96,0,0,0,3.277,1.6076l.68.3092q1.2984.6183,2.04.9275.4327.1236,1.0511.3091,1.6695.4947,3.5244.9893a.5489.5489,0,0,1,.2473.0618q1.6695.3711,6.4922,1.2367a.2522.2522,0,0,0,.1855.0618.67.67,0,0,1,.2474.1237A13.064,13.064,0,0,0,44.47,79.4726a10.78,10.78,0,0,0,4.4519-.3092,11.0488,11.0488,0,0,0,4.0808-1.9786,12.4173,12.4173,0,0,0,2.4732-2.4114,14.7935,14.7935,0,0,0,5.5648-5.3793l.2473-.1855q.2473-.1236.5565-.3091a25.4119,25.4119,0,0,0,2.2259-2.04q.6183-.68,2.7824-2.9061l.742-.8656.1236-.1237a29.0525,29.0525,0,0,0,7.2343-13.2318M30.9293,66.9209h.1236a.1781.1781,0,0,1-.1236.0618Z" fill="#c7c3be"/><path d="M31.0529,66.9209h-.1236v.0618A.1781.1781,0,0,0,31.0529,66.9209Z" fill="#125002"/></g><g id="world_con_color_copy_2_0_Layer0_0_FILL" data-name="world con color copy 2 0 Layer0 0 FILL"><path d="M64.4416,14.6738q1.7313,1.4222.0618,0t-3.4007-2.7824a25.5771,25.5771,0,0,0-4.2663-2.7206A23.2293,23.2293,0,0,0,51.148,7.0686a5.8894,5.8894,0,0,1-1.4221-.4328,1.8843,1.8843,0,0,1-.6184-.4328q-.4327-.3711-.68-.6184A8.2335,8.2335,0,0,0,41.255,3.9152a2.1649,2.1649,0,0,0-.6183.3092.1781.1781,0,0,0-.0618-.1237,10.9218,10.9218,0,0,0-1.484-1.5458.1781.1781,0,0,1-.0618-.1236,9.7144,9.7144,0,0,0-1.6076-.9275A7.0842,7.0842,0,0,0,34.3918.7a6.3354,6.3354,0,0,0-2.7824.8038,16.8777,16.8777,0,0,0-2.4732,1.9168,17.3949,17.3949,0,0,0-2.2878,2.7205,5.9365,5.9365,0,0,0-2.7205-.4946,8.7544,8.7544,0,0,0-1.7931.4328q-.4329.1856-.9275.4328a6.5577,6.5577,0,0,0-1.4839,1.2366q-.5565.6183-1.2367,1.5458a11.6991,11.6991,0,0,0-.68,1.113,2.7282,2.7282,0,0,0-.371.9274,3.0166,3.0166,0,0,0-.3091.9275,2.85,2.85,0,0,0-.2474.9893A37.3085,37.3085,0,0,0,6.3824,27.3491,34.0462,34.0462,0,0,0,3.971,45.96a34.7668,34.7668,0,0,0,7.2342,17.3745,38.4829,38.4829,0,0,0,6.5541,6.3686,36.8086,36.8086,0,0,0,4.6373,2.9679,21.9793,21.9793,0,0,0,3.277,1.6076l.6183.3091q1.3449.6029,2.1023.9275.4327.1236,1.0511.3091,1.6695.4947,3.5244.9893a.5478.5478,0,0,1,.2473.0619q1.6695.371,6.4922,1.2366a.2522.2522,0,0,0,.1855.0618.6719.6719,0,0,1,.2474.1237A13.064,13.064,0,0,0,44.47,79.5344a10.7782,10.7782,0,0,0,4.4519-.3092,11.0486,11.0486,0,0,0,4.0808-1.9785,12.4228,12.4228,0,0,0,2.4732-2.4114,14.795,14.795,0,0,0,5.5648-5.3793l.2473-.1855q.2473-.1238.5565-.3092a25.3957,25.3957,0,0,0,2.2259-2.04q.6183-.68,2.7824-2.9061l.742-.8656.1236-.1236a29.0528,29.0528,0,0,0,7.2343-13.2319,35.5872,35.5872,0,0,0,.4328-14.9012A34.2025,34.2025,0,0,0,71.243,23.1446a33.4212,33.4212,0,0,0-6.8014-8.4708m-3.4625,1.9167a.42.42,0,0,0,.1855.0619.46.46,0,0,1-.1237.0618,1.4677,1.4677,0,0,1,.1237.8038q-.1238.6183-1.2366.9893a9.445,9.445,0,0,1-6.8014-.0618,19.6577,19.6577,0,0,1-4.2045-2.4114,7.3667,7.3667,0,0,1-1.0512-.8038.4156.4156,0,0,1-.0618-.0619.8158.8158,0,0,0-.1237.0619,21.2,21.2,0,0,1-4.4518,2.535l-1.9786.68a9.1047,9.1047,0,0,1-6.6777-.742,10.9105,10.9105,0,0,1-1.8549-1.0511,15.0885,15.0885,0,0,1-1.6695-1.2366A28.31,28.31,0,0,1,24.87,17.7035l-.9274.1855h-.6183a6.1632,6.1632,0,0,1-1.9786-.5565,1.9152,1.9152,0,0,1-1.2366-1.6076,1.954,1.954,0,0,1,.0618-.8038q.069-.498.1855-.9893v-.1236a.5493.5493,0,0,1,.0618-.2474,15.0009,15.0009,0,0,1,.5565-1.5457v-.0619a.1781.1781,0,0,0,.0618-.1236l.0618-.0619a1.9241,1.9241,0,0,1,.1237-.371l.0618-.1236a1.4376,1.4376,0,0,1,.2474-.371,5.4176,5.4176,0,0,1,.8038-1.0511l.3091-.3092a.9738.9738,0,0,1,.371-.2473A.7172.7172,0,0,0,23.2,9.1708a2.3974,2.3974,0,0,1,1.36-.371,6.0629,6.0629,0,0,1,1.2366,0,.1784.1784,0,0,0-.0618.1237,17.3588,17.3588,0,0,0-.4947,1.9786,6.4858,6.4858,0,0,0-.1236,1.113v.1854q.3587-.433.8038-.9274l.5564-.9275A14.7438,14.7438,0,0,1,30.62,6.5121a13.7312,13.7312,0,0,1,1.4839-.68,5.3976,5.3976,0,0,1,.8657-.4329h.0618a4.885,4.885,0,0,0,.742-.1854q.3833-.0479.8038-.0619a7.0338,7.0338,0,0,1,4.0808.5565,8.9721,8.9721,0,0,1,2.4733,1.7931l1.36,1.4221q.3315.4639.6183.9275a14.2525,14.2525,0,0,0-.4328-1.9168l-.1236-.2473a.5489.5489,0,0,1,.2473-.0618,9.3519,9.3519,0,0,0,1.2366.0618,4.9849,4.9849,0,0,1,1.6694.5565,6.3218,6.3218,0,0,1,1.4222.9893,1.9083,1.9083,0,0,0,.4946.5564,25.9875,25.9875,0,0,1,5.503,1.9168q3.2769,1.6075,5.0083,2.5969A13.9414,13.9414,0,0,1,60.67,16.22l.3092.3091q.0231.0406,0,.0618m1.2366,2.5969a5.9317,5.9317,0,0,1,.68.6183,18.48,18.48,0,0,1,5.1938,7.42,26.54,26.54,0,0,1,1.484,4.3281q.3709,1.4221.8038,3.3389a25.8,25.8,0,0,1,.7419,9.0273,27.9572,27.9572,0,0,1-5.4411,14.2211q-.371.4947-1.0511,1.2985l-1.2984,1.6694A16.6244,16.6244,0,0,1,61.5974,62.84q-.3091.3091-1.6076,1.4221a11.4677,11.4677,0,0,0-1.7931-1.2366,24.5609,24.5609,0,0,0-3.5862-1.36A25.9357,25.9357,0,0,0,49.54,60.8a18.84,18.84,0,0,0-3.8954.0619,16.34,16.34,0,0,0-2.35.68,5.8805,5.8805,0,0,0-2.2877,1.4221q-.8038.8656.0618,3.03a10.1178,10.1178,0,0,1-1.8549.4947,34.3364,34.3364,0,0,1-4.6991.4946H31.0529a.3366.3366,0,0,1-.1855.0619v-.0619a4.5861,4.5861,0,0,0-.2473-1.2366q.0938-.0863-.6183-.9893a5.1629,5.1629,0,0,0-1.9168-1.4221q-1.1171-.49-1.4839-.6183a4.3873,4.3873,0,0,0-.5565-.1855l.1237-.1237H26.23a8.6382,8.6382,0,0,0,.8038-.9274,5.6322,5.6322,0,0,0,.6183-.8657,14.6872,14.6872,0,0,0,1.113-1.6694,4.0431,4.0431,0,0,0,.4946-3.648,9.0131,9.0131,0,0,0,2.9061-2.4114,7.0371,7.0371,0,0,0,.7419-1.1748,7.5585,7.5585,0,0,0,.8038-2.1641,2.1647,2.1647,0,0,1,.1855-.6183.5478.5478,0,0,0,.0619-.2473,6.5382,6.5382,0,0,0,3.5862-3.03,3.881,3.881,0,0,0,.4328-2.4733,3.107,3.107,0,0,0-1.113-2.1022A13.9061,13.9061,0,0,0,40.76,39.468a11.3358,11.3358,0,0,0,1.4221-.9893,19.8056,19.8056,0,0,0,2.1022-1.5458,10.5742,10.5742,0,0,0,2.7824-4.3282l.2473-1.36q.2175-.9444.371-1.9168A3.9417,3.9417,0,0,0,47.5,27.04q-.3709-1.1748-.5564-1.6076a2.7444,2.7444,0,0,0-.8038-.9893,3.7107,3.7107,0,0,0-2.5969-.5565,20.35,20.35,0,0,0-3.8954.4946q-3.0915.4947-3.8953.6183-1.7313.2474-2.35.371a4.6119,4.6119,0,0,0-1.9786,1.113,6.7129,6.7129,0,0,0-.6183,1.1129q-.0618.2474-.3092,1.113a24.55,24.55,0,0,1-2.2259,4.8846q-1.1748,2.04-2.4732,1.9786l-.371-1.1748a8.6732,8.6732,0,0,0,1.484-1.2366,5.0935,5.0935,0,0,0,1.1129-1.4221,4.3126,4.3126,0,0,0,.6183-1.8549v-.0618a.4862.4862,0,0,0,0-.1855V29.575a2.6817,2.6817,0,0,0,0-.68.526.526,0,0,0,0-.2473v-.0619a4.2049,4.2049,0,0,0-.371-1.7312,3.8805,3.8805,0,0,0-.9274-1.5458,4.5866,4.5866,0,0,0-2.2878-.9893,5.3211,5.3211,0,0,0-1.9786,0,.6884.6884,0,0,1-.3091.0618q-.1856.0619-.4328.1237a7.5494,7.5494,0,0,0-2.5969,1.2366q-.2621.2184-.6183.4947l-.0619-.1855L18.81,25.68A7.7922,7.7922,0,0,0,16.09,23.7011l-1.0511-.2473q-.4438-.0513-.8656-.0619a26.5849,26.5849,0,0,1,4.3281-5.3792q.4329.3092.8038.5564a.0547.0547,0,0,1,.0619.0619,6.5853,6.5853,0,0,0,1.6076.4328,6.9516,6.9516,0,0,0,1.36.1236.6883.6883,0,0,1,.3091.0619q.7421-.0618,1.4221-.0619l.742-.1236a19.5205,19.5205,0,0,0,2.5351-.6183q.9893-.3091,1.4221-.4947a5.0823,5.0823,0,0,0,1.4221-.6183,4.3274,4.3274,0,0,1,.6183-.3091,12.3971,12.3971,0,0,0,3.5862,2.2877,12.0741,12.0741,0,0,0,4.6373,1.0511,11.2965,11.2965,0,0,0,4.6373-.9893,17.0967,17.0967,0,0,0,4.019-2.535,8.4652,8.4652,0,0,0,3.71,2.6587,13.11,13.11,0,0,0,4.9465,1.0511,12.04,12.04,0,0,0,4.4518-.8038q.7419-.3091,1.36-.6183l.0618.0618M32.475,29.2659a4.6382,4.6382,0,0,1,1.0512-1.7313,4.181,4.181,0,0,1,1.5457-.8038q1.6077-.4327,7.1724-1.1748a5.1391,5.1391,0,0,1,2.4732.0619,2.1052,2.1052,0,0,1,1.0512,1.2366.8679.8679,0,0,1,.0618.2473,3.4581,3.4581,0,0,1,.2473,1.7313h0a11.5044,11.5044,0,0,1-.4946,2.4114,7.8292,7.8292,0,0,1-.3092,1.0511A11.2938,11.2938,0,0,1,41.4405,37.18a33.5888,33.5888,0,0,1-5.1938,2.7824q0,.0162-.0618,0a18.3072,18.3072,0,0,1-1.6694.8657A2.87,2.87,0,0,1,35.69,42.25v.0618a.068.068,0,0,1,0,.0618,3.1713,3.1713,0,0,1,.371,1.2366,2.501,2.501,0,0,1-.68,2.1023.1451.1451,0,0,1-.1237.0618,2.9094,2.9094,0,0,1-.9274.8657,4.4044,4.4044,0,0,1-1.36.6183.9544.9544,0,0,1-.371.1236,1.0907,1.0907,0,0,1-.4328.371.986.986,0,0,1-.2473.2473,5.8287,5.8287,0,0,1-.1237.742,2.7664,2.7664,0,0,1-.1855.8038,7.3754,7.3754,0,0,1-.9893,2.2259l-.0618.0619a6.6936,6.6936,0,0,1-2.35,2.2259q-.7405.5842-1.0511.8038v.1236a3.3507,3.3507,0,0,1,.4946.9893.1775.1775,0,0,1,.0619.1237,2.8721,2.8721,0,0,1-.1237,1.9167v-.0618a4.2355,4.2355,0,0,1-.6183,1.2985V59.192q-.4662.7655-.8657,1.2985a4.1214,4.1214,0,0,1-.9892.9893l.1236-.0619a6.2676,6.2676,0,0,1-1.2984.9893,5.66,5.66,0,0,1,.4328.8038q.3261.5179.6183,1.0512a10.1669,10.1669,0,0,1,2.1641.68,4.12,4.12,0,0,1,1.7312,1.0511.3736.3736,0,0,1,.0619.1237,4.6263,4.6263,0,0,1,.2473,1.4839,3.8575,3.8575,0,0,1-.8038,2.1023l-.371.4946-.3091-.1236q-.8656-.4947-1.36-.742l-1.9168-1.113-4.39-3.0915a32.9125,32.9125,0,0,1-5.1938-5.2556q-.8657-1.113-1.6076-2.2259a26.76,26.76,0,0,1-1.9167-3.5244,19.9108,19.9108,0,0,1-1.67-4.8846.1778.1778,0,0,0-.1236-.0619v-.2473q-.3711-1.6076-.6183-3.5244v-.3091a.0547.0547,0,0,1-.0619-.0618v-.0619A18.7873,18.7873,0,0,1,8.67,42.3122a25.83,25.83,0,0,1,.9275-8.9037v-.0618q.6645-1.993,1.1748-3.3389,1.2351-2.54,2.2877-4.5754,1.28.0061,1.484,0a10.3271,10.3271,0,0,1,1.1748.3709,6.6089,6.6089,0,0,1,1.36.8038l.4947.4329.1855.1855a7.0484,7.0484,0,0,0,.6183.8038l.1236.1236a2.5016,2.5016,0,0,1,.371.8038q.089-.1209.1855-.2473a5.4724,5.4724,0,0,1,.9275-1.1748A5.1394,5.1394,0,0,1,24.19,25.9888a2.8665,2.8665,0,0,1,1.2984.3092A2.6447,2.6447,0,0,1,26.91,27.9056a3.7317,3.7317,0,0,1,.0618,2.2259,5.8944,5.8944,0,0,1-2.7824,3.277q-.5565.4329-.6183.68a1.7019,1.7019,0,0,0,.0618.742l.68,1.9167a5.245,5.245,0,0,0,.3709.6183,1.0374,1.0374,0,0,0,.9893,0,10.4868,10.4868,0,0,0,4.2045-3.3388,24.1817,24.1817,0,0,0,2.5969-4.761m11.1914,33.636a5.46,5.46,0,0,1,2.2878-.742q4.3281-.4327,10.6349,1.8549a4.8407,4.8407,0,0,1,1.7312.8038,1.4367,1.4367,0,0,1,.6184.9275q.1236.4947-.5565,1.4221l-.1237.1855q.0273.029.0618.0618l-3.0915,3.2152L54.92,68.714a13.5925,13.5925,0,0,1-1.793,3.8953l-.1237.1855q-.4947.6183-.9893,1.1748A8.9638,8.9638,0,0,1,46.82,76.0719a2.78,2.78,0,0,1-.9893.0618,15.4956,15.4956,0,0,1-2.5969-.4328,18.2138,18.2138,0,0,1-2.906-1.113q-1.7313-.8037-2.5969-1.1748-.8038-.3709-1.1748-.5564a.5036.5036,0,0,0-.1237.371,2.525,2.525,0,0,0,.1237.8037,37.2227,37.2227,0,0,1-5.4411-1.8549,4.9951,4.9951,0,0,1-.8038-.371q-.4841-.242-.9275-.4946l.4328-.5565a1.4144,1.4144,0,0,0,.3092-.4328.8167.8167,0,0,0,.0618-.1855l.4328-.8656a4.6579,4.6579,0,0,0,.2473-.8657,6.4855,6.4855,0,0,1,1.484-.1236q1.2984.0618,3.7717-.0619a32.3035,32.3035,0,0,0,7.5433-1.1747q-.0393-.044-.1236-.1237a2.783,2.783,0,0,1-1.113-2.04,2.2359,2.2359,0,0,1,1.2366-1.9786M62.4012,38.17a12.0237,12.0237,0,0,0-1.5458-1.36q-1.0511-.7419-2.5969-1.6694a8.7871,8.7871,0,0,0-2.906-1.1748,5.0121,5.0121,0,0,0-2.4733,0A3.9333,3.9333,0,0,0,51.148,35.14a2.3987,2.3987,0,0,0-.5565,1.1748,1.3294,1.3294,0,0,0-.2473.742,3.0436,3.0436,0,0,0,.3091,1.6076,3.483,3.483,0,0,0,.9275,1.36.0546.0546,0,0,1,.0618.0618,1.0776,1.0776,0,0,1,0,.742.7164.7164,0,0,1-.1237.1854,7.3821,7.3821,0,0,0-.3709,2.35,5.0249,5.0249,0,0,0,.0618,1.36,12.7628,12.7628,0,0,0,.6183,3.03,10.8536,10.8536,0,0,0,1.6076,3.1534,8.8124,8.8124,0,0,0,2.5351,2.4114,5.4007,5.4007,0,0,0,1.9167.9275,2.0453,2.0453,0,0,0,1.9168-.3092,4.8621,4.8621,0,0,0,1.2366-1.2984,36.0367,36.0367,0,0,0,2.04-4.6992q1.6339-3.9586,1.113-6.2449a7.1785,7.1785,0,0,0-.9275-2.35,9.67,9.67,0,0,0-.8656-1.1748m-8.038-3.03a7.8417,7.8417,0,0,1,4.2045,1.7313,16.029,16.029,0,0,1,2.906,2.535,5.8506,5.8506,0,0,1,1.36,3.5244,8.5418,8.5418,0,0,1-.4328,2.4114,12.415,12.415,0,0,1-.4947,1.2985,28.6533,28.6533,0,0,1-1.4221,3.648,4.3,4.3,0,0,1-1.0511,1.4839l-.0618.0619a2.1751,2.1751,0,0,1-1.113.7419,2.8223,2.8223,0,0,1-1.9167-.6183A8.5141,8.5141,0,0,1,53.25,47.135a15.16,15.16,0,0,1-.1236-5.8121l.4328-1.7313a6.6314,6.6314,0,0,1-1.2366-1.5457,1.884,1.884,0,0,1-.0619-1.9168A2.197,2.197,0,0,1,54.3632,35.14Z" fill="#c7c3be"/><path d="M45.9542,62.16a5.46,5.46,0,0,0-2.2878.742A2.2359,2.2359,0,0,0,42.43,64.8805a2.783,2.783,0,0,0,1.113,2.04q.0843.08.1236.1237a32.3035,32.3035,0,0,1-7.5433,1.1747q-2.4733.1238-3.7717.0619a6.4855,6.4855,0,0,0-1.484.1236,4.6579,4.6579,0,0,1-.2473.8657l-.4328.8656a.8167.8167,0,0,1-.0618.1855,1.4144,1.4144,0,0,1-.3092.4328l-.4328.5565q.4434.2526.9275.4946a4.9951,4.9951,0,0,0,.8038.371,37.2227,37.2227,0,0,0,5.4411,1.8549,2.525,2.525,0,0,1-.1237-.8037.5036.5036,0,0,1,.1237-.371q.3709.1854,1.1748.5564.8655.3711,2.5969,1.1748a18.2138,18.2138,0,0,0,2.906,1.113,15.4956,15.4956,0,0,0,2.5969.4328,2.78,2.78,0,0,0,.9893-.0618A8.9638,8.9638,0,0,0,52.0136,73.97q.4947-.5565.9893-1.1748l.1237-.1855A13.5925,13.5925,0,0,0,54.92,68.714l.3092,1.9167L58.32,67.4155q-.0345-.0328-.0618-.0618l.1237-.1855q.68-.9275.5565-1.4221a1.4367,1.4367,0,0,0-.6184-.9275,4.8407,4.8407,0,0,0-1.7312-.8038Q50.2823,61.7272,45.9542,62.16M33.5262,27.5346a4.6382,4.6382,0,0,0-1.0512,1.7313,24.1817,24.1817,0,0,1-2.5969,4.761,10.4868,10.4868,0,0,1-4.2045,3.3388,1.0374,1.0374,0,0,1-.9893,0,5.245,5.245,0,0,1-.3709-.6183l-.68-1.9167a1.7019,1.7019,0,0,1-.0618-.742q.0618-.2474.6183-.68a5.8944,5.8944,0,0,0,2.7824-3.277,3.7317,3.7317,0,0,0-.0618-2.2259,2.6447,2.6447,0,0,0-1.4222-1.6076,2.8665,2.8665,0,0,0-1.2984-.3092,5.1394,5.1394,0,0,0-4.2045,1.5458,5.4724,5.4724,0,0,0-.9275,1.1748q-.0966.1263-.1855.2473a2.5016,2.5016,0,0,0-.371-.8038l-.1236-.1236a7.0484,7.0484,0,0,1-.6183-.8038l-.1855-.1855-.4947-.4329a6.6089,6.6089,0,0,0-1.36-.8038,10.3271,10.3271,0,0,0-1.1748-.3709q-.2037.0061-1.484,0-1.0526,2.0355-2.2877,4.5754-.51,1.3458-1.1748,3.3389v.0618A25.83,25.83,0,0,0,8.67,42.3122a18.7873,18.7873,0,0,0,.1855,2.6587v.0619a.0547.0547,0,0,0,.0619.0618v.3091q.2472,1.9169.6183,3.5244v.2473a.1778.1778,0,0,1,.1236.0619,19.9108,19.9108,0,0,0,1.67,4.8846,26.76,26.76,0,0,0,1.9167,3.5244q.742,1.1129,1.6076,2.2259a32.9125,32.9125,0,0,0,5.1938,5.2556l4.39,3.0915,1.9168,1.113q.4945.2474,1.36.742l.3091.1236.371-.4946a3.8575,3.8575,0,0,0,.8038-2.1023,4.6263,4.6263,0,0,0-.2473-1.4839.3736.3736,0,0,0-.0619-.1237,4.12,4.12,0,0,0-1.7312-1.0511,10.1669,10.1669,0,0,0-2.1641-.68q-.2922-.5334-.6183-1.0512a5.66,5.66,0,0,0-.4328-.8038,6.2676,6.2676,0,0,0,1.2984-.9893l-.1236.0619a4.1214,4.1214,0,0,0,.9892-.9893q.4-.5331.8657-1.2985v.0619a4.2355,4.2355,0,0,0,.6183-1.2985v.0618a2.8721,2.8721,0,0,0,.1237-1.9167.1775.1775,0,0,0-.0619-.1237,3.3507,3.3507,0,0,0-.4946-.9893v-.1236q.3105-.22,1.0511-.8038a6.6936,6.6936,0,0,0,2.35-2.2259l.0618-.0619a7.3754,7.3754,0,0,0,.9893-2.2259,2.7664,2.7664,0,0,0,.1855-.8038,5.8287,5.8287,0,0,0,.1237-.742.986.986,0,0,0,.2473-.2473,1.0907,1.0907,0,0,0,.4328-.371.9544.9544,0,0,0,.371-.1236,4.4044,4.4044,0,0,0,1.36-.6183,2.9094,2.9094,0,0,0,.9274-.8657.1451.1451,0,0,0,.1237-.0618,2.501,2.501,0,0,0,.68-2.1023,3.1713,3.1713,0,0,0-.371-1.2366.068.068,0,0,0,0-.0618V42.25a2.87,2.87,0,0,0-1.1747-1.4221,18.3072,18.3072,0,0,0,1.6694-.8657q.0618.0162.0618,0A33.5888,33.5888,0,0,0,41.4405,37.18a11.2938,11.2938,0,0,0,3.8335-4.8846,7.8292,7.8292,0,0,0,.3092-1.0511,11.5044,11.5044,0,0,0,.4946-2.4114h0a3.4581,3.4581,0,0,0-.2473-1.7313.8679.8679,0,0,0-.0618-.2473,2.1052,2.1052,0,0,0-1.0512-1.2366,5.1391,5.1391,0,0,0-2.4732-.0619q-5.5647.742-7.1724,1.1748a4.181,4.181,0,0,0-1.5457.8038m29.37-7.7289a5.9317,5.9317,0,0,0-.68-.6183l-.0618-.0618q-.6183.3092-1.36.6183a12.04,12.04,0,0,1-4.4518.8038,13.11,13.11,0,0,1-4.9465-1.0511,8.4652,8.4652,0,0,1-3.71-2.6587,17.0967,17.0967,0,0,1-4.019,2.535,11.2965,11.2965,0,0,1-4.6373.9893,12.0741,12.0741,0,0,1-4.6373-1.0511,12.3971,12.3971,0,0,1-3.5862-2.2877,4.3274,4.3274,0,0,0-.6183.3091,5.0823,5.0823,0,0,1-1.4221.6183q-.4329.1855-1.4221.4947a19.5205,19.5205,0,0,1-2.5351.6183l-.742.1236q-.68,0-1.4221.0619a.6883.6883,0,0,0-.3091-.0619,6.9516,6.9516,0,0,1-1.36-.1236,6.5853,6.5853,0,0,1-1.6076-.4328.0547.0547,0,0,0-.0619-.0619q-.371-.2473-.8038-.5564a26.5849,26.5849,0,0,0-4.3281,5.3792q.4217.0107.8656.0619l1.0511.2473A7.7922,7.7922,0,0,1,18.81,25.68l.2473.371.0619.1855q.3563-.2763.6183-.4947a7.5494,7.5494,0,0,1,2.5969-1.2366q.2472-.0618.4328-.1237a.6884.6884,0,0,0,.3091-.0618,5.3211,5.3211,0,0,1,1.9786,0,4.5866,4.5866,0,0,1,2.2878.9893,3.8805,3.8805,0,0,1,.9274,1.5458,4.2049,4.2049,0,0,1,.371,1.7312v.0619a.526.526,0,0,1,0,.2473,2.6817,2.6817,0,0,1,0,.68v.0619a.4862.4862,0,0,1,0,.1855v.0618a4.3126,4.3126,0,0,1-.6183,1.8549A5.0935,5.0935,0,0,1,26.91,33.1612a8.6732,8.6732,0,0,1-1.484,1.2366l.371,1.1748q1.2984.0618,2.4732-1.9786a24.55,24.55,0,0,0,2.2259-4.8846q.2473-.8656.3092-1.113a6.7129,6.7129,0,0,1,.6183-1.1129,4.6119,4.6119,0,0,1,1.9786-1.113q.6183-.1236,2.35-.371.8037-.1236,3.8953-.6183a20.35,20.35,0,0,1,3.8954-.4946,3.7107,3.7107,0,0,1,2.5969.5565,2.7444,2.7444,0,0,1,.8038.9893q.1854.4327.5564,1.6076a3.9417,3.9417,0,0,1,.1855,2.2877q-.1536.9724-.371,1.9168l-.2473,1.36a10.5742,10.5742,0,0,1-2.7824,4.3282,19.8056,19.8056,0,0,1-2.1022,1.5458,11.3358,11.3358,0,0,1-1.4221.9893,13.9061,13.9061,0,0,1-3.8954,1.6076,3.107,3.107,0,0,1,1.113,2.1022,3.881,3.881,0,0,1-.4328,2.4733,6.5382,6.5382,0,0,1-3.5862,3.03.5478.5478,0,0,1-.0619.2473,2.1647,2.1647,0,0,0-.1855.6183,7.5585,7.5585,0,0,1-.8038,2.1641,7.0371,7.0371,0,0,1-.7419,1.1748A9.0131,9.0131,0,0,1,29.26,55.2967a4.0431,4.0431,0,0,1-.4946,3.648,14.6872,14.6872,0,0,1-1.113,1.6694,5.6322,5.6322,0,0,1-.6183.8657,8.6382,8.6382,0,0,1-.8038.9274h-.0618l-.1237.1237a4.3873,4.3873,0,0,1,.5565.1855q.3669.1283,1.4839.6183a5.1629,5.1629,0,0,1,1.9168,1.4221q.7121.9032.6183.9893a4.5861,4.5861,0,0,1,.2473,1.2366h3.6481a34.3364,34.3364,0,0,0,4.6991-.4946,10.1178,10.1178,0,0,0,1.8549-.4947q-.8656-2.164-.0618-3.03a5.8805,5.8805,0,0,1,2.2877-1.4221,16.34,16.34,0,0,1,2.35-.68A18.84,18.84,0,0,1,49.54,60.8a25.9357,25.9357,0,0,1,5.07.8657,24.5609,24.5609,0,0,1,3.5862,1.36A11.4677,11.4677,0,0,1,59.99,64.2622q1.2984-1.113,1.6076-1.4221a16.6244,16.6244,0,0,0,1.7313-1.7313l1.2984-1.6694q.68-.8038,1.0511-1.2985A27.9572,27.9572,0,0,0,71.1193,43.92a25.8,25.8,0,0,0-.7419-9.0273q-.4329-1.9167-.8038-3.3389a26.54,26.54,0,0,0-1.484-4.3281,18.48,18.48,0,0,0-5.1938-7.42m-2.04,17.0035a12.0237,12.0237,0,0,1,1.5458,1.36,9.67,9.67,0,0,1,.8656,1.1748,7.1785,7.1785,0,0,1,.9275,2.35q.5209,2.2863-1.113,6.2449a36.0367,36.0367,0,0,1-2.04,4.6992,4.8621,4.8621,0,0,1-1.2366,1.2984,2.0453,2.0453,0,0,1-1.9168.3092,5.4007,5.4007,0,0,1-1.9167-.9275,8.8124,8.8124,0,0,1-2.5351-2.4114,10.8536,10.8536,0,0,1-1.6076-3.1534,12.7628,12.7628,0,0,1-.6183-3.03,5.0249,5.0249,0,0,1-.0618-1.36,7.3821,7.3821,0,0,1,.3709-2.35.7164.7164,0,0,0,.1237-.1854,1.0776,1.0776,0,0,0,0-.742.0546.0546,0,0,0-.0618-.0618,3.483,3.483,0,0,1-.9275-1.36,3.0436,3.0436,0,0,1-.3091-1.6076,1.3294,1.3294,0,0,1,.2473-.742A2.3987,2.3987,0,0,1,51.148,35.14a3.9333,3.9333,0,0,1,1.7312-1.1748,5.0121,5.0121,0,0,1,2.4733,0,8.7871,8.7871,0,0,1,2.906,1.1748q1.5458.9275,2.5969,1.6694m-2.2877.0619A7.8417,7.8417,0,0,0,54.3632,35.14a2.197,2.197,0,0,0-2.1023.9893,1.884,1.884,0,0,0,.0619,1.9168,6.6314,6.6314,0,0,0,1.2366,1.5457l-.4328,1.7313A15.16,15.16,0,0,0,53.25,47.135a8.5141,8.5141,0,0,0,3.0916,4.8228,2.8223,2.8223,0,0,0,1.9167.6183,2.1751,2.1751,0,0,0,1.113-.7419l.0618-.0619a4.3,4.3,0,0,0,1.0511-1.4839,28.6533,28.6533,0,0,0,1.4221-3.648,12.415,12.415,0,0,0,.4947-1.2985,8.5418,8.5418,0,0,0,.4328-2.4114,5.8506,5.8506,0,0,0-1.36-3.5244,16.029,16.029,0,0,0-2.906-2.535m2.5969-20.2187a.42.42,0,0,1-.1855-.0619q.0231-.0211,0-.0618L60.67,16.22a13.9414,13.9414,0,0,0-2.535-1.9168q-1.7313-.9893-5.0083-2.5969a25.9875,25.9875,0,0,0-5.503-1.9168,1.9083,1.9083,0,0,1-.4946-.5564,6.3218,6.3218,0,0,0-1.4222-.9893,4.9849,4.9849,0,0,0-1.6694-.5565,9.3519,9.3519,0,0,1-1.2366-.0618.5489.5489,0,0,0-.2473.0618l.1236.2473A14.2525,14.2525,0,0,1,43.11,9.851q-.2868-.4635-.6183-.9275l-1.36-1.4221a8.9721,8.9721,0,0,0-2.4733-1.7931,7.0338,7.0338,0,0,0-4.0808-.5565q-.42.0141-.8038.0619a4.885,4.885,0,0,1-.742.1854H32.97a5.3976,5.3976,0,0,0-.8657.4329,13.7312,13.7312,0,0,0-1.4839.68,14.7438,14.7438,0,0,0-4.1427,3.8335l-.5564.9275q-.4452.4944-.8038.9274v-.1854a6.4858,6.4858,0,0,1,.1236-1.113,17.3588,17.3588,0,0,1,.4947-1.9786A.1784.1784,0,0,1,25.7973,8.8a6.0629,6.0629,0,0,0-1.2366,0,2.3974,2.3974,0,0,0-1.36.371.7172.7172,0,0,1-.1855.1237.9738.9738,0,0,0-.371.2473l-.3091.3092a5.4176,5.4176,0,0,0-.8038,1.0511,1.4376,1.4376,0,0,0-.2474.371l-.0618.1236a1.9241,1.9241,0,0,0-.1237.371l-.0618.0619a.1781.1781,0,0,1-.0618.1236v.0619a15.0009,15.0009,0,0,0-.5565,1.5457.5493.5493,0,0,0-.0618.2474v.1236q-.1164.4912-.1855.9893a1.954,1.954,0,0,0-.0618.8038,1.9152,1.9152,0,0,0,1.2366,1.6076,6.1632,6.1632,0,0,0,1.9786.5565h.6183l.9274-.1855a28.31,28.31,0,0,0,6.1831-2.2877,15.0885,15.0885,0,0,0,1.6695,1.2366,10.9105,10.9105,0,0,0,1.8549,1.0511,9.1047,9.1047,0,0,0,6.6777.742l1.9786-.68a21.2,21.2,0,0,0,4.4518-2.535.8158.8158,0,0,1,.1237-.0619.4156.4156,0,0,0,.0618.0619,7.3667,7.3667,0,0,0,1.0512.8038,19.6577,19.6577,0,0,0,4.2045,2.4114,9.445,9.445,0,0,0,6.8014.0618q1.1129-.371,1.2366-.9893a1.4677,1.4677,0,0,0-.1237-.8038A.46.46,0,0,0,61.1646,16.6524Z" fill="#2b2f36"/><path d="M30.8674,66.9827v.0619a.3366.3366,0,0,0,.1855-.0619Z" fill="#125002"/></g><g id="constellation_map01_0_Layer0_2_FILL" data-name="constellation map01 0 Layer0 2 FILL"><path d="M61.1027,11.8914a25.5771,25.5771,0,0,0-4.2663-2.7206A23.2293,23.2293,0,0,0,51.148,7.0686a5.8894,5.8894,0,0,1-1.4221-.4328,1.8843,1.8843,0,0,1-.6184-.4328q-.4327-.3711-.68-.6184A8.2335,8.2335,0,0,0,41.255,3.9152a2.1649,2.1649,0,0,0-.6183.3092.1781.1781,0,0,0-.0618-.1237,10.9218,10.9218,0,0,0-1.484-1.5458.1781.1781,0,0,1-.0618-.1236,9.7144,9.7144,0,0,0-1.6076-.9275A7.0842,7.0842,0,0,0,34.3918.7a6.3354,6.3354,0,0,0-2.7824.8038,16.8777,16.8777,0,0,0-2.4732,1.9168,17.3949,17.3949,0,0,0-2.2878,2.7205,5.9365,5.9365,0,0,0-2.7205-.4946,8.7544,8.7544,0,0,0-1.7931.4328q-.4329.1856-.9275.4328a6.5577,6.5577,0,0,0-1.4839,1.2366q-.5565.6183-1.2367,1.5458a11.6991,11.6991,0,0,0-.68,1.113,2.7282,2.7282,0,0,0-.371.9274,3.0166,3.0166,0,0,0-.3091.9275,2.85,2.85,0,0,0-.2474.9893A37.3085,37.3085,0,0,0,6.3824,27.3491,34.0462,34.0462,0,0,0,3.971,45.96a34.7668,34.7668,0,0,0,7.2342,17.3745,38.4829,38.4829,0,0,0,6.5541,6.3686,36.8086,36.8086,0,0,0,4.6373,2.9679,21.9793,21.9793,0,0,0,3.277,1.6076l.68.3091q1.2984.6183,2.04.9275.4327.1236,1.0511.3091,1.6695.4947,3.5244.9893a.5478.5478,0,0,1,.2473.0619q1.6695.371,6.4922,1.2366a.2522.2522,0,0,0,.1855.0618.6719.6719,0,0,1,.2474.1237A13.064,13.064,0,0,0,44.47,79.5344a10.7782,10.7782,0,0,0,4.4519-.3092,11.0486,11.0486,0,0,0,4.0808-1.9785,12.4228,12.4228,0,0,0,2.4732-2.4114,14.795,14.795,0,0,0,5.5648-5.3793l.2473-.1855q.2473-.1238.5565-.3092a25.3957,25.3957,0,0,0,2.2259-2.04q.6183-.68,2.7824-2.9061l.742-.8656.1236-.1236a29.0528,29.0528,0,0,0,7.2343-13.2319,35.5872,35.5872,0,0,0,.4328-14.9012A34.2025,34.2025,0,0,0,71.243,23.1446a33.4212,33.4212,0,0,0-6.8014-8.4708q1.7313,1.4222.0618,0t-3.4007-2.7824m-.0618,4.761h.1237l-.0619.0618a1.7349,1.7349,0,0,1,.0619.8038q-.1238.6183-1.2366.9893a9.445,9.445,0,0,1-6.8014-.0618,19.6577,19.6577,0,0,1-4.2045-2.4114,7.3667,7.3667,0,0,1-1.0512-.8038.0547.0547,0,0,1-.0618-.0619.1782.1782,0,0,0-.1237.0619,21.2,21.2,0,0,1-4.4518,2.535l-1.9786.68a9.1047,9.1047,0,0,1-6.6777-.742,10.9105,10.9105,0,0,1-1.8549-1.0511,13.6169,13.6169,0,0,1-1.6076-1.2366,28.8679,28.8679,0,0,1-6.245,2.2877l-.9274.1855h-.6183a6.1632,6.1632,0,0,1-1.9786-.5565,1.9152,1.9152,0,0,1-1.2366-1.6076,1.954,1.954,0,0,1,.0618-.8038,6.1441,6.1441,0,0,1,.1855-.9275v-.1854a.5493.5493,0,0,1,.0618-.2474,15.0009,15.0009,0,0,1,.5565-1.5457v-.0619a.1781.1781,0,0,0,.0618-.1236l.0618-.0619a1.9241,1.9241,0,0,1,.1237-.371l.0618-.1236a1.4376,1.4376,0,0,1,.2474-.371,5.4176,5.4176,0,0,1,.8038-1.0511l.3091-.3092a.9738.9738,0,0,1,.371-.2473A.7172.7172,0,0,0,23.2,9.1708a2.3974,2.3974,0,0,1,1.36-.371,6.0629,6.0629,0,0,1,1.2366,0,.1784.1784,0,0,0-.0618.1237,17.3588,17.3588,0,0,0-.4947,1.9786,6.4858,6.4858,0,0,0-.1236,1.113v.2473q.3709-.4947.8038-.9893l.5564-.9275A14.7438,14.7438,0,0,1,30.62,6.5121a7.9178,7.9178,0,0,1,1.4839-.68,8.48,8.48,0,0,1,.8657-.4329h.0618a4.885,4.885,0,0,0,.742-.1854,4.8871,4.8871,0,0,1,.8038-.0619,7.0338,7.0338,0,0,1,4.0808.5565,8.9721,8.9721,0,0,1,2.4733,1.7931l1.36,1.4221q.3091.4947.6183.9275a11.5481,11.5481,0,0,0-.4328-1.9168l-.1236-.2473a.5489.5489,0,0,1,.2473-.0618,9.3519,9.3519,0,0,0,1.2366.0618,4.9849,4.9849,0,0,1,1.6694.5565,6.3218,6.3218,0,0,1,1.4222.9893,1.9083,1.9083,0,0,0,.4946.5564,25.9875,25.9875,0,0,1,5.503,1.9168q3.2769,1.6075,5.0083,2.5969a11.77,11.77,0,0,1,2.535,1.9786,3.7309,3.7309,0,0,1,.3092.2473.1783.1783,0,0,0,.0618.1237m1.1748,2.535a5.9317,5.9317,0,0,1,.68.6183,18.48,18.48,0,0,1,5.1938,7.42,26.54,26.54,0,0,1,1.484,4.3281q.3709,1.4221.8038,3.3389a25.8,25.8,0,0,1,.7419,9.0273,27.9572,27.9572,0,0,1-5.4411,14.2211q-.371.4947-1.0511,1.2985l-1.2984,1.6694A16.6244,16.6244,0,0,1,61.5974,62.84q-.3091.3091-1.6076,1.4221a11.4677,11.4677,0,0,0-1.7931-1.2366,20.4324,20.4324,0,0,0-3.5862-1.2985,22.3711,22.3711,0,0,0-5.07-.8656,18.6945,18.6945,0,0,0-3.8336,0,14.6272,14.6272,0,0,0-2.4114.68,5.8805,5.8805,0,0,0-2.2877,1.4221q-.8038.8656.0618,3.03a10.1178,10.1178,0,0,1-1.8549.4947,34.3364,34.3364,0,0,1-4.6991.4946H31.0529a.1782.1782,0,0,1-.1236.0619v-.0619a6.6668,6.6668,0,0,0-.2474-1.1748q.0619-.1236-.68-1.0511a5.1664,5.1664,0,0,0-1.8549-1.36q-1.1748-.5565-1.5458-.68a4.3873,4.3873,0,0,0-.5565-.1855l.1237-.1237H26.23a8.6382,8.6382,0,0,0,.8038-.9274,5.6322,5.6322,0,0,0,.6183-.8657,14.6872,14.6872,0,0,0,1.113-1.6694,4.0431,4.0431,0,0,0,.4946-3.648,9.0131,9.0131,0,0,0,2.9061-2.4114,7.0371,7.0371,0,0,0,.7419-1.1748,7.5585,7.5585,0,0,0,.8038-2.1641,2.1647,2.1647,0,0,1,.1855-.6183.5478.5478,0,0,0,.0619-.2473,6.5382,6.5382,0,0,0,3.5862-3.03,3.881,3.881,0,0,0,.4328-2.4733,3.107,3.107,0,0,0-1.113-2.1022A13.9061,13.9061,0,0,0,40.76,39.468q.7419-.4329,1.4839-.9275.4947-.371,2.04-1.6076a10.4511,10.4511,0,0,0,2.7824-4.3282l.3092-1.2984q.1854-.9893.3091-1.9786A3.9417,3.9417,0,0,0,47.5,27.04q-.3709-1.1748-.5564-1.6076a2.7444,2.7444,0,0,0-.8038-.9893,3.7107,3.7107,0,0,0-2.5969-.5565,20.35,20.35,0,0,0-3.8954.4946q-3.0915.4947-3.8953.6183-1.7313.2474-2.35.371a4.6119,4.6119,0,0,0-1.9786,1.113,6.7129,6.7129,0,0,0-.6183,1.1129q-.0618.2474-.3092,1.113a24.55,24.55,0,0,1-2.2259,4.8846q-1.1748,2.04-2.4732,1.9786l-.371-1.1748a11.6743,11.6743,0,0,0,1.5458-1.1747,9.9566,9.9566,0,0,0,1.1129-1.484,5.144,5.144,0,0,0,.5565-1.8549v-.0618a.4742.4742,0,0,1,.0618-.1855v-.68a1.0173,1.0173,0,0,1-.0618-.3091v-.0619a4.0793,4.0793,0,0,0-.371-1.7312,3.8805,3.8805,0,0,0-.9274-1.5458,4.5866,4.5866,0,0,0-2.2878-.9893,5.3211,5.3211,0,0,0-1.9786,0,.6884.6884,0,0,1-.3091.0618q-.1856.0619-.4328.1237a7.5494,7.5494,0,0,0-2.5969,1.2366,4.0547,4.0547,0,0,1-.6183.4947l-.0619-.1855L18.81,25.68A7.7922,7.7922,0,0,0,16.09,23.7011l-1.0511-.2473a6.1162,6.1162,0,0,0-.8656-.0619,26.8632,26.8632,0,0,1,4.3281-5.3792q.4329.3092.8038.5564a.0547.0547,0,0,1,.0619.0619,6.5853,6.5853,0,0,0,1.6076.4328,6.9516,6.9516,0,0,0,1.36.1236.6883.6883,0,0,1,.3091.0619q.7421-.0618,1.4221-.0619l.742-.1236a19.5205,19.5205,0,0,0,2.5351-.6183q.9893-.3091,1.4221-.4947a5.0823,5.0823,0,0,0,1.4221-.6183,4.3274,4.3274,0,0,1,.6183-.3091,12.3971,12.3971,0,0,0,3.5862,2.2877,12.0741,12.0741,0,0,0,4.6373,1.0511,11.2965,11.2965,0,0,0,4.6373-.9893,17.0967,17.0967,0,0,0,4.019-2.535,8.4652,8.4652,0,0,0,3.71,2.6587,13.11,13.11,0,0,0,4.9465,1.0511,12.04,12.04,0,0,0,4.4518-.8038q.7419-.3091,1.36-.6183l.0618.0618M32.475,29.2659a4.6382,4.6382,0,0,1,1.0512-1.7313,4.181,4.181,0,0,1,1.5457-.8038q1.6077-.4327,7.1724-1.1748a5.1391,5.1391,0,0,1,2.4732.0619,2.1052,2.1052,0,0,1,1.0512,1.2366,2.4,2.4,0,0,1,.1236.3091,3.9622,3.9622,0,0,1,.1855,1.67v.0618a17.4923,17.4923,0,0,1-.4328,2.4114l-.371.9893a11.7063,11.7063,0,0,1-3.8335,4.9465,34.8619,34.8619,0,0,1-5.132,2.7205.0547.0547,0,0,0-.0618.0619q-.9892.4945-1.6694.8656A2.552,2.552,0,0,1,35.69,42.3122a.0547.0547,0,0,0,.0619.0618,3.3654,3.3654,0,0,1,.3091,1.2366,2.6394,2.6394,0,0,1-.68,2.1641.0547.0547,0,0,0-.0618.0619,3.999,3.999,0,0,1-.9893.8038,5.1421,5.1421,0,0,1-1.2985.68.9.9,0,0,0-.371.1237,3.25,3.25,0,0,1-.4946.3091.9687.9687,0,0,0-.1855.2473q-.0618.3091-.1855.8038a4.8825,4.8825,0,0,1-.1855.742,7.5537,7.5537,0,0,1-.9893,2.2878,8.2153,8.2153,0,0,1-2.35,2.2877,6.5576,6.5576,0,0,0-1.1129.8038v.0618q.4328.7421.5565.9893a.1783.1783,0,0,0,.0618.1237,3.77,3.77,0,0,1-.1237,1.9167v-.0618a8.0872,8.0872,0,0,1-.68,1.2985q-.4947.68-.8657,1.2366a5.2949,5.2949,0,0,1-.8656.9893.0546.0546,0,0,0-.0618.0618q-.6183.4947-1.1748.8656.1855.3711.4328.8038l.5565,1.113a9.1992,9.1992,0,0,1,2.2259.68,3.8384,3.8384,0,0,1,1.7313.9893v.1237a4.6263,4.6263,0,0,1,.2473,1.4839,3.8575,3.8575,0,0,1-.8038,2.1023l-.3092.5565-.3709-.1855q-.8656-.4947-1.36-.742l-1.855-1.0511L20.047,65.1278a32.9125,32.9125,0,0,1-5.1938-5.2556q-.8657-1.113-1.6076-2.2259a26.76,26.76,0,0,1-1.9167-3.5244,19.9108,19.9108,0,0,1-1.67-4.8846.1778.1778,0,0,0-.1236-.0619v-.2473q-.3711-1.6076-.6183-3.5244v-.3091a.0547.0547,0,0,1-.0619-.0618v-.0619A18.7873,18.7873,0,0,1,8.67,42.3122a25.83,25.83,0,0,1,.9275-8.9037v-.0618q.68-1.9785,1.1748-3.3389,1.2366-2.535,2.2877-4.5136,1.2986-.0618,1.5458-.0618l1.113.3709a6.6089,6.6089,0,0,1,1.36.8038l.4947.4329.2473.2473a5.523,5.523,0,0,0,.5565.742l.1236.1236a1.9807,1.9807,0,0,1,.371.8038.9716.9716,0,0,1,.1855-.2473,5.4724,5.4724,0,0,1,.9275-1.1748A5.1394,5.1394,0,0,1,24.19,25.9888a2.8665,2.8665,0,0,1,1.2984.3092A2.6447,2.6447,0,0,1,26.91,27.9056a3.7317,3.7317,0,0,1,.0618,2.2259,5.8944,5.8944,0,0,1-2.7824,3.277q-.5565.4329-.6183.68a1.7019,1.7019,0,0,0,.0618.742l.68,1.9167a5.245,5.245,0,0,0,.3709.6183,1.0374,1.0374,0,0,0,.9893,0,10.4868,10.4868,0,0,0,4.2045-3.3388,24.1817,24.1817,0,0,0,2.5969-4.761m11.1914,33.636a5.46,5.46,0,0,1,2.2878-.742q4.3281-.4327,10.6349,1.8549a4.8407,4.8407,0,0,1,1.7312.8038,1.4367,1.4367,0,0,1,.6184.9275q.1236.4947-.5565,1.4221l-.1237.1855.0618.0618-3.0915,3.2152L54.92,68.714a13.5925,13.5925,0,0,1-1.793,3.8953l-.1237.1855q-.4947.6183-.9893,1.1748A8.9638,8.9638,0,0,1,46.82,76.0719a2.78,2.78,0,0,1-.9893.0618,15.4956,15.4956,0,0,1-2.5969-.4328,18.2138,18.2138,0,0,1-2.906-1.113q-1.7313-.8037-2.5969-1.1748-.8038-.3709-1.1748-.5564a.5036.5036,0,0,0-.1237.371,2.525,2.525,0,0,0,.1237.8037,37.2227,37.2227,0,0,1-5.4411-1.8549,4.9951,4.9951,0,0,1-.8038-.371,8.0636,8.0636,0,0,1-.8657-.4946l.371-.5565a1.6514,1.6514,0,0,0,.3092-.4328.2521.2521,0,0,0,.0618-.1855l.4328-.8656a3.42,3.42,0,0,0,.2473-.8657,6.5954,6.5954,0,0,1,1.484-.1236q1.2984.0618,3.7717-.0619a34.5346,34.5346,0,0,0,7.6052-1.1129l-.1855-.1855a2.783,2.783,0,0,1-1.113-2.04A2.2359,2.2359,0,0,1,43.6664,62.9019Z" fill="#c7c3be"/></g><g filter="url(#Filter_1)"><g id="star2_0_Layer0_0_FILL" data-name="star2 0 Layer0 0 FILL"><path d="M58.1584,36.02l-9.23-11.4114L56.0817,15.19l-9.67,6.7756L35.7549,13.9524l8.3279,10.6354-8.6006,10.908,11.013-8.58Z" fill="url(#radial-gradient)"/></g></g><g filter="url(#Filter_1)"><g id="star2_0_Layer0_0_FILL-2" data-name="star2 0 Layer0 0 FILL"><path d="M31.3057,62.3788l-6.4336-.68-.7061-5.1652L23.2637,61.66l-5.819.8238,5.91.7192.7192,6.0806.7585-6.1067Z" fill="url(#radial-gradient-2)"/></g></g><g filter="url(#Filter_1)"><g id="star2_0_Layer0_0_FILL-3" data-name="star2 0 Layer0 0 FILL"><path d="M61.541,68.7474l-6.4336-.68-.7061-5.1651-.9023,5.1259-5.819.8238,5.91.7192.7192,6.0806.7585-6.1067Z" fill="url(#radial-gradient-3)"/></g></g><g filter="url(#Filter_1)"><g id="star2_0_Layer0_0_FILL-4" data-name="star2 0 Layer0 0 FILL"><path d="M32.7278,11.0592l-6.4336-.68L25.5881,5.214l-.9023,5.126-5.819.8238,5.91.7192.7192,6.0805.7585-6.1067Z" fill="url(#radial-gradient-4)"/></g></g><g id="constellation_map01_0_Layer0_7_FILL" data-name="constellation map01 0 Layer0 7 FILL"><path d="M62.4012,38.17a12.0237,12.0237,0,0,0-1.5458-1.36q-1.0511-.7419-2.5969-1.6694a8.7871,8.7871,0,0,0-2.906-1.1748,5.0121,5.0121,0,0,0-2.4733,0A3.9333,3.9333,0,0,0,51.148,35.14a2.3987,2.3987,0,0,0-.5565,1.1748,1.3294,1.3294,0,0,0-.2473.742,3.0436,3.0436,0,0,0,.3091,1.6076,3.483,3.483,0,0,0,.9275,1.36.0546.0546,0,0,1,.0618.0618,1.0776,1.0776,0,0,1,0,.742.7164.7164,0,0,1-.1237.1854,7.3821,7.3821,0,0,0-.3709,2.35,5.0249,5.0249,0,0,0,.0618,1.36,12.7628,12.7628,0,0,0,.6183,3.03,10.8536,10.8536,0,0,0,1.6076,3.1534,8.8124,8.8124,0,0,0,2.5351,2.4114,5.4007,5.4007,0,0,0,1.9167.9275,2.1454,2.1454,0,0,0,1.9168-.2474A7.2721,7.2721,0,0,0,61.0409,52.7a39.8209,39.8209,0,0,0,2.1023-4.6992q1.5457-4.0189,1.0511-6.3067a7.1785,7.1785,0,0,0-.9275-2.35,9.67,9.67,0,0,0-.8656-1.1748m-8.038-3.03a7.8417,7.8417,0,0,1,4.2045,1.7313,16.029,16.029,0,0,1,2.906,2.535,5.8506,5.8506,0,0,1,1.36,3.5244,8.5418,8.5418,0,0,1-.4328,2.4114q-.1855.6183-.4328,1.36a31.7145,31.7145,0,0,1-1.484,3.5862,4.9061,4.9061,0,0,1-1.0511,1.4839l-.0618.0619a2.4153,2.4153,0,0,1-1.113.7419,2.8223,2.8223,0,0,1-1.9167-.6183A8.5141,8.5141,0,0,1,53.25,47.135a15.16,15.16,0,0,1-.1236-5.8121l.4328-1.7313a6.6314,6.6314,0,0,1-1.2366-1.5457,1.884,1.884,0,0,1-.0619-1.9168A2.197,2.197,0,0,1,54.3632,35.14Z" fill="#c7c3be"/></g></svg>