<svg id="Layer_1" data-name="Layer 1" xmlns="http://www.w3.org/2000/svg" xmlns:xlink="http://www.w3.org/1999/xlink" width="80" height="80" viewBox="0 0 80 80"><defs><filter id="Filter_1" x="-20" y="-20" width="140" height="140" name="Filter_1"><feColorMatrix result="result1" values="1 0 0 0 0 0 1 0 0 0 0 0 1 0 0 0 0 0 0.75 0" in="SourceGraphic"/></filter><radialGradient id="radial-gradient" cx="442.0466" cy="133.0645" r="27.8" gradientTransform="matrix(0.4985, 0.2878, 0.2878, -0.4985, -206.3277, -32.3279)" gradientUnits="userSpaceOnUse"><stop offset="0" stop-color="#fff"/><stop offset="1" stop-color="#fff" stop-opacity="0"/></radialGradient><radialGradient id="radial-gradient-2" cx="1522.5796" cy="-331.6098" r="27.8" gradientTransform="matrix(0.1972, 0.1138, 0.1138, -0.1972, -243.1207, -208.3954)" xlink:href="#radial-gradient"/><radialGradient id="radial-gradient-3" cx="898.8809" cy="-1122.1612" r="27.8" gradientTransform="matrix(0.2277, 0, 0, -0.2277, -160.7106, -217.1733)" xlink:href="#radial-gradient"/><radialGradient id="radial-gradient-4" cx="1607.19" cy="-93.301" r="27.8" gradientTransform="matrix(0.1808, 0.1384, 0.1384, -0.1808, -241.8982, -224.715)" xlink:href="#radial-gradient"/><radialGradient id="radial-gradient-5" cx="1275.8255" cy="1625.5703" r="27.8" gradientTransform="matrix(-0.0036, 0.2276, 0.2276, 0.0036, -342.063, -234.3191)" xlink:href="#radial-gradient"/></defs><title>games-icon</title><g id="game_con_color_copy_2_0_Layer1_0_FILL" data-name="game con color copy 2 0 Layer1 0 FILL"><path d="M65.5113,25.2945l-.0539-.0538q-8.0207-12.0041-18.679-12.0041-.2691-.9688-2.8529-2.9606a13.8366,13.8366,0,0,0-2.2071-1.4534,11.688,11.688,0,0,0-3.0683-1.13,16.22,16.22,0,0,0-4.5755-.2691,37.6773,37.6773,0,0,0-5.5983.5921,19.9382,19.9382,0,0,0-6.19,2.3147,15.6524,15.6524,0,0,0-4.8985,4.4141,12.9511,12.9511,0,0,0-2.4762,5.9212q-.2152.1077-.4845.2692l-.1076.1077a10.52,10.52,0,0,0-1.9917,1.2919q-.6461.4845-1.13.8613a15.2044,15.2044,0,0,0-2.6915,2.8529A21.7063,21.7063,0,0,0,6.89,29.1165a49.0771,49.0771,0,0,0-2.8529,8.99Q3.23,41.605,2.3149,47.4186q-.7,4.9524-1.1843,8.8282Q.8615,58.2922.7538,59.3151a23.8778,23.8778,0,0,0-.1076,3.1221,9.788,9.788,0,0,0,.8074,3.7681,8.0455,8.0455,0,0,0,1.2919,1.884A13.6734,13.6734,0,0,0,4.36,69.65a13.2559,13.2559,0,0,0,3.3913,2.3147,12.8166,12.8166,0,0,0,3.4451.8074,23.442,23.442,0,0,0,4.7371.0539,11.2647,11.2647,0,0,0,4.4679-1.3458,19.4075,19.4075,0,0,0,3.4989-2.6915,23.3669,23.3669,0,0,0,4.0373-4.8447,34.5534,34.5534,0,0,1,2.207-3.2836,7.339,7.339,0,0,0,.5383-.7l.6459-.5383A19.13,19.13,0,0,1,35.205,57a30.1342,30.1342,0,0,1,4.3064-1.5073,37.4514,37.4514,0,0,1,4.4679-.9151,24.0008,24.0008,0,0,1,3.5528-.323,9.3675,9.3675,0,0,1,3.4451.5922,12.6636,12.6636,0,0,1,3.8757,2.6915q.5384.5382,1.7226,1.6687,1.0227.969,1.7764,1.5611a13.3808,13.3808,0,0,0,7.267,2.853,13.1931,13.1931,0,0,0,7.6439-1.4,11.5529,11.5529,0,0,0,4.7908-4.2526,10.173,10.173,0,0,0,1.2381-2.9606,8.2094,8.2094,0,0,0,.2154-3.23,8.048,8.048,0,0,0-.1615-.8075,14.661,14.661,0,0,0-2.3147-6.89v-.0539l-11.52-18.7328M5.8677,64.9134a6.9538,6.9538,0,0,1-1.1305-2.9068,11.0662,11.0662,0,0,0,.3769,1.2919A8.43,8.43,0,0,0,5.8677,64.9134Z" fill="#c7c3be"/><path d="M4.7372,62.0066a6.9538,6.9538,0,0,0,1.1305,2.9068,8.43,8.43,0,0,1-.7536-1.6149A11.0662,11.0662,0,0,1,4.7372,62.0066Z" fill="#2458bb"/></g><g id="game_con_color_copy_2_0_Layer0_0_FILL" data-name="game con color copy 2 0 Layer0 0 FILL"><path d="M65.5651,25.2407l-.0538-.0538q-8.0207-12.0042-18.679-12.0041-.2692-.969-2.853-2.9607a13.8468,13.8468,0,0,0-2.207-1.4534,11.6924,11.6924,0,0,0-3.0684-1.13,16.223,16.223,0,0,0-4.5755-.2692,37.6918,37.6918,0,0,0-5.5983.5922,19.9391,19.9391,0,0,0-6.19,2.3147,15.6532,15.6532,0,0,0-4.8985,4.414,12.9514,12.9514,0,0,0-2.4762,5.9213q-.2152.1077-.4844.2692l-.1077.1076A10.5317,10.5317,0,0,0,12.3811,22.28q-.6459.4845-1.13.8613a15.2012,15.2012,0,0,0-2.6915,2.853,21.71,21.71,0,0,0-1.6149,3.0683,49.0717,49.0717,0,0,0-2.853,8.99q-.8075,3.4991-1.7226,9.3126-.7,4.9524-1.1842,8.8281Q.9152,58.2385.8077,59.2612A23.8636,23.8636,0,0,0,.7,62.3834a9.79,9.79,0,0,0,.8074,3.7681,8.0472,8.0472,0,0,0,1.292,1.884,13.6657,13.6657,0,0,0,1.6149,1.5611,13.2551,13.2551,0,0,0,3.3913,2.3147,12.8185,12.8185,0,0,0,3.4451.8074,23.4331,23.4331,0,0,0,4.737.0538,11.2637,11.2637,0,0,0,4.4679-1.3457,19.4075,19.4075,0,0,0,3.4989-2.6915,23.3638,23.3638,0,0,0,4.0373-4.8447,34.56,34.56,0,0,1,2.207-3.2836,7.3532,7.3532,0,0,0,.5383-.7l.646-.5383a19.13,19.13,0,0,1,3.8757-2.4224,30.1344,30.1344,0,0,1,4.3064-1.5072,37.4316,37.4316,0,0,1,4.4679-.9151,24.0019,24.0019,0,0,1,3.5528-.323,9.37,9.37,0,0,1,3.4451.5921,12.6656,12.6656,0,0,1,3.8758,2.6915q.5382.5384,1.7225,1.6688,1.0228.9689,1.7764,1.561a13.38,13.38,0,0,0,7.2671,2.853,13.1913,13.1913,0,0,0,7.6438-1.4,11.5536,11.5536,0,0,0,4.7909-4.2525,10.1747,10.1747,0,0,0,1.2381-2.9607,8.2093,8.2093,0,0,0,.2153-3.23,8.0183,8.0183,0,0,0-.1615-.8074,14.66,14.66,0,0,0-2.3147-6.89v-.0538l-11.52-18.7328M52.3229,17.4892q5.32,2.0241,10.3354,9.5279L74.1779,45.75v-.0538a11.1344,11.1344,0,0,1,1.7764,5.8674.5992.5992,0,0,1-.0539.2692,2.7306,2.7306,0,0,1-.1076.7536v.1077q-.0538.1614-.1077.3768l-.1076.2153a7.6182,7.6182,0,0,1-.7,1.2919,10.6406,10.6406,0,0,1-3.8219,3.0683l-.0539.0539Q64.3271,60.8223,58.19,55.17,50.3311,48.0646,40.75,50.5946h.0538a41.5722,41.5722,0,0,0-7.3747,2.3685,16.0535,16.0535,0,0,0-5.5445,3.7143,35.2029,35.2029,0,0,0-4.8985,6.2443l-.5383.9689q-3.3375,4.6831-10.12,4.0372a.0476.0476,0,0,0-.0539-.0538,1.0151,1.0151,0,0,1-.3229-.0538,3.0321,3.0321,0,0,1-.5922-.0538l-.0538-.0539H11.143a.1551.1551,0,0,0-.1076-.0538q-3.6067-.5383-5.06-2.6915a.1551.1551,0,0,1-.0538-.1077,6.9513,6.9513,0,0,1-1.13-2.9068,12.15,12.15,0,0,1,.0538-3.7681v-.2691a.1555.1555,0,0,1,.0538-.1077L8.3439,37.9446a17.6043,17.6043,0,0,1,.8612-3.9835q.0737-.2586.1615-.5383.0519-.15.1077-.3229l.6459-1.8841a14.6271,14.6271,0,0,1,.5922-1.5072l.5921-1.13a36.0078,36.0078,0,0,1,3.0683-4.36A20.3085,20.3085,0,0,1,19.81,20.2345a54.2423,54.2423,0,0,1,7.2132-3.3913q-4.3938,1.38-6.944,2.0994a10.3711,10.3711,0,0,1,4.0372-5.06,15.6581,15.6581,0,0,1,4.4679-2.0456h.1077a.1549.1549,0,0,1,.1076-.0538q.7536-.2153,1.5611-.3768l.0538-.0538h.1615a22.533,22.533,0,0,1,2.4224-.4307q.5921-.0539,1.13-.1076,4.8986-.4306,6.8364,1.1842,2.1533,1.7765,1.4534,2.0456-1.4052.19-7.59.9689,9.4644-.0654,12.4347.8075Q50.2989,16.7061,52.3229,17.4892Z" fill="#c7c3be"/><path d="M5.1679,63.2446a11.0359,11.0359,0,0,1-.3768-1.2919,6.9513,6.9513,0,0,0,1.13,2.9068A8.4245,8.4245,0,0,1,5.1679,63.2446Z" fill="#2458bb"/><path d="M62.6583,27.0171q-5.0152-7.5039-10.3354-9.5279-2.0241-.7832-5.06-1.6687-2.97-.8728-12.4347-.8075,6.1848-.7791,7.59-.9689.7-.2693-1.4534-2.0456-1.9378-1.6149-6.8364-1.1842-.5383.0539-1.13.1076a22.533,22.533,0,0,0-2.4224.4307h-.1615l-.0538.0538q-.8074.1616-1.5611.3768a.1549.1549,0,0,0-.1076.0538h-.1077a15.6581,15.6581,0,0,0-4.4679,2.0456,10.3711,10.3711,0,0,0-4.0372,5.06q2.55-.7194,6.944-2.0994A54.2423,54.2423,0,0,0,19.81,20.2345a20.3085,20.3085,0,0,0-5.4368,3.9834,36.0078,36.0078,0,0,0-3.0683,4.36l-.5921,1.13a14.6271,14.6271,0,0,0-.5922,1.5072L9.4743,33.1q-.0558.1733-.1077.3229-.0879.28-.1615.5383a17.6043,17.6043,0,0,0-.8612,3.9835L4.8987,57.8078a.1555.1555,0,0,0-.0538.1077v.2691a12.15,12.15,0,0,0-.0538,3.7681,11.0359,11.0359,0,0,0,.3768,1.2919A8.4245,8.4245,0,0,0,5.9215,64.86a.1551.1551,0,0,0,.0538.1077q1.4535,2.1532,5.06,2.6915a.1551.1551,0,0,1,.1076.0538h.1615l.0538.0539a3.0321,3.0321,0,0,0,.5922.0538,1.0151,1.0151,0,0,0,.3229.0538.0476.0476,0,0,1,.0539.0538q6.7826.6461,10.12-4.0372l.5383-.9689a35.2029,35.2029,0,0,1,4.8985-6.2443,16.0535,16.0535,0,0,1,5.5445-3.7143,41.5722,41.5722,0,0,1,7.3747-2.3685H40.75q9.5817-2.53,17.4409,4.5756,6.1367,5.652,12.8115,2.53l.0539-.0539a10.6406,10.6406,0,0,0,3.8219-3.0683,7.6182,7.6182,0,0,0,.7-1.2919l.1076-.2153q.0538-.2154.1077-.3768v-.1077a2.7306,2.7306,0,0,0,.1076-.7536.5992.5992,0,0,0,.0539-.2692,11.1344,11.1344,0,0,0-1.7764-5.8674V45.75Z" fill="#290d41"/></g><path id="game_con_color_copy_2_0_Layer0_1_1_STROKES" data-name="game con color copy 2 0 Layer0 1 1 STROKES" d="M28.7454,36.4373l-7.59,1.7226,1.7764,7.913M19.4867,30.7852,21.1554,38.16l-7.6439,1.7225" fill="none" stroke="#c7c3be" stroke-linecap="round" stroke-linejoin="round" stroke-width="1.25"/><g id="game_con_color_copy_2_0_Layer0_2_FILL" data-name="game con color copy 2 0 Layer0 2 FILL"><path d="M46.4016,33.692v-.0538a5.0814,5.0814,0,0,0-3.93-.4307h-.1076a4.7127,4.7127,0,0,0-3.0683,2.7454,4.76,4.76,0,0,0-.4307,3.8219v.0538a5.69,5.69,0,0,0,2.6915,3.176,4.6226,4.6226,0,0,0,3.93.2153,5.3553,5.3553,0,0,0,3.1222-2.3685l.1076-.2153a5.2763,5.2763,0,0,0,.1615-3.9835,4.9155,4.9155,0,0,0-2.4762-2.9606m1.292,3.3913a4.0634,4.0634,0,0,1,0,3.176,3.98,3.98,0,0,1-2.3686,1.7763.0476.0476,0,0,0-.0538.0539,4.3355,4.3355,0,0,1-3.0145,0,4.6554,4.6554,0,0,1-2.207-2.6377,3.368,3.368,0,0,1,.3768-2.7992v-.2691a3.9864,3.9864,0,0,1,2.4762-1.9917,3.8773,3.8773,0,0,1,3.0683.323,4.1306,4.1306,0,0,1,1.7226,2.207v.1615m2.9606-13.4575L50.6,23.68a5.1666,5.1666,0,0,0-3.0683,2.53.1552.1552,0,0,0-.0539.1077,5.4942,5.4942,0,0,0-.3229,3.8758.1551.1551,0,0,0,.0538.1076,5.173,5.173,0,0,0,2.53,2.9068,4.4829,4.4829,0,0,0,3.9834.4845,5.2277,5.2277,0,0,0,3.1221-2.53.1552.1552,0,0,0,.0539-.1077,5.0414,5.0414,0,0,0,.323-3.93A4.5534,4.5534,0,0,0,54.6376,24.11a5.3861,5.3861,0,0,0-3.9834-.4845m.323,1.0228a4.5562,4.5562,0,0,1,3.23.4844l.1076.1077a2.8248,2.8248,0,0,1,1.7764,2.1532.31.31,0,0,1,.1077.2153,3.4452,3.4452,0,0,1-.2153,3.0145,4.7182,4.7182,0,0,1-2.53,2.0994h-.1077a3.1741,3.1741,0,0,1-2.9068-.323q-.1077,0-.1077-.0539a4.0357,4.0357,0,0,1-1.884-5.5983A5.2549,5.2549,0,0,1,50.9772,24.6486Z" fill="#c7c3be"/><path d="M47.6936,40.2593a4.0634,4.0634,0,0,0,0-3.176v-.1615a4.1306,4.1306,0,0,0-1.7226-2.207,3.8773,3.8773,0,0,0-3.0683-.323,3.9864,3.9864,0,0,0-2.4762,1.9917v.2691a3.368,3.368,0,0,0-.3768,2.7992,4.6554,4.6554,0,0,0,2.207,2.6377,4.3355,4.3355,0,0,0,3.0145,0,.0476.0476,0,0,1,.0538-.0539,3.98,3.98,0,0,0,2.3686-1.7763M54.207,25.133a4.5562,4.5562,0,0,0-3.23-.4844,5.2549,5.2549,0,0,0-2.53,2.0993,4.0357,4.0357,0,0,0,1.884,5.5983q0,.0538.1077.0539a3.1741,3.1741,0,0,0,2.9068.323h.1077a4.7182,4.7182,0,0,0,2.53-2.0994,3.4452,3.4452,0,0,0,.2153-3.0145.31.31,0,0,0-.1077-.2153,2.8248,2.8248,0,0,0-1.7764-2.1532Z" fill="#290d41"/></g><g id="constellation_arcade01_0_Layer0_1_FILL" data-name="constellation arcade01 0 Layer0 1 FILL"><path d="M65.5651,25.2407l-.0538-.0538q-8.0207-12.0042-18.679-12.0041-.2692-.969-2.853-2.9607a13.8468,13.8468,0,0,0-2.207-1.4534,11.6924,11.6924,0,0,0-3.0684-1.13,16.223,16.223,0,0,0-4.5755-.2692,37.6918,37.6918,0,0,0-5.5983.5922,19.9391,19.9391,0,0,0-6.19,2.3147,15.6532,15.6532,0,0,0-4.8985,4.414,12.9514,12.9514,0,0,0-2.4762,5.9213q-.2152.1077-.4844.2692l-.1077.1076A10.5317,10.5317,0,0,0,12.3811,22.28q-.6459.4845-1.13.8613a15.2012,15.2012,0,0,0-2.6915,2.853,21.71,21.71,0,0,0-1.6149,3.0683,49.0717,49.0717,0,0,0-2.853,8.99q-.8075,3.4991-1.7226,9.3126-.7,4.9524-1.1842,8.8281Q.9152,58.2385.8077,59.2612A23.8636,23.8636,0,0,0,.7,62.3834a9.79,9.79,0,0,0,.8074,3.7681,8.0451,8.0451,0,0,0,1.292,1.884,13.6657,13.6657,0,0,0,1.6149,1.5611,13.2551,13.2551,0,0,0,3.3913,2.3147,12.8185,12.8185,0,0,0,3.4451.8074,23.4331,23.4331,0,0,0,4.737.0538,11.2637,11.2637,0,0,0,4.4679-1.3457,19.4075,19.4075,0,0,0,3.4989-2.6915,23.3638,23.3638,0,0,0,4.0373-4.8447,34.56,34.56,0,0,1,2.207-3.2836,7.3532,7.3532,0,0,0,.5383-.7l.646-.5383a19.13,19.13,0,0,1,3.8757-2.4224,30.1344,30.1344,0,0,1,4.3064-1.5072,37.4316,37.4316,0,0,1,4.4679-.9151,24.0019,24.0019,0,0,1,3.5528-.323,9.37,9.37,0,0,1,3.4451.5921,12.6656,12.6656,0,0,1,3.8758,2.6915q.5382.5384,1.7225,1.6688,1.0228.9689,1.7764,1.561a13.38,13.38,0,0,0,7.2671,2.853,13.1913,13.1913,0,0,0,7.6438-1.4,11.5536,11.5536,0,0,0,4.7909-4.2525,10.1747,10.1747,0,0,0,1.2381-2.9607,8.2093,8.2093,0,0,0,.2153-3.23,8.0183,8.0183,0,0,0-.1615-.8074,14.66,14.66,0,0,0-2.3147-6.89v-.0538l-11.52-18.7328m-18.2484-9.42q2.9607.8612,5.0062,1.6687,5.3292,2.0456,10.3354,9.5279L74.1779,45.75v-.0538a11.1344,11.1344,0,0,1,1.7764,5.8674.5992.5992,0,0,1-.0539.2692,2.7306,2.7306,0,0,1-.1076.7536v.1077q-.0538.1614-.1077.3768l-.1076.2153a7.6182,7.6182,0,0,1-.7,1.2919,10.6406,10.6406,0,0,1-3.8219,3.0683l-.0539.0539Q64.3271,60.8223,58.19,55.17,50.3311,48.0646,40.75,50.5946h.0538a41.5722,41.5722,0,0,0-7.3747,2.3685,16.0535,16.0535,0,0,0-5.5445,3.7143,35.2029,35.2029,0,0,0-4.8985,6.2443l-.5383.9689q-3.3375,4.6831-10.12,4.0373a.0477.0477,0,0,0-.0539-.0539,1.0151,1.0151,0,0,1-.3229-.0538,3.0321,3.0321,0,0,1-.5922-.0538l-.0538-.0539H11.143a.1551.1551,0,0,0-.1076-.0538q-3.6067-.5383-5.06-2.6915a.1551.1551,0,0,1-.0538-.1077,6.9519,6.9519,0,0,1-1.13-2.9068,12.15,12.15,0,0,1,.0538-3.7681v-.2691a.1555.1555,0,0,1,.0538-.1077L8.3439,37.9446a16.6936,16.6936,0,0,1,.8612-3.9835,1.92,1.92,0,0,1,.1615-.4844q.0538-.2154.1077-.3768l.6459-1.8841a14.6271,14.6271,0,0,1,.5922-1.5072l.5921-1.13a33.2714,33.2714,0,0,1,3.1221-4.36,18.8873,18.8873,0,0,1,5.383-3.9834,57.9732,57.9732,0,0,1,7.2132-3.3913q-4.414,1.4-6.944,2.0994a10.3711,10.3711,0,0,1,4.0372-5.06,15.6581,15.6581,0,0,1,4.4679-2.0456h.1077a.1549.1549,0,0,1,.1076-.0538q.7536-.2153,1.5611-.3768l.0538-.0538h.1615a22.533,22.533,0,0,1,2.4224-.4307q.5921-.0539,1.13-.1076,4.8986-.4306,6.8364,1.1842,2.1533,1.7765,1.4534,2.0456-1.4.2152-7.59.9689,9.474-.0538,12.4885.8075M20.1326,30.6775a.5409.5409,0,0,0-.2691-.4306.6394.6394,0,0,0-.4845-.1077.5176.5176,0,0,0-.4306.323.5826.5826,0,0,0-.1077.4845l1.5611,6.7287-6.9979,1.5611a.5176.5176,0,0,0-.4307.323.5827.5827,0,0,0-.1076.4844.64.64,0,0,0,.323.4307.7338.7338,0,0,0,.4844.0538l6.9979-1.5611,1.6149,7.2671a.64.64,0,0,0,.323.4306.7334.7334,0,0,0,.4845.0538.6888.6888,0,0,0,.4306-.2691.7838.7838,0,0,0,.0538-.4845l-1.6149-7.3208,6.9441-1.5611a.6886.6886,0,0,0,.4306-.2692.7837.7837,0,0,0,.0539-.4844.5408.5408,0,0,0-.2692-.4307.64.64,0,0,0-.4845-.1076l-6.944,1.6149-1.5611-6.7288m26.269,3.0145v-.0538a5.0814,5.0814,0,0,0-3.93-.4307h-.1076a4.7124,4.7124,0,0,0-3.0683,2.7454,4.76,4.76,0,0,0-.4307,3.8219v.0538a5.69,5.69,0,0,0,2.6915,3.176,4.6226,4.6226,0,0,0,3.93.2153,5.3553,5.3553,0,0,0,3.1222-2.3685l.1076-.2153a5.2763,5.2763,0,0,0,.1615-3.9835,4.9155,4.9155,0,0,0-2.4762-2.9606m1.292,3.23v.1615a4.0634,4.0634,0,0,1,0,3.176,3.98,3.98,0,0,1-2.3686,1.7763.0476.0476,0,0,0-.0538.0539,4.3355,4.3355,0,0,1-3.0145,0,4.6554,4.6554,0,0,1-2.207-2.6377,3.368,3.368,0,0,1,.3768-2.7992v-.2691a3.9864,3.9864,0,0,1,2.4762-1.9917,3.8773,3.8773,0,0,1,3.0683.323,4.1306,4.1306,0,0,1,1.7226,2.207m2.9606-13.296L50.6,23.68a5.1666,5.1666,0,0,0-3.0683,2.53.1552.1552,0,0,0-.0539.1077,5.4942,5.4942,0,0,0-.3229,3.8758.1551.1551,0,0,0,.0538.1076,5.173,5.173,0,0,0,2.53,2.9068,4.4829,4.4829,0,0,0,3.9834.4845,5.2277,5.2277,0,0,0,3.1221-2.53.1552.1552,0,0,0,.0539-.1077,5.0414,5.0414,0,0,0,.323-3.93A4.5534,4.5534,0,0,0,54.6376,24.11a5.3861,5.3861,0,0,0-3.9834-.4845M54.207,25.133l.1076.1077a2.8248,2.8248,0,0,1,1.7764,2.1532.31.31,0,0,1,.1077.2153,3.4452,3.4452,0,0,1-.2153,3.0145,4.7182,4.7182,0,0,1-2.53,2.0994h-.1077a3.1741,3.1741,0,0,1-2.9068-.323q-.1077,0-.1077-.0538a4.0359,4.0359,0,0,1-1.884-5.5984,5.2549,5.2549,0,0,1,2.53-2.0993A4.5562,4.5562,0,0,1,54.207,25.133Z" fill="#c7c3be"/><path d="M4.7911,61.9527a6.9519,6.9519,0,0,0,1.13,2.9068,8.4245,8.4245,0,0,1-.7536-1.6149A11.0416,11.0416,0,0,1,4.7911,61.9527Z" fill="#2458bb"/></g><g filter="url(#Filter_1)"><g id="star2_0_Layer0_0_FILL" data-name="star2 0 Layer0 0 FILL"><path d="M66.1629,36.6073,54.6478,28.2314l4.338-10.6227-7.3607,8.778L39.6267,21.5535l10.4749,7.8751-5.32,12.3819L52.947,31.0048Z" fill="url(#radial-gradient)"/></g></g><g filter="url(#Filter_1)"><g id="star2_0_Layer0_0_FILL-2" data-name="star2 0 Layer0 0 FILL"><path d="M24.8319,33.4606l-4.5547-3.3124,1.7153-4.2016-2.9109,3.4721-4.7458-1.9112,4.1433,3.1144-2.1038,4.8974,3.2293-4.2741Z" fill="url(#radial-gradient-2)"/></g></g><g filter="url(#Filter_1)"><g id="star2_0_Layer0_0_FILL-3" data-name="star2 0 Layer0 0 FILL"><path d="M50.2821,38.3505l-5.6011-.592-.6147-4.4968-.7855,4.4626-5.0661.7172,5.1458.6262.6261,5.2937.66-5.3165Z" fill="url(#radial-gradient-3)"/></g></g><g filter="url(#Filter_1)"><g id="star2_0_Layer0_0_FILL-4" data-name="star2 0 Layer0 0 FILL"><path d="M40.7024,18.4811,36.6158,14.606l2.2457-3.9436-3.3366,3.0652-4.4577-2.51,3.7043,3.6253L32.05,19.4257l3.7562-3.8192Z" fill="url(#radial-gradient-4)"/></g></g><g filter="url(#Filter_1)"><g id="star2_0_Layer0_0_FILL-5" data-name="star2 0 Layer0 0 FILL"><path d="M23.2378,68.261l.68-5.59,4.5052-.5435-4.449-.8558-.6369-5.0759L22.63,61.33l-5.3021.5423,5.3045.7441Z" fill="url(#radial-gradient-5)"/></g></g></svg>