<?xml version="1.0" encoding="utf-8"?>
<!-- Generator: Adobe Illustrator 23.1.0, SVG Export Plug-In . SVG Version: 6.00 Build 0)  -->
<svg version="1.1" id="Layer_1" xmlns="http://www.w3.org/2000/svg" xmlns:xlink="http://www.w3.org/1999/xlink" x="0px" y="0px"
	 viewBox="0 0 371.7 309.7" style="enable-background:new 0 0 371.7 309.7;" xml:space="preserve">
<style type="text/css">
	.st0{fill:#1B3709;}
	.st1{fill:#254C0C;}
	.st2{fill:#CEFFDA;}
	.st3{fill:#47A52B;}
	.st4{fill:#3C7B14;}
	.st5{fill:#6AE361;}
	.st6{fill:#5FC120;}
	.st7{fill:#5AC152;}
	.st8{fill:#F0FFF0;}
	.st9{fill:#FFD200;}
	.st10{fill:#D5AF00;}
	.st11{fill:#AF6A00;}
</style>
<g transform="matrix( 1.21710205078125, 0, 0, 1.21710205078125, 0.25,-8.2) ">
	<g transform="matrix( 1, 0, 0, 1, 0,0) ">
		<g>
			<g id="Duplicate_Items_Folder_Symbol_1_copy_0_Layer6_0_FILL_1_">
				<path class="st0" d="M223.3,33.4c-32.2,1.3-89.4,8.5-171.6,21.6c0,0.1,0,0.3,0,0.5c-1.8,0.7-3.5,1.4-5.3,2.2
					C36.2,166.9,28.6,234.7,23.6,261c3.4,0.8,32.2-0.9,86.5-5.1c54.2-4.2,115-4.7,182.3-1.6c0.4-87.5,4.6-161.9,12.8-223.5
					C282.8,31.2,255.5,32.1,223.3,33.4z"/>
				<path class="st1" d="M286.7,96.1c1.6-27.8,2.7-45.6,3.3-53.2c-38.4,2.2-71.1,4-98.4,5.2c-17.9,0.8-33.9,2-47.9,3.4
					c-16.8,1.7-30.9,3.8-42.3,6.4c-15.5,3.5-29,7.1-40.5,10.8C56,110.6,51.8,146,48.2,174.6c-3.6,28.7-6.5,52.5-8.7,71.4
					c61.6-4.2,140.8-7.1,237.8-8.6C280.7,192.1,283.8,145,286.7,96.1z"/>
			</g>
		</g>
	</g>
	<g transform="matrix( 1, 0, 0, 1, 0,0) ">
		<g>
			<g id="Duplicate_Items_Folder_Symbol_1_copy_0_Layer6_1_FILL_1_">
				<path class="st2" d="M270.6,161.3c-2.1,36.9-3.7,58.1-4.9,63.5L36.2,246.9l245.2-8c0.1-5.8,0.1-12.4,0-19.9
					c-0.2-47.2,2.7-105.2,8.8-173.9C279.3,85.7,272.7,124.4,270.6,161.3z"/>
			</g>
		</g>
	</g>
	<g transform="matrix( 0.912567138671875, 0, 0, 0.912567138671875, -12.1,-17.95) ">
		<g>
			<g id="Duplicate_Items_Folder_Symbol_1_copy_0_Layer5_0_FILL_1_">
				<path class="st3" d="M145.6,145.9l11.2-1.6l-59.4-3.8c-7.1,6.9-13.9,13.7-20.7,20.7L145.6,145.9 M186,173.7
					c3.6-2.6,7.3-5.2,10.9-7.8l-36.7-20.5l-1.4-1L186,173.7z"/>
				<path class="st4" d="M156.8,144.3l-11.2,1.6l-68.8,15.3c-17.6,18.2-34,36.7-49.1,55.4c-2.6,3.3-5.2,6.5-7.6,9.6
					c-1.7,12.8-3.5,26.7-5.5,41.6c12.8-1.3,31.3-2.4,55.5-3.5c1.3,0,2.7-0.1,4-0.1c12.8-12.1,27.8-25.2,45.1-39.3
					c21.8-17.8,44.1-34.9,66.9-51.2L159,144.5L60.8,247.3c-0.9-0.1-1.7-0.1-2.4-0.1c-12.3-1.4-19.9-8.2-22.6-20.4v-0.2
					c-0.1-0.4-0.3-0.8-0.3-1.1l122.3-81L156.8,144.3 M116,123c-6.3,5.8-12.5,11.7-18.6,17.5l59.4,3.8l0.8-0.3v-0.2l-1.9-0.4l0.1-0.2
					L116,123 M76.4,75.8c2.1-0.6,4.3-1.3,6.5-1.9l16.4,15.2c10.9-7.6,22.1-14.9,33.5-21.9c13.9-8.4,28-16.3,42.3-23.5L47.6,58
					l-7.2,29.8c-1.9,5.5-4.2,17.9-6.8,37.4c-0.7,4.8-1.6,11.5-2.8,19.9C46,130.7,62,117,78.7,104.2L56.7,93c0.5-1.3,1.2-2.4,1.9-3.3
					c0-0.1,0.1-0.2,0.2-0.2c1.1-1.8,2.4-3.4,3.8-4.8C66.6,80.5,71.2,77.5,76.4,75.8 M196.9,165.9c9.2-6.4,18.5-12.7,27.8-19
					l-65.9-2.5l1.4,1L196.9,165.9 M288.8,54.8v-0.2c1.5,1.1,2.8,2.9,4.1,5.2l-132.9,84l107.3-23.9c15.1-9.2,30.4-18.1,45.9-26.7
					c3.7-31.3,6.6-53.4,8.8-66.1L219.5,38.8c-8.7,6.3-17.1,12.6-25.1,18.7c-24.3,18.5-47,37.3-68.4,56.4l30.8,28.6l2.9,0.1l88.7-92
					c0.8,0,1.8,0,2.9,0h0.1c11.1-0.3,19.8,0.1,26.3,1.2C283.3,52.7,287.1,53.7,288.8,54.8z"/>
				<path class="st5" d="M116,123c3.3-3,6.7-6.1,10.1-9.2L99.3,89.1c-7,4.9-13.8,9.9-20.6,15.1L116,123 M45.2,137.2
					c0,0.1,0,0.3,0,0.5c-1.6,7.6-3,15.3-4.3,23.1v0.2c-0.6,2.9-1.1,5.7-1.5,8.6l37.3-8.3c6.7-6.9,13.6-13.8,20.7-20.7L45.2,137.2
					 M250.8,240.7h0.2c7.2-0.9,13.9-7.5,20.1-19.8v0.1c1.6-3.3,3.1-6.8,4.6-10.5c0-0.1,0.1-0.3,0.1-0.5l-78.9-44.2
					c-3.7,2.6-7.3,5.2-10.9,7.8l62.1,67C249,240.8,249.9,240.8,250.8,240.7 M294.8,123c0.4-3.3,0.8-6.4,1.1-9.4l-28.6,6.4
					c-14.3,8.7-28.5,17.7-42.6,27l66.1,2.6c0-0.3,0-0.6,0.1-0.8C292.5,139.4,293.7,130.9,294.8,123z"/>
				<path class="st6" d="M45.2,137.7c0-0.2,0-0.4,0-0.5l52.2,3.4c6.1-5.8,12.2-11.7,18.6-17.5l-37.2-18.9
					c-16.7,12.8-32.7,26.4-47.9,40.9c-2.5,18.5-6.1,45.5-10.8,81.1c2.5-3.1,5-6.3,7.6-9.6c15.1-18.7,31.4-37.1,49.1-55.4l-37.3,8.3
					c0.3-2.8,0.8-5.7,1.5-8.6v-0.2C42.3,153,43.7,145.3,45.2,137.7 M295.9,113.6c-0.3,3-0.7,6.1-1.1,9.4c-1.1,7.9-2.3,16.5-3.8,25.8
					c-0.1,0.2-0.1,0.5-0.1,0.8l-66.1-2.6c-9.3,6.2-18.6,12.5-27.8,19l78.9,44.2c-0.1,0.2-0.1,0.4-0.1,0.5c-1.5,3.7-3,7.2-4.6,10.5
					v-0.1c-6.2,12.2-12.9,18.8-20.1,19.8h-0.2c-0.9,0.1-1.8,0.1-2.7,0l-62.1-67c-22.8,16.3-45.1,33.4-66.9,51.2
					c-17.3,14.1-32.3,27.2-45.1,39.3c62-2.6,135.6-3.9,220.9-4c7.4-71,13.5-126.6,18.3-166.8c-15.5,8.6-30.8,17.5-45.9,26.7
					L295.9,113.6 M219.5,38.8l-44.3,4.9c-14.3,7.2-28.4,15.1-42.3,23.5c-11.5,7-22.7,14.3-33.5,21.9l26.7,24.8
					c21.3-19.1,44.1-37.9,68.4-56.4C202.4,51.3,210.8,45.1,219.5,38.8z"/>
				<path class="st7" d="M82.9,73.9c-2.2,0.6-4.4,1.3-6.5,1.9c-5.3,1.7-9.8,4.7-13.8,9c-1.4,1.4-2.7,3-3.8,4.8
					c-0.1,0-0.2,0.1-0.2,0.2c-0.7,1-1.4,2.1-1.9,3.3l22,11.2c6.7-5.2,13.6-10.2,20.6-15.1L82.9,73.9 M288.8,54.6v0.2
					c-1.7-1.1-5.4-2.1-11.3-3c-6.4-1.1-15.2-1.5-26.3-1.2h-0.1c-1.1,0-2,0-2.9,0l-88.7,92l-2.9-0.1L126,113.9
					c-3.4,3.1-6.7,6.1-10.1,9.2l39.9,20.2l-0.1,0.2l1.9,0.4v0.2l-0.8,0.3l0.9,0.1l-122.3,81c0.1,0.3,0.2,0.7,0.3,1.1v0.2
					c2.7,12.2,10.3,19,22.6,20.4c0.7,0,1.5,0.1,2.4,0.1l98.1-102.9l65.9,2.5c14-9.3,28.2-18.3,42.6-27L160,143.8l132.9-84
					C291.6,57.5,290.3,55.7,288.8,54.6z"/>
			</g>
		</g>
	</g>
	<g transform="matrix( 1, 0, 0, 1, 0,0) ">
		<g>
			<g id="Duplicate_Items_Folder_Symbol_1_copy_0_Layer4_0_FILL_1_">
				<path class="st0" d="M219.9,8.8c-6.6,0.2-13.4,0.5-20.3,0.8c-30.6,1.2-89.5,9.2-176.5,23.8C12.6,143,4.8,210.9-0.2,237
					c2.4,0.6,17.7-0.1,45.8-2.1c11.4-0.8,25-1.8,40.7-3c54.2-4.2,114.2-6.4,179.9-6.4c1.2-54.3,3.8-103.8,7.6-148.7
					c2.1-24.7,4.7-48,7.6-69.8C263.9,7.3,243.4,7.9,219.9,8.8 M167.7,24.3c8.6-0.4,17.7-0.7,27.2-0.9c20.6-0.6,43.4-0.8,68.2-0.7
					c-2,7.2-3.1,24.6-3.6,52.3c0,3.2-0.1,6.3-0.1,9.5c-0.9,43.6-3.3,85-7.2,124.3c-75.9,3.7-141,7.3-195.4,10.8
					c-14.5,0.9-28.3,1.8-41.3,2.7c2.2-18.9,5.1-42.7,8.7-71.4s7.8-64,12.7-106c11.5-3.7,25-7.3,40.5-10.8
					c11.4-2.6,25.5-4.7,42.3-6.4C133.9,26.2,149.8,25.1,167.7,24.3z"/>
				<path class="st8" d="M184.8,29.6c-5.5-2.4-11.2-4.2-17.1-5.4c-17.9,0.8-33.9,2-48,3.4c-12.8,4-23.3,10.2-31.5,18.7
					C76.7,58.2,67.5,72.7,60.7,89.8c-5.8,14.6-8.1,29.8-6.8,45.6c0.2,2.7,0.5,5.4,0.9,8.1c2.9,18.4,10.9,34.2,24.1,47.4
					c1.8,1.8,3.7,3.6,5.7,5.3c12.8,10.7,27.8,16.1,44.9,16.4c18.2,0.9,34.9-3.6,50.3-13.6c13.9-9,25.2-21,34.1-35.8
					c9.5-15.8,14.8-32.8,15.8-51c0.2-3.9,0.3-7.7,0.1-11.5c-0.8-14-4.5-27.2-11.2-39.7v-0.1c-6.1-11.2-14.5-20.2-25.1-27.2h-0.1
					C190.4,32.2,187.6,30.8,184.8,29.6 M204.2,76.2c1,2.2,1.8,4.5,2.6,6.8c3,9.3,4.2,18.8,3.6,28.5c-0.5,7.6-2.1,15.4-4.8,23.3
					c-2.8,8.1-6.4,15.5-10.8,22.1c-1,1.5-1.9,2.8-2.8,3.9c-4.5,6-9.8,11.3-15.9,16H176c-1,0.7-1.9,1.3-2.8,2
					c-1.7,1.1-3.4,2.3-5.1,3.5c-0.2,0-0.4,0.1-0.6,0.1c-3.5,2-6.9,3.8-10.4,5.4c-1.6,0.6-3.3,1.2-5.1,1.9c-0.6,0.2-1.2,0.3-1.8,0.5
					l-2.7,0.8l-13,1.9h-0.2l-16-1.3c-0.8-0.2-1.6-0.4-2.5-0.6c-5.8-1.7-11.1-4.1-15.8-7.1c-8.2-5.2-14.8-12.2-19.7-21.1
					c-0.7-1.3-1.4-2.6-2-3.9c-0.2-0.3-0.4-0.6-0.5-1c0-0.1,0-0.2-0.1-0.3c-5.9-12.5-8.2-25.6-6.9-39.2c0.6-6.3,1.9-12.7,4-19.2
					c0.7-2.7,1.6-5.1,2.9-7.4c0.1-0.5,0.3-0.9,0.5-1.3c0.3-1.2,0.8-2.4,1.4-3.5c6.2-13.1,15.1-23.7,26.9-31.9
					c1.5-1.2,3.2-2.3,4.9-3.3c1.3-0.8,2.5-1.5,3.8-2.1c11.1-6.2,22.4-9.1,33.9-8.7c3.4-0.2,6.7,0,10.1,0.4c1.9,0.4,3.8,0.8,5.6,1.3
					c0.6,0.2,1.1,0.3,1.8,0.4c1.4,0.5,2.6,0.9,3.8,1.2c1.7,0.6,3.4,1.2,5,1.8c2.6,1.3,5,2.7,7.1,4.2c3.9,2.6,7.5,5.7,10.7,9.4
					C197.7,64.3,201.3,69.8,204.2,76.2z"/>
				<path class="st9" d="M208.3,112.8c-1,0.6-1.9,1.1-2.9,1.7c-39.2,22.9-74.2,46-105.2,69.5c4.7,3,10,5.4,15.8,7.1
					c0.9,0.2,1.7,0.4,2.5,0.6l16,1.3h0.2l13-1.9l2.7-0.8c0.5-0.2,1.1-0.3,1.6-0.5c1.6-0.7,3.3-1.3,4.9-1.9c3.5-1.5,6.9-3.3,10.3-5.4
					c0.2-0.1,0.4-0.1,0.6-0.1c1.7-1.2,3.4-2.3,5.1-3.5c0.8-0.7,1.6-1.3,2.6-2h0.1c6-4.7,11.2-10.1,15.6-16c0.8-1.1,1.6-2.4,2.6-3.9
					c4.2-6.6,7.7-14,10.3-22.1C206.5,127.4,207.9,120,208.3,112.8 M163.8,43.3c-0.3-0.1-0.6-0.2-0.9-0.3c-2.4-0.7-4.9-1.3-7.4-1.8
					c-2.1-0.3-4.2-0.4-6.2-0.4c-11.5-0.4-22.8,2.5-33.9,8.7c-1.3,0.6-2.5,1.3-3.8,2.1c-1.7,1.1-3.4,2.2-4.9,3.3
					c-11.7,8.3-20.6,19-26.8,32c-0.6,1.1-1.1,2.2-1.4,3.5c-0.2,0.4-0.4,0.9-0.5,1.3c-1.2,2.3-2.2,4.8-2.9,7.4
					c-2.1,6.5-3.5,12.9-4,19.2c24.6-23.5,50.8-45.2,78.8-65.2C154.5,49.7,159.2,46.5,163.8,43.3z"/>
				<path class="st10" d="M203.9,83c-0.8-2.3-1.7-4.6-2.8-6.8c-3.1-6.4-6.8-12-11.2-16.6c-3.3-3.6-6.9-6.8-10.9-9.4
					c-2.2-1.5-4.6-2.9-7.2-4.2c-1.7-0.7-3.4-1.3-5.1-1.8c-0.9-0.3-1.9-0.6-3-0.9c-4.7,3.2-9.3,6.4-13.9,9.8
					c-28,20-54.3,41.8-78.9,65.3c-1.3,13.6,1,26.7,6.9,39.2c0.1,0.1,0.1,0.1,0.1,0.3c0.1,0.4,0.3,0.7,0.5,1c0.6,1.4,1.3,2.7,2,3.9
					c4.9,8.9,11.5,16,19.7,21.1c30.9-23.5,66-46.6,105.2-69.5c0.9-0.5,1.9-1.1,2.9-1.7C208.8,102.6,207.4,92.7,203.9,83z"/>
			</g>
		</g>
	</g>
	<g transform="matrix( 0.912567138671875, 0, 0, 0.912567138671875, -12.1,-17.95) ">
		<g>
			<g id="Duplicate_Items_Folder_Symbol_1_copy_0_Layer4_1_FILL_1_">
				<path class="st11" d="M238.6,95.3c-3-5.2-6.3-9.7-9.9-13.6c-4.5-5.4-9.5-9.7-14.9-13c-6.5-3.8-13.3-6.5-20.4-8.2l0.1,0.2
					c-4.8-1.5-9.9-2.4-15.5-2.8c-5.7-0.5-11.6-0.1-17.8,1.3c-6.1,1.4-11,2.9-14.6,4.6h0.1c-5.2,1.9-9.9,4.3-14.1,7.3
					c-4.8,2.8-9.2,6.1-13.3,10c-5.3,4.6-9.9,9.8-13.9,15.4c-4.4,5.4-8.2,11.2-11.4,17.5h0.2c-1.2,2-2.1,4.1-2.8,6.4v-0.2
					c-2,4.8-3.5,10-4.4,15.5c-0.9,5.6-1.5,11.3-1.8,17.3c-0.3,5.6-0.1,11.2,0.7,16.8c0.6,5.5,1.7,10.9,3.3,16.3
					c2.1,7.5,5.2,14.4,9.2,20.8c3.8,6.1,8.7,11.6,14.7,16.4c5.9,4.6,12.2,8.3,18.8,10.9v0.1c5.9,2.3,12.2,3.8,18.8,4.4
					c0.1,0,2.3,0.1,6.4,0.3c4,0.2,9.3-0.2,16-1.1c4.8-0.7,9.8-2.1,15-4.1c5.3-2,10.3-4.6,15.2-7.9c5-3.4,9.9-7.3,14.9-11.7
					c5.3-5.1,10-10.9,14.2-17.6h-0.2c4.2-6.2,7.7-12.9,10.3-20.1c1.7-4.6,3.2-9.3,4.6-13.9c2-7.9,2.9-15.7,2.9-23.3
					c-0.2-7.3-1.1-14.5-2.7-21.8C244.7,109.3,242.1,102,238.6,95.3 M209.6,74.9c4.3,2.8,8.3,6.3,11.9,10.3c4.8,5.1,9,11.1,12.4,18.2
					c1,2.4,2,4.9,3,7.4c6.3,18.1,6.3,37.1,0,56.8c-2.9,8.9-6.7,16.9-11.4,24.2c-1,1.6-1.9,3-2.8,4.3c-4.9,6.5-10.5,12.4-17,17.6
					h-0.1c-1,0.7-2,1.5-3,2.2c-1.9,1.3-3.8,2.5-5.6,3.8c-0.2,0-0.4,0.1-0.6,0.1c-3.7,2.2-7.4,4.2-11.3,5.9c-1.8,0.6-3.6,1.3-5.4,2.1
					c-6.3,2.1-12.7,3.3-19.2,3.5c-6.6,0.4-13.4-0.3-20.3-2.1c-17.4-5.2-30.4-15.5-38.9-31c-0.8-1.4-1.5-2.8-2-4.3
					c-0.2-0.3-0.4-0.7-0.5-1.1c-0.1-0.1-0.2-0.2-0.3-0.3c-9.4-20-10.4-41.4-3-64c0.8-2.9,1.9-5.7,3.2-8.2c0.1-0.5,0.3-1,0.5-1.5
					c0.5-1.4,1-2.6,1.5-3.8c6.8-14.3,16.6-26,29.5-35c1.8-1.3,3.6-2.5,5.6-3.7c1.4-0.9,2.7-1.7,3.9-2.4c14.4-8,29.2-11.1,44.2-9.1
					c2.7,0.5,5.4,1.2,8.1,1.9c1.6,0.5,3,1,4.3,1.3c1.9,0.6,3.8,1.3,5.6,2.1C204.6,71.6,207.2,73.2,209.6,74.9z"/>
			</g>
		</g>
	</g>
	<g transform="matrix( 1, 0, 0, 1, 0,0) ">
		<g>
			<g id="Duplicate_Items_Folder_Symbol_1_copy_0_Layer4_2_FILL_1_">
				<path class="st2" d="M11.5,228.7l243.1-13.9L264,20.2c-78.5-1.9-154.6,5.3-228.4,21.4C23.8,99.2,15.8,161.6,11.5,228.7
					 M48.8,49.3c7.7-1.7,22-4.5,42.9-8.5c19.5-4.7,72.8-7.9,159.9-9.7l-8.7,172.2c-81.4,3.2-154.9,7.8-220.6,13.8
					C32.2,107,41.1,51,48.8,49.3z"/>
			</g>
		</g>
	</g>
	<g transform="matrix( 1, 0, 0, 1, 0,0) ">
		<g>
			<g id="Duplicate_Items_Folder_Symbol_1_copy_0_Layer3_0_FILL_1_">
				<path class="st11" d="M123.1,75.4c-0.5,0.1-0.8,0.3-1,0.7c-0.3,0.2-0.5,0.6-0.5,1c-1.5,11.5-2.9,21.5-4.3,30.2
					c-0.3,2.1-0.7,3.8-1,5.3c-5.9-17.3-9.6-28.7-11-34.4c-0.1-0.5-0.4-0.8-0.8-1c-0.3-0.2-0.7-0.3-1.2-0.3l-17.6,2.2
					c-1.2,0-2.1,0.4-2.7,1.3c-0.5,0.6-0.8,1.2-0.8,2l-5.8,77.1c0,0.3,0.2,0.7,0.5,1.1c0.3,0.3,0.7,0.4,1.2,0.6
					c3.3,0.4,5.9,0.7,8.1,0.8l8,0.5c0.2,0,0.5,0,0.7,0c0.1-0.1,0.3-0.3,0.6-0.5c0.6-0.4,0.8-1.1,0.8-1.9v-0.2l2.8-34.3
					c4.5,10,9.9,22,16.2,36.1c0.1,0.2,0.3,0.5,0.6,0.7c0.2,0.2,0.5,0.3,0.9,0.3l16.8,1.2c0.5,0,1.3-0.2,2.1-0.6l0.1-0.2
					c0.9-0.5,1.3-1.2,1.3-2.1v-0.2l9.7-84.4v-0.2c0-0.4-0.1-0.9-0.3-1.5c-0.1-0.1-0.2-0.2-0.2-0.3c-0.4-0.7-0.8-1.1-1.3-1.3
					c-0.5-0.2-1.2-0.3-1.9-0.3h-0.2L123.1,75.4 M203.8,78.5c-2.5-2.4-5.3-4.1-8.2-5.3c-3-1.3-6.3-2-9.8-2.3c-4.5-0.1-9,0.9-13.5,3.1
					c-4.4,2.2-8.4,5.4-12.1,9.7c-3.6,4.2-6.8,9.1-9.5,14.9c-2.5,5.8-4.1,12.3-4.8,19.4c-0.8,7.2-0.6,13.6,0.6,19.1l0.2,0.1
					c1.3,5.6,3.4,10.3,6.3,14.1c2.8,3.8,6.1,6.7,9.7,8.7h0.1c3.8,2,7.7,2.9,11.8,2.9h0.2c3.5-0.1,7.1-1,10.8-2.8s7.2-4.3,10.5-7.7
					c3.4-3.5,6.5-7.9,9.4-13.1c0.2-0.3,0.3-0.6,0.1-0.9c-0.1-0.4-0.3-0.8-0.5-1c-2.3-2.1-4.4-3.8-6.2-5.3c-2-1.5-3.6-2.7-4.8-3.5
					l-1.9-1.3c-0.3-0.2-0.6-0.3-0.8-0.3c-0.3,0-0.6,0-0.8,0.1c-0.4,0.1-0.6,0.3-0.7,0.7c-2.1,3.2-4.4,5.6-7.1,7.3
					c-2.6,1.5-5.3,2.4-8,2.5c-1.7,0-3.4-0.6-5.1-1.8c-1.8-1.3-3.1-3.2-3.9-5.8c-1.1-2.7-1.4-6-1-9.8c0.4-4,1.5-7.7,3.3-11
					c1.7-3.2,3.8-5.7,6.2-7.7c2.5-1.8,5.2-2.8,7.9-2.8c1.6,0,3.3,0.4,4.9,1.1c1.5,0.7,3,1.7,4.4,3.2c1.3,1.3,2.5,2.8,3.6,4.6
					c0.1,0.2,0.4,0.4,0.8,0.6c0.2,0.1,0.6,0.1,1,0c0.3-0.1,0.6-0.3,0.9-0.6c1.4-1.8,2.9-3.9,4.4-6.1H202c1.5-2.3,3-4.4,4.4-6.3V95
					c1.1-2,2-3.5,2.9-4.8l0.2-0.2c0.5-1.1,0.8-1.8,0.8-1.8c0.3-0.2,0.5-0.5,0.5-0.9s-0.1-0.8-0.1-1
					C208.6,83.3,206.3,80.6,203.8,78.5z"/>
			</g>
		</g>
	</g>
	<g transform="matrix( 1, 0, 0, 1, 0,0) ">
		<g>
			<g id="Duplicate_Items_Folder_Symbol_1_copy_0_Layer3_0_MEMBER_0_FILL_1_">
				<path class="st11" d="M114,71.8c-0.5,0.4-0.8,1-0.8,1.6c-1.5,11.5-3,21.5-4.3,30.2l0,0c-0.1,0.4-0.2,0.9-0.3,1.3
					c-5.1-15-8.3-25.2-9.6-30.5c-0.2-0.7-0.6-1.2-1.3-1.6h-0.1c-0.5-0.3-1.1-0.5-1.6-0.5c-0.1,0-0.1,0-0.2,0l-17.6,2.1
					c-1.5,0-2.6,0.6-3.3,1.7c-0.7,0.7-1.1,1.6-1.1,2.7v0.1L68,156l0,0c0,0.5,0.2,1.1,0.6,1.8c0.1,0.1,0.2,0.3,0.3,0.4
					c0.5,0.3,1,0.5,1.6,0.6h0.1c3.3,0.4,6,0.7,8.1,0.8l8.1,0.5l0,0c0.2,0,0.4,0,0.7,0s0.5-0.1,0.7-0.2c0.1-0.1,0.4-0.3,0.7-0.6
					c0.8-0.6,1.2-1.6,1.2-2.8v-0.2l2.5-29.9c4.1,9.2,8.9,19.9,14.5,32.3v0.1c0.2,0.2,0.4,0.5,0.7,0.9l0.1,0.1
					c0.4,0.4,0.9,0.5,1.6,0.6l16.8,1.1c0.7,0,1.5-0.2,2.5-0.5c0.2-0.1,0.4-0.3,0.6-0.4c1.1-0.8,1.7-1.8,1.6-2.9l9.7-84.5
					c0-0.1,0-0.1,0-0.2v-0.2c0-0.6-0.2-1.2-0.5-1.8c0-0.1,0-0.1,0-0.2c0-0.2-0.1-0.3-0.2-0.4c-0.6-0.9-1.2-1.4-1.7-1.7h-0.1
					c-0.7-0.3-1.5-0.4-2.4-0.4h-0.1c0,0-0.1,0-0.2,0l-20.1,2.8h-0.1C114.8,71.1,114.3,71.4,114,71.8 M117.5,75.1l18.5-2.7l-9.5,84.7
					l-15.6-1.2c-7.6-16.7-13.8-30.6-18.7-41.6c-0.1-0.3-0.3-0.6-0.7-0.7c-0.3-0.1-0.6-0.1-1-0.1c-0.6,0.1-0.9,0.3-1.2,0.5
					c-0.3,0.2-0.5,0.6-0.4,1l-3.3,40.7l-6.5-0.4c-1.6-0.1-3.6-0.3-6.1-0.5l5.4-75.6v-0.3h0.1l16.1-2c2,6.8,6.2,19.5,12.8,38
					c0,0.1,0,0.2,0,0.3l0.5,1c0.1,0.5,0.3,0.9,0.6,1c0.9,0.6,1.7,0.4,2.5-0.6c0-0.1,0.2-0.4,0.5-1c0-0.3,0.1-1,0.3-2
					c0.3-1.8,0.8-4.9,1.5-9.3C114.7,95.8,116.1,86.1,117.5,75.1 M204.6,84.1c0-0.7-0.1-1.3-0.4-1.5v-0.1c-2.2-3.2-4.6-6-7.1-8.2H197
					c-2.6-2.5-5.4-4.4-8.5-5.5c-3-1.4-6.4-2.2-10.2-2.3c-4.6-0.1-9.3,0.9-13.9,3.2c-4.5,2.3-8.7,5.6-12.5,9.9
					c-3.7,4.2-6.9,9.3-9.7,15.2l0,0c-2.6,5.9-4.2,12.4-4.9,19.7c-0.8,7.4-0.5,13.8,0.7,19.4c0,0.1,0,0.2,0.1,0.3l0.2,0.1
					c1.3,5.6,3.4,10.4,6.3,14.3c3,4,6.3,6.9,10.1,8.9c0.1,0.1,0.3,0.1,0.4,0.1c3.9,2,7.9,2.9,12.1,2.9h0.2c3.7-0.1,7.4-1.1,11.3-2.9
					c3.8-1.8,7.4-4.5,10.9-7.9c3.5-3.6,6.6-8,9.5-13.4c0,0,0-0.1,0.1-0.1c0.3-0.6,0.4-1.2,0.2-1.8c-0.2-0.7-0.4-1.2-0.8-1.5h-0.1
					c-2.3-2.1-4.4-3.9-6.3-5.3c-2-1.5-3.6-2.7-4.9-3.5l-1.9-1.3c-0.6-0.4-1.1-0.6-1.4-0.6c-0.6,0-1,0.1-1.3,0.4
					c-0.5,0.2-0.9,0.5-1.1,1c-2,3.1-4.3,5.4-6.8,7.1c-2.4,1.4-4.9,2.2-7.5,2.3c-1.5,0-2.9-0.6-4.3-1.6v0.1c-1.6-1.2-2.8-3-3.6-5.3
					c-1-2.6-1.3-5.7-0.9-9.3c0.4-3.9,1.5-7.5,3.2-10.7c1.6-3,3.6-5.5,5.9-7.4h-0.1c2.3-1.7,4.7-2.6,7.2-2.6c1.5,0,3,0.3,4.5,1.1l0,0
					c1.4,0.6,2.7,1.5,4,2.8c1.3,1.2,2.4,2.7,3.5,4.4c0.1,0.3,0.6,0.7,1.3,1.2l0,0c0.3,0.2,0.9,0.3,1.7,0.1c0.1,0,0.1-0.1,0.2-0.1
					c0.5-0.2,0.9-0.6,1.2-1c1.5-1.9,2.9-3.9,4.4-6.1c0.1-0.2,0.2-0.4,0.2-0.5c1.4-2.1,2.8-4,4.1-5.7c0.1-0.2,0.2-0.3,0.2-0.5
					c1-1.8,1.9-3.3,2.8-4.4c0-0.1,0.1-0.1,0.1-0.2l0.2-0.2c0.3-0.7,0.6-1.3,0.8-1.7C204.4,85.3,204.6,84.7,204.6,84.1 M194.1,77.3
					l0.2,0.2c2,1.8,3.8,4,5.6,6.6c-0.2,0.3-0.4,0.7-0.6,1.3c-0.9,1.2-1.9,2.8-2.9,4.8c-1.3,2-2.8,4.1-4.3,6.3
					c-1,1.4-1.9,2.8-2.8,4.1c-0.9-1.1-1.8-2.1-2.8-3.1c-1.6-1.6-3.4-2.9-5.4-3.8h0.1c-2.2-1-4.3-1.4-6.4-1.4c-3.4,0-6.7,1.1-9.9,3.4
					c-2.8,2.2-5.2,5.1-7.2,8.7v0.2c-2,3.6-3.2,7.6-3.6,12.1c-0.5,4.5-0.1,8.3,1.2,11.3c1.2,3.3,2.9,5.7,5,7.2
					c2.3,1.6,4.7,2.4,7.1,2.4h0.2c3.3-0.1,6.4-1.1,9.5-2.9c2.6-1.6,5-4,7.2-7.1l0.7,0.5c1.1,0.7,2.6,1.8,4.6,3.3
					c1.5,1.2,3.2,2.6,5,4.1c-2.5,4.5-5.2,8.3-8.2,11.4c-3.1,3.1-6.2,5.5-9.5,7.1c-3.3,1.5-6.5,2.3-9.7,2.4c-3.6,0-7-0.9-10.3-2.6
					c-3.2-1.7-6.1-4.3-8.7-7.7c-2.6-3.6-4.6-7.9-5.8-12.9c-1.2-5.3-1.4-11.3-0.6-18c0.7-6.7,2.1-12.8,4.4-18.4
					c2.5-5.6,5.6-10.3,9.1-14.1c3.4-3.9,7.1-6.9,11.1-8.8c4-2,7.9-2.9,11.9-2.8c3.3,0.2,6.2,0.9,8.7,1.9l0.2,0.2
					C189.7,73.9,192.1,75.4,194.1,77.3z"/>
				<path class="st8" d="M136.1,72.4l-18.6,2.7c-1.4,11-2.8,20.7-4.1,29.2c-0.7,4.4-1.2,7.5-1.5,9.3c-0.2,1-0.3,1.7-0.3,2
					c-0.3,0.6-0.5,0.9-0.5,1c-0.8,1-1.6,1.2-2.5,0.6c-0.3-0.1-0.5-0.5-0.6-1l-0.5-1c0-0.1,0-0.2,0-0.3c-6.6-18.5-10.8-31.2-12.8-38
					l-16.1,2h-0.1v0.3l-5.4,75.6c2.5,0.2,4.5,0.4,6.1,0.5l6.5,0.4L89,115c0-0.4,0.2-0.8,0.4-1c0.2-0.2,0.6-0.4,1.2-0.5
					c0.3,0,0.7,0,1,0.1c0.4,0.1,0.6,0.4,0.7,0.7c4.9,11,11.1,24.9,18.7,41.6l15.6,1.2L136.1,72.4 M194.3,77.5l-0.2-0.2
					c-2.1-2-4.4-3.4-7-4.4l-0.2-0.2c-2.5-1.1-5.4-1.7-8.7-1.9c-3.9-0.1-7.9,0.8-11.9,2.8s-7.7,4.9-11.1,8.8
					c-3.5,3.8-6.5,8.5-9.1,14.1c-2.3,5.6-3.7,11.7-4.4,18.4c-0.8,6.8-0.6,12.8,0.6,18c1.2,5,3.2,9.3,5.8,12.9c2.6,3.4,5.5,6,8.7,7.7
					c3.3,1.7,6.7,2.6,10.3,2.6c3.2-0.1,6.4-0.9,9.7-2.4c3.3-1.6,6.4-3.9,9.5-7.1c3-3.1,5.7-6.9,8.2-11.4c-1.8-1.5-3.5-2.9-5-4.1
					c-2-1.5-3.5-2.6-4.6-3.3l-0.7-0.5c-2.2,3.1-4.6,5.4-7.2,7.1c-3.1,1.9-6.2,2.8-9.5,2.9h-0.2c-2.4,0-4.7-0.8-7.1-2.4
					c-2.2-1.5-3.8-3.9-5-7.2c-1.2-3.1-1.6-6.8-1.2-11.3c0.4-4.5,1.6-8.5,3.6-12.1v-0.2c2-3.6,4.4-6.5,7.2-8.7
					c3.2-2.3,6.5-3.4,9.9-3.4c2.1,0,4.2,0.5,6.4,1.4H181c2,0.9,3.8,2.2,5.4,3.8c1,1,1.9,2,2.8,3.1c0.9-1.3,1.8-2.7,2.8-4.1
					c1.5-2.2,2.9-4.3,4.3-6.3c1.1-2,2.1-3.6,2.9-4.8c0.2-0.6,0.4-1,0.6-1.3C198.1,81.4,196.3,79.2,194.3,77.5z"/>
			</g>
		</g>
	</g>
</g>
</svg>
