<?xml version="1.0" encoding="utf-8"?>
<!-- Generator: Adobe Illustrator 23.1.0, SVG Export Plug-In . SVG Version: 6.00 Build 0)  -->
<svg version="1.1" id="Layer_1" xmlns="http://www.w3.org/2000/svg" xmlns:xlink="http://www.w3.org/1999/xlink" x="0px" y="0px"
	 viewBox="0 0 292.8 317" style="enable-background:new 0 0 292.8 317;" xml:space="preserve">
<style type="text/css">
	.st0{fill:#FFC400;}
	.st1{fill:#F5A100;}
	.st2{fill:#FFD200;}
	.st3{fill:#FFB600;}
	.st4{fill:#FFEE00;}
	.st5{fill:#E78B00;}
	.st6{fill:#AF6A00;}
	.st7{fill:#955A00;}
	.st8{fill:#825E10;}
	.st9{fill:#E98D00;}
</style>
<g transform="matrix( 1.21710205078125, 0, 0, 1.21710205078125, -1.25,-466.15) ">
	<g transform="matrix( 1, 0, 0, 1, 0,0) ">
		<g>
			<g id="Symbol_1_copy_0_Layer6_0_FILL">
				<path class="st0" d="M110.6,392.9c-10.5,0.7-20.4,3.3-29.8,8c-7.8,4.1-15.1,9.1-22,15.1c-7.2,5.7-13.7,12.2-19.4,19.4v-0.2
					c-5.7,7.4-10.7,15.4-14.8,24c-4.4,8.9-7.8,18-10.2,27.4c-2.6,9.7-4.2,19.6-4.8,29.5c-0.5,9.2-0.1,18.5,1.4,27.9
					c1.5,9,4,17.8,7.6,26.5v0.1c3.4,8.5,7.7,16.5,13.1,24c5.8,8.2,13,15.2,21.6,21c8.7,5.8,18.1,9.9,28,12.3l-0.2-0.2
					c9.5,1.6,19.1,3.2,28.6,4.5c9.7,1.8,19.2,1.8,28.3,0c10.4-2.1,20.2-5.5,29.5-10.2c4.6-2.4,9.1-5,13.4-7.9h-0.1
					c8.5-6.1,16.2-13.3,22.9-21.6c5.3-6.7,9.9-13.9,13.8-21.5c4.7-9.4,8.3-19.2,11-29.5c1.8-7.6,3.1-15.1,3.7-22.7
					c0,0.2,0,0.4,0,0.7c0-0.4,0.1-0.8,0.1-1.3c0-1.4,0.1-2.8,0.2-4.2c0,0.1-0.1,0.2-0.2,0.2c0.3-11.9,0.1-21.5-0.6-28.9
					c-1-9-3.1-17.5-6.3-25.6c-3.5-8.2-7.7-16.1-12.8-23.6c-5.7-8.8-13.1-15.9-22.1-21.4c-8.6-5.3-17.4-10.2-26.4-14.6
					c-8.9-4.1-18-6.4-27.4-6.9h-0.1C127.8,392,119.2,391.9,110.6,392.9 M166.9,408.5c1.1,0.4,2,0.9,2.9,1.5
					c16,7.7,28.7,18,37.9,30.9c2.2,3.1,4.2,6.4,6,9.9c0.9,1.7,1.6,3.4,2.3,5.1v-0.3c7.4,16.2,10.9,33.3,10.7,51.2l-0.5,9.1
					c-1,7.2-2.4,14.7-4.2,22.5c-2.2,8.4-4.3,16.6-6.3,24.6c-15.2,29.2-27.5,46.6-36.8,52.4c-1.9,1.1-3.6,2-5.1,2.9
					c-1.1,0.6-2.1,1.2-3.1,1.8c-0.5,0.2-1,0.3-1.4,0.4c-1,0.3-2,0.5-2.9,0.5h-0.3c-0.2-0.1-0.4-0.1-0.6-0.1
					c-0.3,2.8-10.8,6.5-31.5,11.2c-10.9,0.1-24.6-1.8-41.2-5.6c-6.4-0.6-7.8-1.2-4.2-1.6c25.6-5.2,43-8.5,52.2-10l-0.1-0.4
					c0.5-0.3,1.1-0.6,1.8-0.9c1.8-1.1,3.6-2.2,5.4-3.4c1.3-1,2.5-1.9,3.7-2.8h0.2c15.6-11.3,27.8-25.5,36.6-42.5
					c1.9-3.7,3.8-7.5,5.5-11.3c2.7-6.6,5-13.6,6.8-20.9c2.3-8.9,3.8-17.6,4.6-26.1l0.1,0.1c0.1-2.6,0.2-5.4,0.4-8.5
					c0.4-19-3.3-37.1-11.2-54.4c-2.1-4.6-4.4-9-7.2-13C181.5,421.8,174.7,414.3,166.9,408.5z"/>
				<path class="st1" d="M151.5,607.5c-1.2,0.9-2.4,1.8-3.7,2.8c-1.7,1.2-3.5,2.3-5.4,3.4c-0.7,0.3-1.3,0.6-1.8,0.9l0.1,0.4
					c-9.2,1.5-26.6,4.8-52.2,10c-3.6,0.4-2.2,1,4.2,1.6c16.5,3.8,30.3,5.7,41.2,5.6c20.6-4.7,31.1-8.4,31.5-11.2
					c0.2,0,0.4,0,0.6,0.1h0.3c0.9,0,1.9-0.2,2.9-0.5c0.4-0.1,0.9-0.2,1.4-0.4c1-0.6,2-1.2,3.1-1.8c1.4-0.9,3.1-1.8,5.1-2.9
					c9.3-5.7,21.6-23.2,36.8-52.4c-8.1-3.8-15.4-6.9-21.9-9.4c-1.7,3.9-3.6,7.6-5.5,11.3c-8.9,17-21.1,31.1-36.6,42.5H151.5z"/>
				<path class="st2" d="M226.7,506.8l-21.1-8.5c-0.1,3-0.3,5.9-0.4,8.5l-0.1-0.1c-0.8,8.5-2.3,17.2-4.6,26.1
					c-1.8,7.3-4.1,14.3-6.8,20.9c6.5,2.5,13.8,5.6,21.9,9.4c2-8,4.1-16.2,6.3-24.6c1.8-7.8,3.2-15.3,4.2-22.5L226.7,506.8
					 M169.8,409.9c-0.9-0.5-1.8-1-2.9-1.5c7.8,5.8,14.6,13.3,20.4,22.5l20.4,9.9C198.4,427.9,185.8,417.6,169.8,409.9z"/>
				<path class="st3" d="M187.3,431c2.7,4,5.1,8.3,7.2,13c7.9,17.3,11.6,35.4,11.2,54.4l21.1,8.5c0.2-17.9-3.3-35-10.7-51.2v0.3
					c-0.6-1.7-1.4-3.4-2.3-5.1c-1.8-3.5-3.8-6.8-6-9.9L187.3,431z"/>
			</g>
		</g>
	</g>
	<g transform="matrix( 3.241241455078125, 0, 0, 3.241241455078125, 0.9,-1.95) ">
		<g>
			<g id="Symbol_1_copy_0_Layer6_1_FILL">
				<path class="st2" d="M49.8,192.2c0.9,0.3,1.5,0.5,2,0.5c1,0,2.5-0.9,4.6-2.6c0.2-0.2,0.4-0.3,0.6-0.5c-1.1-0.4-1.9-0.7-2.3-0.9
					c-3.6-1.5-5.6-2.3-6-2.4c-0.3-0.1-0.4-0.2-0.5-0.4c-0.3,0.2-0.6,0.5-1.1,0.8c-2.4,1.7-3.4,2.6-3.1,2.8c0.3,0.2,1.8,0.9,4.5,2.2
					L49.8,192.2z"/>
			</g>
		</g>
	</g>
	<g transform="matrix( 1, 0, 0, 1, 0,0) ">
		<g>
			<g id="Symbol_1_copy_0_Layer5_0_FILL">
				<path class="st4" d="M175.3,422.7c-1-1.4-2.1-2.7-3.3-3.9c-12.6-13.5-28-20.6-46.1-21.4c-18.5-1.8-36.8,3.3-55,15.3
					c-9.8,6.5-18.4,14.1-25.7,22.8c-9.7,11.4-17.4,24.9-23,40.5c-0.8,2-1.5,4-2.1,6.2c-0.4,1.3-0.8,2.6-1.1,4
					c5.7-1.7,11.5-3.4,17.4-5c-0.2,0.4-0.4,0.9-0.7,1.5c-0.5,1.6-1.1,3.3-1.7,4.8c-7.4,24-7,46.6,1.3,67.9c0,0.1,0.1,0.3,0.2,0.3
					c0,0.3,0,0.5,0,0.7c0.6,1.5,1.3,3,2,4.5c8.4,18,21.6,29.9,39.5,35.7c13.6,3.9,27.3,3.3,40.9-1.8c3.8-1.6,7.8-3.6,11.8-6
					c1.2-0.8,2.4-1.6,3.6-2.4c0.3-0.1,0.6-0.2,0.6-0.3c1.2-0.8,2.4-1.5,3.8-2.3c0.9-0.7,1.7-1.3,2.6-1.9c1.7-1.4,3.5-2.8,5.2-4.3
					c1.3-1.2,2.6-2.4,3.8-3.6c5.2-5.2,9.7-10.8,13.6-17c0.5-1,1.1-1.9,1.6-2.9c4.2-7.2,7.6-15.2,10.3-23.8
					c6.6-21.1,7.1-41.1,1.6-60.1c-0.9-3-1.9-6-3.1-9c-2.9-7.3-6.5-13.7-10.7-19.1c0.1,0,0.2,0,0.3,0c1.6-0.5,3.3-1.1,4.9-1.7
					c5.5-1.8,11-3.7,16.5-5.5c-1.9-3.2-4.1-6.3-6.3-9l2.9,1.1c-1.5-1-2.9-1.9-4.2-2.8c-0.4-0.5-0.9-1-1.3-1.5V422.7 M134.8,426
					c1.7,0.6,3.5,1.4,5.2,2.3c2.7,1.4,5.2,3,7.4,4.7c4.1,2.9,7.8,6.4,11.2,10.3c4.4,5.4,8.1,11.8,11.1,19.1c1,2.6,1.9,5.2,2.8,7.8
					c5.6,18.7,5.2,38.3-1.3,59c-2.9,9.2-6.7,17.6-11.2,25.1c-1,1.5-1.9,3-2.9,4.4c-4.8,6.8-10.3,12.9-16.6,18.3h-0.2
					c-1,0.8-1.9,1.5-2.8,2.2c-1.8,1.4-3.6,2.8-5.3,4c-0.2,0-0.4,0-0.5,0.1c-3.7,2.4-7.3,4.4-11,6.2c-1.7,0.8-3.5,1.5-5.2,2.1
					c-6.1,2.2-12.2,3.4-18.3,3.8c-6.4,0.3-12.8-0.5-19.2-2.3c-16.5-5.3-28.7-16-36.5-32c-0.8-1.5-1.4-3-1.9-4.5
					c-0.2-0.3-0.4-0.7-0.5-1c0-0.3-0.1-0.5-0.2-0.7c-8.5-20.7-9-42.8-1.5-66.3c0.9-3,1.9-5.9,3.1-8.6c0.1-0.4,0.3-0.9,0.5-1.3
					c0.5-1.4,1.1-2.8,1.8-4c6.7-14.8,16.2-26.9,28.6-36.3c1.7-1.4,3.5-2.7,5.3-3.9c1.3-0.9,2.6-1.7,3.9-2.4
					c13.8-8.3,27.9-11.4,42.2-9.3c2.6,0.4,5.2,1.1,7.8,2C132.2,425.1,133.5,425.5,134.8,426z"/>
				<path class="st5" d="M140,428.2c-2.5-0.9-5-1.5-7.4-1.8c-1.7-0.3-3.5-0.5-5.2-0.5c-9.6,0.4-19.1,3.5-28.5,9.2
					c-1.3,0.8-2.5,1.5-3.8,2.3c-1.8,1.2-3.6,2.4-5.2,3.7c-11.9,9.1-21,20.7-27.4,34.8c-0.7,1.2-1.3,2.5-1.8,3.9
					c-0.2,0.4-0.4,0.8-0.5,1.1c-1.1,2.6-2,5.3-2.9,8.3c-7.2,22.5-6.8,43.6,1.5,63.6c0.1,0.1,0.2,0.3,0.2,0.6c0,0.2,0.1,0.5,0.3,0.8
					c0.5,1.5,1.2,3,2,4.4c7.4,15.5,19.1,25.7,34.8,30.8c4,1.1,7.9,1.8,11.8,2.1c0.1,0,0.2,0,0.3,0c4.2-0.3,8.4-1,12.7-2.1
					c3.7-1.7,7.3-3.8,11-6.2c0.1-0.1,0.3-0.1,0.5-0.1c1.7-1.3,3.5-2.7,5.3-4c0.9-0.7,1.8-1.4,2.8-2.2h0.2
					c6.3-5.4,11.8-11.5,16.6-18.3c1-1.4,1.9-2.9,2.9-4.4c4.5-7.6,8.3-15.9,11.2-25.1c6.5-20.6,6.9-40.3,1.3-59
					c-0.8-2.6-1.8-5.2-2.8-7.8c-3-7.3-6.7-13.7-11.1-19.1c-3.4-4-7.1-7.4-11.2-10.3C145.2,431.2,142.7,429.6,140,428.2z"/>
				<path class="st6" d="M132.5,426.4c2.5,0.3,4.9,0.9,7.4,1.8c-1.7-0.9-3.5-1.6-5.2-2.3c-1.3-0.4-2.6-0.9-3.9-1.3
					c-2.6-0.9-5.2-1.5-7.8-2c-14.3-2.2-28.3,0.9-42.2,9.3c-1.3,0.7-2.6,1.5-3.9,2.4c-1.8,1.2-3.6,2.5-5.3,3.9
					c-12.4,9.4-22,21.5-28.6,36.3c-0.7,1.3-1.3,2.6-1.8,4c-0.2,0.4-0.4,0.9-0.5,1.3c-1.2,2.7-2.2,5.6-3.1,8.6
					c-7.6,23.4-7.1,45.5,1.5,66.3c0.1,0.1,0.2,0.4,0.2,0.7c0.1,0.3,0.3,0.7,0.5,1c0.5,1.5,1.2,3,1.9,4.5c7.8,16.1,19.9,26.8,36.5,32
					c6.4,1.8,12.8,2.6,19.2,2.3c6.1-0.3,12.2-1.6,18.3-3.8c1.7-0.6,3.5-1.3,5.2-2.1c-4.2,1.1-8.4,1.8-12.7,2.1c-0.1,0-0.3,0-0.3,0
					c-3.9-0.3-7.8-1-11.8-2.1c-15.8-5.1-27.4-15.3-34.8-30.8c-0.8-1.4-1.4-2.9-2-4.4c-0.2-0.3-0.3-0.6-0.3-0.8c0-0.3,0-0.5-0.2-0.6
					c-8.2-19.9-8.7-41.1-1.5-63.6c0.9-2.9,1.8-5.7,2.9-8.3c0.1-0.3,0.3-0.7,0.5-1.1c0.5-1.4,1.1-2.7,1.8-3.9
					c6.4-14.1,15.5-25.8,27.4-34.8c1.6-1.3,3.4-2.5,5.2-3.7c1.2-0.8,2.5-1.5,3.8-2.3c9.4-5.7,18.9-8.8,28.5-9.2
					C129.1,426,130.8,426.1,132.5,426.4z"/>
				<path class="st0" d="M185.2,436.5c-0.3-0.5-0.6-1-1-1.5c-5.5,1.8-11,3.7-16.5,5.5c-1.6,0.6-3.2,1.1-4.9,1.7c-0.1,0-0.2,0-0.3,0
					c4.2,5.4,7.8,11.8,10.7,19.1c1.2,2.9,2.2,5.9,3.1,9c5.5,19,5,39-1.6,60.1c-2.6,8.6-6,16.6-10.3,23.8c-0.5,1-1.1,2-1.6,2.9
					c-3.9,6.2-8.4,11.8-13.6,17c-1.2,1.2-2.4,2.4-3.8,3.6c-1.7,1.4-3.5,2.8-5.2,4.3c-0.8,0.6-1.7,1.3-2.6,1.9
					c-1.3,0.7-2.6,1.5-3.8,2.3c-0.1,0.1-0.3,0.2-0.6,0.3c-1.2,0.9-2.4,1.7-3.6,2.4c-4.1,2.4-8.1,4.4-11.8,6
					c-13.6,5.1-27.2,5.7-40.9,1.8C59.2,590.9,46,579,37.6,561c-0.7-1.5-1.3-3-2-4.5c0-0.1,0-0.3,0-0.7c-0.1-0.1-0.2-0.2-0.2-0.3
					c-8.3-21.3-8.7-43.9-1.3-67.9c0.6-1.6,1.1-3.2,1.7-4.8c0.2-0.5,0.4-1,0.7-1.5c-5.8,1.6-11.6,3.3-17.4,5
					c-6.4,22.4-7.1,43.8-2.3,64.3c0.9,3.5,1.9,7,3,10.6c0.8,2.2,1.6,4.4,2.5,6.6v0.2c5.2,12.9,12,23.4,20.5,31.6
					c8.3,8,18.3,13.8,30,17.4c19.8,5.9,39.4,4,59-5.9c2.2-1.3,4.5-2.7,7.1-4.2c1.2-0.8,2.4-1.5,3.6-2.3h0.1
					c9.9-6.7,18.7-14.5,26.3-23.5c4-4.9,7.7-10.1,11.1-15.8c0.4-0.8,0.9-1.5,1.3-2.3c1.7-2.9,3.3-6,4.9-9.1
					c2.7-5.9,5.1-12.2,7.3-18.8c3.1-10,5.1-19.9,6-29.5c1.2-12.1,0.6-23.9-1.8-35.5c-1.5-7-3.7-14-6.4-20.8
					C189.7,444.8,187.7,440.5,185.2,436.5z"/>
			</g>
		</g>
	</g>
	<g transform="matrix( 3.241241455078125, 0, 0, 3.241241455078125, -136.2,-129.3) ">
		<g>
			<g id="Symbol_1_copy_0_Layer5_1_FILL">
				<path class="st2" d="M66.3,170.9c0.6-0.4,0.9-0.8,1.2-1.1c0.4-0.6,0.4-1.1-0.1-1.5c-0.2-0.3-0.6-0.4-1-0.4
					c-0.1,0-0.5,0.1-1.1,0.3c-1.3,0.4-2.1,0.8-2.6,1.1c-0.6,0.4-1,0.8-1.3,1.4c-0.6,0.8-0.6,1.4-0.1,1.9c0.1,0.1,0.3,0.2,0.7,0.4
					c0.6,0.2,1,0.3,1.3,0.1c0.2,0,0.4-0.1,0.7-0.3L66.3,170.9z"/>
			</g>
		</g>
	</g>
	<g transform="matrix( 1, 0, 0, 1, 0,0) ">
		<g>
			<g id="Symbol_1_copy_0_Layer4_0_FILL">
				<path class="st7" d="M125.2,473.4l-4.5-4.5l-10.1-5.7l-10.8,11.2l-3.4,49.9l-12.7-52l-12.4-4.7l-7.7,1.1l-2.6,7.8l-5.2,73.5
					l-1.4,0.9l7.6,5.3l13.3,0.2l2.3-42.8l9.4,35.6l-2.1,1l7.9,5l28.9,1.2l-1-0.4l11.7-0.3l2.6-21.3c4.5,0.7,9,0.1,13.4-1.8
					c1.2-0.6,2.5-1.2,4.1-1.8c1.9-0.8,3.4-1.6,4.5-2.6c1.6-1.7,3.3-3.5,4.9-5.4c3.1-3.5,5.5-7.7,7.1-12.8c2.6-8.1,3.1-16.4,1.7-25
					c-0.6-2.6-1.6-5.3-2.9-7.9c-0.7-1.3-2.8-4.5-6.3-9.6c0.4,1.7-1,2-4.2,0.8c-4.3-1.7-8.7-2.4-13.2-2c-3.6,0.1-7.2,0.9-11,2.5
					c-1.7,0.9-3.5,1.8-5.2,2.8C126.7,472.4,125.9,472.9,125.2,473.4z"/>
			</g>
		</g>
	</g>
	<g transform="matrix( 3.241241455078125, 0, 0, 3.241241455078125, 0.9,-1.95) ">
		<g>
			<g id="Symbol_1_copy_0_Layer4_1_FILL">
				<path class="st7" d="M14.6,151.5l-0.5,2.3c-0.7,4.2-0.4,8.3,0.7,12.5c0.4,1.3,0.8,2.4,1.3,3.3c0.8,1.3,1.7,1.9,2.6,1.9
					c0.8,0.1,1.4-0.2,1.9-0.8c0.4-0.6,0.6-1.3,0.4-2c-0.1-0.3-0.2-0.6-0.4-0.9c-0.1-0.2-0.3-0.4-0.6-0.8c-0.6-1-1-2.3-1.4-4.1
					c-0.4-1.9-0.6-3.4-0.5-4.8c0-0.7,0.1-1.8,0.3-3.3l0.5-3.3c0.2-1.4,0.4-2.2,0.5-2.6c0.1-0.3,0.3-0.7,0.5-1.2
					c0.2-0.5,0.3-0.9,0.2-1.3c0-0.4-0.2-0.8-0.6-1.1c-0.3-0.3-0.7-0.5-1.2-0.4c-0.9,0-1.7,0.7-2.4,1.9
					C15.4,147.9,15,149.5,14.6,151.5z"/>
			</g>
		</g>
	</g>
	<g transform="matrix( 3.241241455078125, 0, 0, 3.241241455078125, 0.9,-1.95) ">
		<g>
			<g id="Symbol_1_copy_0_Layer4_2_FILL">
				<path class="st7" d="M49.7,143.4c-0.4-0.3-1-0.5-1.7-0.7c-0.8-0.2-1.4-0.4-1.8-0.5c-0.5-0.2-0.8-0.3-1.1-0.3
					c-0.4-0.1-0.8-0.2-1-0.1c-0.4,0.1-0.8,0.3-1,0.6c-0.3,0.4-0.5,0.7-0.4,1.1c0.1,0.3,0.3,0.5,0.6,0.8c0.4,0.3,1.3,0.7,2.5,1.1
					c1.2,0.4,2,0.9,2.4,1.5c0.3,0.3,0.6,0.8,0.8,1.5c0.8,2.1,1.1,3.9,1,5.5c-0.2,2.2-0.9,3.9-2.3,5.1c-0.6,0.5-1.4,1-2.5,1.4
					l-1.8,0.8c-0.7,0.4-1.1,0.9-1.3,1.5c0,0,0,0.1-0.1,0.1c-0.5,0.4-0.9,0.8-1.3,1.4c-0.4,0.6-0.6,1.5-0.8,2.8l-0.3,1.5l-1.1,0.3
					c-0.5,0.2-0.8,0.4-1,0.7c-0.4,0.6-0.4,1.2,0.2,1.8c0.3,0.4,0.9,0.7,1.8,0.9c0.9,0.2,1.6,0.2,2.3,0.1c0.7-0.1,1.1-0.3,1.3-0.7
					c0.2-0.3,0.3-0.7,0.4-1.1c0-0.5,0-0.8,0-1.1c0-0.7,0.1-1.6,0.3-2.6c0-0.2,0-0.4,0.2-0.6c0.1-0.2,0.2-0.5,0.5-0.7
					c0.1-0.1,0.1-0.1,0.3-0.3c0.1,0,0.2,0,0.3-0.1c0.7-0.2,1.4-0.5,2.2-1c1.8-1,3.1-2,4-2.9c1.2-1.4,1.9-3.1,2.3-5
					c0.4-1.7,0.4-3.5,0.2-5.5c-0.1-0.7-0.2-1.3-0.3-1.8c-0.1-0.4-0.4-1.1-0.9-1.9C51.5,145.1,50.6,143.9,49.7,143.4z"/>
			</g>
		</g>
	</g>
	<g transform="matrix( 3.241241455078125, 0, 0, 3.241241455078125, 0.9,-1.95) ">
		<g>
			<g id="Symbol_1_copy_0_Layer3_0_FILL">
				<path class="st6" d="M16.1,145.5c-0.2,0.2-0.3,0.4-0.3,0.6l-1.6,23.9c0,0.1,0,0.2,0.1,0.4c0.1,0.1,0.2,0.1,0.4,0.1
					c0.9,0.1,1.7,0.2,2.3,0.3l2.3,0.2c0.1,0,0.1,0,0.2,0c0,0,0.1-0.1,0.1-0.2c0.2-0.1,0.3-0.3,0.3-0.6V170l0.8-10.6
					c1.3,3.1,2.8,6.8,4.6,11.2c0,0.1,0.1,0.1,0.1,0.2s0.1,0.1,0.3,0.1l4.7,0.4h0.1c0.2,0,0.4-0.1,0.6-0.2l0,0
					c0.3-0.2,0.4-0.4,0.4-0.7v0l2.7-26.1v-0.1c0-0.1,0-0.3,0-0.4c0,0,0-0.1,0-0.1c-0.1-0.2-0.3-0.3-0.4-0.4s-0.3-0.1-0.5-0.1h-0.1
					l-5.6,0.9c-0.1,0-0.2,0.1-0.3,0.2c-0.1,0.1-0.1,0.2-0.1,0.3c-0.4,3.6-0.8,6.7-1.2,9.3c-0.1,0.6-0.2,1.2-0.3,1.7
					c-1.7-5.3-2.8-8.9-3.2-10.7c0-0.1-0.1-0.2-0.2-0.3c-0.1-0.1-0.2-0.1-0.4-0.1l-5,0.6C16.5,145.1,16.2,145.2,16.1,145.5
					 M27.9,144.9l5.3-0.8l-2.7,26.2h0l-4.4-0.4c-2.1-5.2-3.9-9.4-5.3-12.8c0-0.1-0.1-0.2-0.2-0.2c-0.1-0.1-0.2-0.1-0.3-0.1
					c-0.1,0-0.2,0.1-0.3,0.2c-0.1,0.1-0.1,0.2-0.1,0.3l-0.9,12.6l-1.9-0.2c-0.4,0-1-0.1-1.7-0.1l1.5-23.4v-0.1h0l4.6-0.6
					c0.5,2.1,1.7,6,3.6,11.8c0,0,0,0.1,0,0.1l0.2,0.3c0,0.2,0.1,0.3,0.2,0.3c0.2,0.2,0.5,0.2,0.7-0.1c0,0,0-0.1,0.1-0.3
					c0-0.1,0-0.3,0.1-0.6c0.1-0.6,0.3-1.6,0.5-2.9C27.1,151.4,27.5,148.4,27.9,144.9 M50.5,145.5c0,0,0-0.1,0-0.1
					c-0.8-1.5-2-2.6-3.6-3.1c-1.4-0.6-2.9-0.8-4.3-0.7h-0.1c-1.1,0-2.3,0.3-3.5,0.8c-0.1,0-0.2,0-0.2,0.1c-0.5,0.3-1,0.5-1.5,0.8
					c-0.2,0-0.3,0.1-0.4,0.2c-0.4,0.2-0.7,0.4-1,0.6c-0.2,0.2-0.3,0.4-0.3,0.7L34,170.2c0,0.1,0,0.2,0.1,0.4c0,0,0,0.1,0,0.1
					c0.1,0.1,0.2,0.3,0.4,0.4h0.1c0.1,0.1,0.3,0.1,0.4,0.1l4-0.1c0.2,0,0.4-0.1,0.6-0.2c0-0.1,0.1-0.1,0.2-0.1
					c0.1-0.2,0.1-0.3,0.2-0.5v-0.1l1.1-7.1c3.8,0.5,7-1.4,9.5-5.6c0,0,0-0.1,0-0.1c0.1-0.4,0.3-0.7,0.4-1.1v0c0.8-2.6,1-5.3,0.5-8.1
					c0,0,0-0.1,0-0.1c-0.1-0.3-0.1-0.5-0.2-0.8v0C51,146.7,50.8,146.1,50.5,145.5 M49.5,145.8c0,0,0,0.1,0,0.1
					c0.3,0.5,0.5,1.1,0.8,1.6c0,0.2,0.1,0.5,0.2,0.7c0,0,0,0.1,0,0.1c0.5,2.6,0.3,5.2-0.5,7.7c-0.1,0.4-0.3,0.7-0.4,1.1
					c-2.3,3.9-5.3,5.5-8.9,4.9c-0.1,0-0.2,0-0.3,0.1c-0.1,0-0.2,0-0.3,0.1c-0.1,0.1-0.1,0.1-0.1,0.3l-1.1,7.6l-4,0.1l1.7-25.4v0
					c0.2-0.2,0.5-0.4,0.9-0.6c0.1,0,0.1-0.1,0.2-0.1c0.5-0.3,0.9-0.5,1.4-0.8c0,0,0-0.1,0-0.1c1.1-0.5,2.2-0.7,3.2-0.8h0.1
					c1.3-0.1,2.6,0.1,3.9,0.6l0,0.1C47.8,143.7,48.8,144.6,49.5,145.8 M44.2,149c-0.2,0-0.3-0.1-0.5-0.1c-0.9-0.1-1.7,0-2.6,0.4
					c-0.1,0-0.1,0.1-0.2,0.1c-0.1,0.1-0.1,0.1-0.1,0.3l-0.5,6.4c0,0.1,0,0.3,0.1,0.4c0.1,0.1,0.2,0.1,0.3,0.1
					c0.9,0.1,1.8-0.1,2.8-0.5v0.1c1.2-0.5,2.2-1.3,2.8-2.5v-0.1c0.2-0.4,0.3-0.8,0.4-1.1v0c0.1-0.6,0-1.2-0.3-1.8l0,0
					C46.1,149.7,45.3,149.1,44.2,149 M43.6,149.9L43.6,149.9c0.2,0,0.3,0,0.5,0.1c0,0,0.1,0,0.1,0c0.7,0.1,1.2,0.5,1.5,1.2
					c0.2,0.4,0.2,0.8,0.2,1.2c-0.1,0.3-0.2,0.6-0.3,0.9c-0.5,1-1.3,1.6-2.3,2h-0.1c-0.6,0.3-1.2,0.4-1.8,0.4l0.5-5.6
					C42.4,149.9,43,149.9,43.6,149.9z"/>
				<path class="st2" d="M33.2,144.1l-5.3,0.8c-0.4,3.4-0.8,6.4-1.2,9.1c-0.2,1.3-0.4,2.3-0.5,2.9c-0.1,0.3-0.1,0.5-0.1,0.6
					c-0.1,0.2-0.1,0.3-0.1,0.3c-0.2,0.3-0.5,0.3-0.7,0.1c-0.1,0-0.2-0.1-0.2-0.3l-0.2-0.3c0,0,0-0.1,0-0.1
					c-1.9-5.7-3.1-9.7-3.6-11.8l-4.6,0.6h0v0.1l-1.5,23.4c0.7,0.1,1.3,0.1,1.7,0.1l1.9,0.2l0.9-12.6c0-0.1,0-0.2,0.1-0.3
					c0.1-0.1,0.2-0.2,0.3-0.2c0.1,0,0.2,0,0.3,0.1c0.1,0,0.2,0.1,0.2,0.2c1.4,3.4,3.2,7.7,5.3,12.8l4.4,0.4h0L33.2,144.1
					 M49.5,145.9c0-0.1,0-0.1,0-0.1c-0.7-1.2-1.7-2.1-3-2.6l0-0.1c-1.3-0.5-2.6-0.7-3.9-0.6h-0.1c-1,0-2.1,0.3-3.2,0.8
					c0,0,0,0,0,0.1c-0.5,0.2-0.9,0.5-1.4,0.8c-0.1,0-0.1,0.1-0.2,0.1c-0.4,0.2-0.7,0.3-0.9,0.6v0L35,170.2l4-0.1l1.1-7.6
					c0-0.1,0-0.2,0.1-0.3c0.1-0.1,0.2-0.1,0.3-0.1c0.1,0,0.2-0.1,0.3-0.1c3.6,0.6,6.6-1,8.9-4.9c0.1-0.4,0.3-0.7,0.4-1.1
					c0.8-2.5,0.9-5.1,0.5-7.7c0,0,0-0.1,0-0.1c-0.1-0.2-0.1-0.5-0.2-0.7C50.1,147,49.8,146.5,49.5,145.9 M43.7,148.9
					c0.2,0,0.3,0,0.5,0.1c1.1,0.1,1.9,0.7,2.3,1.8l0,0c0.2,0.5,0.3,1.1,0.3,1.8v0c-0.1,0.3-0.2,0.7-0.4,1.1v0.1
					c-0.6,1.2-1.6,2-2.8,2.5v-0.1c-1,0.4-1.9,0.6-2.8,0.5c-0.1,0-0.2-0.1-0.3-0.1c-0.1-0.1-0.1-0.3-0.1-0.4l0.5-6.4
					c0-0.1,0-0.2,0.1-0.3c0.1-0.1,0.1-0.1,0.2-0.1C42,148.9,42.8,148.8,43.7,148.9z"/>
			</g>
		</g>
	</g>
	<g transform="matrix( 3.241241455078125, 0, 0, 3.241241455078125, 0.9,-1.95) ">
		<g>
			<g id="Symbol_1_copy_0_Layer3_1_FILL">
				<path class="st4" d="M20.7,148.6c0.5-0.3,0.8-0.7,0.8-1.3c0-0.6-0.2-1.1-0.7-1.4l0,0c-2.6,0.4-3.9,0.8-4,1.2
					c-0.2,0.6-0.1,1.3,0.3,2c0.6-0.1,1.2-0.2,2-0.2C19.8,148.9,20.4,148.8,20.7,148.6z"/>
			</g>
		</g>
	</g>
	<g transform="matrix( 3.241241455078125, 0, 0, 3.241241455078125, 2.2,-11.15) ">
		<g>
			<g id="Symbol_1_copy_0_Layer3_2_FILL">
				<path class="st4" d="M32.6,148.5c-0.1-0.1-0.2-0.3-0.3-0.4c-0.5-0.5-1.1-0.8-2-0.8c-0.3,0-0.8,0-1.4,0.1
					c-0.4,0.1-0.8,0.2-1.1,0.4c0,0-0.1,0.1-0.2,0.1l-0.2,1.6c0,0,0,0.3-0.1,0.9c0.2,0.2,0.4,0.4,0.6,0.5c0.3,0.2,0.9,0.3,1.8,0.3
					c0.5,0.1,0.9,0.2,1.1,0.2c0.8-0.1,1.4-0.4,1.7-1.1L32.6,148.5z"/>
			</g>
		</g>
	</g>
	<g transform="matrix( 3.241241455078125, 0, 0, 3.241241455078125, 0.9,-1.95) ">
		<g>
			<g id="Symbol_1_copy_0_Layer3_3_FILL">
				<path class="st4" d="M28.5,191.2l2.6-0.1c0.8,0.1,1.5,0,2.1-0.4c0.8-0.6,1.1-1.4,0.9-2.4c-0.2-1-0.9-1.6-1.9-1.9
					c-0.5-0.1-1.2-0.1-2.1,0.1c-0.2,0-0.8,0-1.7-0.1c-2.8-0.4-4.7-0.7-5.8-1c-1.4-0.4-2.3-0.5-2.8-0.5c-0.5,0.1-0.9,0.2-1.4,0.5
					c-0.4,0.3-0.7,0.7-0.7,1.2c-0.1,0.7,0.4,1.5,1.3,2.2c1.3,0.9,3.1,1.6,5.5,2.1C26.3,191,27.6,191.1,28.5,191.2z"/>
			</g>
		</g>
	</g>
	<g transform="matrix( 1, 0, 0, 1, -0.7,-9.85) ">
		<g>
			<g id="Symbol_1_copy_0_Layer3_4_FILL">
				<path class="st4" d="M144,479c5.6,0.3,10.2,1.6,13.8,3.9c3.4,2.2,5.1,1.3,5.1-2.6c-0.5-1.3-1.4-2.5-2.6-3.6
					c-1.9-2.2-4.3-3.7-7.1-4.7l-3.8-0.8c-8.2-1.3-15.6-0.8-22.3,1.5c-6.4,2.1-8.4,6.2-6,12.5c0.8-0.3,1.6-0.7,2.4-1
					C131.6,480.4,138.4,478.6,144,479z"/>
			</g>
		</g>
	</g>
	<g transform="matrix( 1, 0, 0, 1, 0,0) ">
		<g>
			<g id="Symbol_1_copy_0_Layer1_0_FILL">
				<path class="st8" d="M160.7,389.2c-13.5-4.3-26.4-6.4-38.6-6.2c-10.2,0.2-21.5,2.1-33.8,5.7c-0.5,0-1,0.1-1.5,0.3
					c-1.3,0.4-2.4,1-3.4,1.6l0.1-0.1c-8.8,3.7-17.3,8.7-25.8,15c-25.8,19-43,45.4-51.6,79c-8.9,33.8-6.6,65.2,6.9,94.3
					c0.1,0.2,0.3,0.5,0.5,0.7c13.8,30.3,35.5,49,64.9,56.1c0.2,0,9.9,2.4,29,7.1c2.6,0.2,5.4,0.4,8.3,0.6
					c12.6,0.7,24.9-0.6,36.8-3.7c12.2-3.8,24.4-11,36.6-21.5c13-10.3,25.2-25,36.8-44.1l-4.3,6.8c6.4-11.1,11.4-23.5,15-37.3
					c2.4-10.1,3.9-19.8,4.6-29c0-0.1,0-0.2,0-0.3c0.1-1.8,0.2-3.8,0.2-5.9l0.1-3.7c0-0.1,0-0.3,0-0.4c0-0.1,0-0.2,0-0.3
					c-0.1-9.1-1-17.8-2.8-26.1c0-0.2,0-0.5,0-0.6c-2-9.3-4.9-18.3-8.6-27.1c-0.2-0.3-0.4-0.6-0.6-0.9c-0.7-1.5-1.5-3-2.3-4.5
					c-11.2-21.1-23.8-35.1-37.8-42c-13.7-6.6-21.4-10.4-22.9-11.3c-0.1-0.1-0.2-0.2-0.3-0.2c-0.5-0.2-1-0.4-1.3-0.5l-2.9-0.9
					C161.7,389.4,161.2,389.2,160.7,389.2 M167.8,408.9c0.7,0.2,1.3,0.6,1.9,1c16,7.7,28.7,18,37.9,30.9c2.2,3.1,4.2,6.4,6,9.9
					c0.9,1.7,1.6,3.4,2.3,5.1v-0.3c7.7,17,11.2,34.9,10.6,53.6c-0.1,0.9-0.1,1.8-0.1,2.9c-0.7,8.4-2.1,17.2-4.4,26.3
					c-3.2,12.4-7.7,23.6-13.3,33.5c0,0.1-0.1,0.2-0.3,0.3c-8,13.9-15.6,24.6-22.9,32.1c-7.4,7.5-14.4,13.1-21.1,16.8
					c-6.8,3.8-13.4,6.4-19.9,7.7c-6.5,1.3-11,1.9-13.4,1.9c-2.5-0.1-3.6-0.3-3.3-0.6l-25.3-3.8c-1.4-0.5-2.5-1-3.3-1.3
					c-15.8-3.7-26.1-6.9-31.1-9.6c1.4,0.4,2.8,0.7,4.1,1.1c-23.2-7.3-39.9-23.6-50-48.8v-0.2c-10.8-26.8-11.5-55.3-2.1-85.6
					c9.5-30.2,26.5-53.4,50.9-69.5c20.8-13.7,43.1-18.2,67-13.5c8.2,1.1,17.8,4.1,28.9,9.3C167.2,408.6,167.5,408.7,167.8,408.9z"/>
			</g>
		</g>
	</g>
	<g transform="matrix( 3.241241455078125, 0, 0, 3.241241455078125, 0.9,-1.95) ">
		<g>
			<g id="Symbol_1_copy_0_Layer1_1_FILL">
				<path class="st9" d="M51.2,126.6c-3.4-1.6-6.4-2.5-8.9-2.8c-0.1,0-0.1,0-0.2,0c0.2,0,0.4,0.1,0.7,0.2c0.1,0,0.3,0.1,0.4,0.2
					c0.1,0,0.3,0.1,0.4,0.2h0c0.4,0.1,0.8,0.2,1.2,0.4c1.7,0.6,3.2,1.4,4.6,2.4c3,2.1,5.5,4.8,7.5,8.2c0.8,1.2,1.4,2.6,1.9,4
					c2.2,5.5,3.1,11.3,2.5,17.4c-0.3,3-0.9,6-1.9,9.1c-1.1,3.4-2.5,6.5-4.2,9.3c-2.9,4.9-6.8,8.9-11.5,12.1h0
					c-0.4,0.2-0.7,0.5-1.1,0.7c-0.8,0.5-1.5,0.9-2.2,1.3c-4.3,2.2-8.7,3.1-13.1,2.8c-0.5-0.1-1.1-0.1-1.6-0.2
					c-1.1-0.2-2.2-0.5-3.5-0.8c-0.5-0.1-1-0.3-1.5-0.4c1.6,0.9,3.2,1.6,4.9,2.1c1,0.4,2.3,0.7,3.9,0.8l1,0.1
					c4.2,0.1,8.5-0.9,12.8-3.1l0-0.1c0.2-0.1,0.4-0.2,0.6-0.3c0.6-0.3,1.1-0.7,1.6-1c0.4-0.3,0.8-0.6,1.2-0.9h0
					c4.8-3.5,8.6-7.9,11.3-13.1c1.6-3,2.9-6.3,3.8-9.9c0.8-3.2,1.3-6.4,1.5-9.6c0.3-6.2-0.8-12.2-3.4-17.9c-0.6-1.4-1.4-2.8-2.2-4
					C55.7,130.7,53.6,128.4,51.2,126.6z"/>
			</g>
		</g>
	</g>
</g>
</svg>
