<svg id="Layer_1" data-name="Layer 1" xmlns="http://www.w3.org/2000/svg" xmlns:xlink="http://www.w3.org/1999/xlink" width="80" height="80" viewBox="0 0 80 80"><defs><filter id="Filter_1" x="-20" y="-20" width="140" height="140" name="Filter_1"><feColorMatrix result="result1" values="1 0 0 0 0 0 1 0 0 0 0 0 1 0 0 0 0 0 0.75 0" in="SourceGraphic"/></filter><radialGradient id="radial-gradient" cx="584.5142" cy="71.8389" r="27.8" gradientTransform="matrix(0.4149, 0.2395, 0.2395, -0.4149, -210.0436, -82.3551)" gradientUnits="userSpaceOnUse"><stop offset="0" stop-color="#fff"/><stop offset="1" stop-color="#fff" stop-opacity="0"/></radialGradient><radialGradient id="radial-gradient-2" cx="1449.4885" cy="188.1226" r="27.8" gradientTransform="matrix(0.1808, 0.1808, 0.1808, -0.1808, -260.5023, -216.9406)" xlink:href="#radial-gradient"/><radialGradient id="radial-gradient-3" cx="771.3401" cy="-951.5136" r="27.8" gradientTransform="matrix(0.2557, 0, 0, -0.2557, -130.9196, -172.0299)" xlink:href="#radial-gradient"/><radialGradient id="radial-gradient-4" cx="1025.6735" cy="249.6442" r="27.8" gradientTransform="matrix(0.2402, 0.2402, 0.2402, -0.2402, -283.0003, -139.0674)" xlink:href="#radial-gradient"/></defs><title>premium-icon</title><g id="star_con_color_copy_3_0_Layer1_0_FILL" data-name="star con color copy 3 0 Layer1 0 FILL"><path d="M78.1357,28.1281q.3024-.3627.5442-.6045l.665-.6651q-1.1487,0-2.5392.0605H70.82q-.3024-.5442-.6651-1.0882-.1209-.2419-.3022-.5442-.121-.1813-.3023-.4232-.4233-.6045-.9069-1.27a.9475.9475,0,0,1-.1814-.2418l-.2418-.3628-1.2092-1.4509a.9473.9473,0,0,0-.1813-.2419L65.5,19.8455l-.2418-.1814q0-.06-.1209-.1209a30.7635,30.7635,0,0,0-4.0507-3.6275l-4.1716-2.8415q-.7859-.4836-1.6323-.9069a28.9222,28.9222,0,0,0-2.7811-1.2091A27.3476,27.3476,0,0,0,48.8743,9.749,33.2524,33.2524,0,0,0,41.3171,8.54a.2466.2466,0,0,0,.06.1814q.1209.3627-.8464-1.451T39.322,4.9729a8.2759,8.2759,0,0,1-.4232-.8464l-.0605-.0605q-.4231-.8464-.8464-1.6323a.537.537,0,0,1-.0605-.2419.18.18,0,0,1-.06-.1209v.0605h-.0605v.06l-.2418.8464q-.3627,1.0883-.786,2.2974-.1814.5442-.3627,1.1487H36.36q-.3022.9069-.665,2.0556a.2464.2464,0,0,1-.1814.06q-1.2092.06-2.4183.2419a30.5631,30.5631,0,0,0-3.8088.8464A32.7524,32.7524,0,0,0,15.26,17.85l-.7859.7859-.2419.2418-.1209.1209-.1209.121-.3627.4232a.9475.9475,0,0,0-.1814.2418.3956.3956,0,0,0-.1814.1814l-2.2974,2.9019A30.1552,30.1552,0,0,0,8.7909,26.254a8.2555,8.2555,0,0,0-.4232.8464q-1.3906,0-2.7811-.0605l-.06.0605H5.3448q-1.572-.06-4.6553,0a17.6066,17.6066,0,0,0,1.5719,1.39l.2419.2418L3.41,29.64a8.2245,8.2245,0,0,1,.6651.6046l.1813.1813q.9673.9673,2.0556,1.9347a24.2728,24.2728,0,0,0-.8464,3.567,37.9118,37.9118,0,0,0-.4837,4.4134q-.06.9069-.06,1.8137,0,.8465.06,1.6928v.0605l.5442,5.018a33.93,33.93,0,0,0,2.0555,6.8921l1.451,3.0834q.3022.4836.5441.9068a.7036.7036,0,0,0,.1209.1814q.786,1.27,1.6324,2.4788l.06.06a.95.95,0,0,0,.1814.2419.7587.7587,0,0,0,.1814.3022q.4836.6651,1.0278,1.33l.6045.7255q.9069,1.0883,1.8742,2.0556l.9673.9673.121.1209q.5441.544,1.1487,1.0882l-1.8138,8.585q2.902-2.0556,4.4134-3.0229,1.2092-.9068,2.4788-1.8137a40.9464,40.9464,0,0,0,5.32,2.66,35.2212,35.2212,0,0,0,8.0408,2.1161q1.27.1814,2.5393.3022h.8464l.9068.0605,5.804-.2418a31.3932,31.3932,0,0,0,8.1013-1.9951L59.6357,73.23q1.27-.8463,2.5392-1.8137,1.1487.7255,2.237,1.451l.2418.1813q2.781,1.6929,4.1716,2.4184l.7255.4836L66.77,67.3047q.9673-1.0882,1.8742-2.237.2418-.3022.4232-.5441.6045-.7859,1.0882-1.5114a6.3948,6.3948,0,0,1,.3628-.5441.1741.1741,0,0,1,.06-.1209.0535.0535,0,0,1,.06-.06.6561.6561,0,0,1,.1209-.2418.7036.7036,0,0,1,.1209-.1814,28.862,28.862,0,0,0,1.8138-3.5065,136.2818,136.2818,0,0,1,.1209-.2419,3.3161,3.3161,0,0,1,.1813-.4232q.3628-.9069.6651-1.7533.1813-.4836.3023-.8464a10.9765,10.9765,0,0,0,.3023-1.0882,24.7154,24.7154,0,0,0,.6045-2.4788.4641.4641,0,0,0,.0605-.1813l.1209-.7255.1209-.8464a5.98,5.98,0,0,0,.0605-.8464q.1209-1.1487.2418-2.3579v-.8464a10.4114,10.4114,0,0,0,.0605-1.1487q0-.9069-.0605-1.7533v-.4836a.246.246,0,0,0-.0605-.1814v-.1814a29.8136,29.8136,0,0,0-.4836-3.8088q-.2418-1.5114-.6046-2.9624a3.2068,3.2068,0,0,1-.1814-.665q-.1813-.5442-.3627-1.1487a.9956.9956,0,0,1-.06-.3023,4.276,4.276,0,0,1,.6046-.6046q.6047-.7255,1.2092-1.39v-.06l.06-.06.1209-.121v-.06q.786-.786,1.3906-1.451T78.1357,28.1281Z" fill="#c7c3be"/></g><g id="star_con_color_copy_3_0_Layer0_0_FILL" data-name="star con color copy 3 0 Layer0 0 FILL"><path d="M78.1962,28.0072q.3022-.3627.5441-.6045l.6651-.6651q-1.1556,0-2.5393.0605-.209-.0081-.4232,0H70.8808q-.3022-.5442-.665-1.0883-.1209-.2418-.3023-.5441-.1209-.1814-.3023-.4232-.4231-.6045-.9068-1.27a.9452.9452,0,0,1-.1814-.2418l-.2419-.3628L67.072,21.4174a.9461.9461,0,0,0-.1814-.2419l-1.33-1.451-.2419-.1813q0-.06-.1209-.121a30.769,30.769,0,0,0-4.0506-3.6274l-4.1716-2.8415q-.786-.4837-1.6324-.9069a28.92,28.92,0,0,0-2.781-1.2091,27.3489,27.3489,0,0,0-3.6275-1.2092A33.4483,33.4483,0,0,0,41.3775,8.419q.0272.0943.0605.1813.1386.3628-.8464-1.4509-.9735-1.8138-1.2092-2.2974-.2316-.425-.4836-.8464V3.9451q-.4526-.8443-.8465-1.6324a1.02,1.02,0,0,0-.1209-.2418.1868.1868,0,0,0,0-.1209v.0605h-.06v.06l-.2419.8464q-.3627,1.0882-.7859,2.2974-.1814.5442-.3628,1.1487h-.06q-.3023.9069-.665,2.0556a.2464.2464,0,0,1-.1814.06q-1.2092.06-2.4183.2419a30.5646,30.5646,0,0,0-3.8089.8464A32.7524,32.7524,0,0,0,15.32,17.7294l-.786.786-.2418.2418-.1209.1209-.1209.1209-.3628.4232a.949.949,0,0,0-.1813.2419.3947.3947,0,0,0-.1814.1814l-2.2974,2.9019A30.1781,30.1781,0,0,0,8.8513,26.133a8.2876,8.2876,0,0,0-.4232.8465q-1.3905,0-2.781-.0605l-.0605.0605H5.4052q-1.5718-.0606-4.6552,0a17.5927,17.5927,0,0,0,1.5719,1.39l.2418.2418.9069.9069a8.24,8.24,0,0,1,.665.6045l.1814.1814q.9673.9673,2.0556,1.9347a24.26,24.26,0,0,0-.8464,3.567A37.8877,37.8877,0,0,0,5.0425,40.22q-.06.9067-.0605,1.8137,0,.8465.0605,1.6928v.0605l.5441,5.0179a33.9377,33.9377,0,0,0,2.0556,6.8922L9.0932,58.78q.3023.4836.5441.9068a.7036.7036,0,0,0,.1209.1814q.786,1.27,1.6323,2.4788l.0605.06a.9475.9475,0,0,0,.1814.2418.7582.7582,0,0,0,.1813.3023q.4838.6651,1.0278,1.33l.6046.7255q.9069,1.0883,1.8742,2.0555.4593.4834.9068.9069l.121.1209q.6128.5928,1.2091,1.0883l-1.8137,8.6454q2.8833-2.0284,4.4134-3.0229,1.2092-.9069,2.4788-1.8137a40.9515,40.9515,0,0,0,5.32,2.66,35.2154,35.2154,0,0,0,8.0409,2.116q1.27.1815,2.5392.3023h.8464l.9069.06,5.8039-.2418A31.3912,31.3912,0,0,0,54.1945,75.89l5.5017-2.7811q1.27-.8464,2.5392-1.8137,1.1487.7254,2.2369,1.451l.2419.1813q2.781,1.6929,4.1715,2.4183l.7255.4837L66.83,67.1838q.9673-1.0883,1.8742-2.237.2418-.3022.4232-.5441.6045-.786,1.0882-1.5114a6.3712,6.3712,0,0,1,.3627-.5441.1743.1743,0,0,1,.06-.121.0534.0534,0,0,1,.0605-.06.6577.6577,0,0,1,.1209-.2419.7028.7028,0,0,1,.1209-.1813A28.8484,28.8484,0,0,0,72.755,58.236a204.2761,204.2761,0,0,0,.1209-.2418,3.3184,3.3184,0,0,1,.1814-.4232q.3627-.9069.665-1.7533.1815-.4836.3023-.8464a10.9568,10.9568,0,0,0,.3023-1.0882,24.7157,24.7157,0,0,0,.6046-2.4788.4618.4618,0,0,0,.06-.1813l.121-.7255.1209-.8464a5.98,5.98,0,0,0,.06-.8465q.1209-1.1486.2419-2.3578V45.6a10.4134,10.4134,0,0,0,.06-1.1487q0-.9069-.06-1.7533v-.4836a.2464.2464,0,0,0-.0605-.1814V41.852a29.7958,29.7958,0,0,0-.4837-3.8088q-.2418-1.5114-.6045-2.9624a3.2077,3.2077,0,0,1-.1814-.6651q-.1814-.5441-.3627-1.1487a.9915.9915,0,0,1-.0605-.3022,4.2654,4.2654,0,0,1,.6046-.6046q.6045-.7255,1.2091-1.39v-.0605l.06-.06.1209-.1209v-.06q.786-.786,1.3905-1.451t1.0278-1.2092M59.273,26.4353q-3.93,0-8.3432-.1209l-1.33-2.66q-1.0883-1.9951-2.8416-5.26Q46.164,17.305,44.4,14.102h-.06q-.7254-1.39-1.5114-2.8415a32.3065,32.3065,0,0,1,21.0392,9.915,31.8431,31.8431,0,0,1,4.353,5.3807q-.877-.0338-1.8137-.06H64.956q-3.97-.0115-5.683-.06M65.1978,41.187q1.0127-.9642,3.8693-3.7484a18.6807,18.6807,0,0,1,1.5719-1.5114q.7255-.7255,1.33-1.39l.1209.3627a31.5559,31.5559,0,0,1,1.2091,8.8268q0,.8465-.06,1.6324a28.3078,28.3078,0,0,1-7.2549,18.0163L60.7239,45.48q1.6324-1.5114,4.4739-4.2925M75.3547,28.4909q-1.4238,1.3359-17.1095,16.0817,6.6352,22.771,7.98,26.6014-11.24-7.0788-14.3285-9.4314a90.2186,90.2186,0,0,0-9.4918-5.804q-10.794,8.0771-23.82,17.7141,4.7655-20.4654,6.2876-26.42L5.2239,28.9141q17.0671-.0336,26.48,0,2.1507-7.2471,6.65-22.0066,7.3341,14.8868,10.8219,21.7648,9.0746.0449,26.1782-.1814M28.5,13.0742a.2463.2463,0,0,0,.1814-.06,30.1709,30.1709,0,0,1,6.1062-1.5719h.0605a2.5531,2.5531,0,0,0-.2418.786q-.1623.4461-.3628.9069a.4.4,0,0,0,.1209-.0605Q32.7925,17.79,32.43,18.9386q-1.1813,3.78-2.6,8.1618a2.9616,2.9616,0,0,1-.6046,0q-5.6573.03-8.2827,0-2.56.0264-3.446,0-.8139.0206-1.9951,0-1.1412-.0048-1.6929,0h-1.39V27.04a29.8893,29.8893,0,0,1,5.9249-7.5572A30.4019,30.4019,0,0,1,28.5,13.0742M14.0507,39.6151v.0605q5.3468,5.02,8.3431,7.92l-2.8415,12.817a.2244.2244,0,0,1-.06.1209,3.2113,3.2113,0,0,1-.121.7255q-.0631.2745-.1209.5441-.2945,1.2707-.5441,2.4183l-.3627-.3627A31.0342,31.0342,0,0,1,8.9118,41.3079a32.7558,32.7558,0,0,1,.5441-6.0458q1.0278.9674,2.116,1.9951,1.1487,1.0883,2.4788,2.3579M26.7468,70.1462q1.0278-.786,2.1764-1.5719a.7054.7054,0,0,1,.1814-.1209q.3078-.2367.6046-.4837l.2418-.1814q2.4873-1.8551,2.7206-1.9951,4.7762-3.567,10.036-7.799,2.4183,1.6323,9.4314,6.4085.6649.4838,4.5947,3.1438h-.06q1.2909.9009,2.4788,1.6928L58.91,69.36a30.6652,30.6652,0,0,1-17.835,4.5344A33.03,33.03,0,0,1,26.7468,70.1462Z" fill="#c7c3be"/><path d="M28.9232,68.5743q-1.1487.786-2.1764,1.5719a33.03,33.03,0,0,0,14.3284,3.7484A30.6652,30.6652,0,0,0,58.91,69.36l.2419-.1209q-1.188-.7918-2.4788-1.6928h.06q-3.93-2.66-4.5947-3.1438-7.0131-4.7761-9.4314-6.4085-5.26,4.2321-10.036,7.799-.2332.14-2.7206,1.9951l-.2418.1814q-.2969.247-.6046.4837a.7054.7054,0,0,0-.1814.1209M14.0507,39.6756v-.0605q-1.33-1.27-2.4788-2.3579-1.0883-1.0276-2.116-1.9951a32.7558,32.7558,0,0,0-.5441,6.0458,31.0342,31.0342,0,0,0,9.4314,22.5507l.3627.3627q.25-1.1476.5441-2.4183.0576-.27.1209-.5441a3.2113,3.2113,0,0,0,.121-.7255.2244.2244,0,0,0,.06-.1209l2.8415-12.817q-2.9964-2.9-8.3431-7.92M28.6814,13.0137a.2463.2463,0,0,1-.1814.06,30.4019,30.4019,0,0,0-10.1568,6.4085A29.8893,29.8893,0,0,0,12.4183,27.04V27.1h1.39q.5517-.0048,1.6929,0,1.1813.0206,1.9951,0,.8862.0264,3.446,0,2.6255.03,8.2827,0a2.9616,2.9616,0,0,0,.6046,0q1.4184-4.3821,2.6-8.1618.3627-1.1487,1.9346-5.8644a.4.4,0,0,1-.1209.0605q.2006-.4608.3628-.9069a2.5531,2.5531,0,0,1,.2418-.786h-.0605a30.1709,30.1709,0,0,0-6.1062,1.5719M58.2452,44.5726Q73.9308,29.8269,75.3547,28.4909q-17.1036.2262-26.1782.1814Q45.6887,21.7942,38.3546,6.9075q-4.5,14.76-6.65,22.0066-9.4133-.0336-26.48,0L24.8726,47.2328q-1.522,5.9546-6.2876,26.42,13.0263-9.6371,23.82-17.7141a90.2186,90.2186,0,0,1,9.4918,5.804q3.0881,2.3526,14.3285,9.4314-1.3452-3.83-7.98-26.6014m10.8219-7.134q-2.8566,2.7841-3.8693,3.7484-2.8415,2.781-4.4739,4.2925l5.26,17.8954a28.3078,28.3078,0,0,0,7.2549-18.0163q.06-.786.06-1.6324A31.5559,31.5559,0,0,0,72.09,34.8994l-.1209-.3627q-.6046.6649-1.33,1.39a18.6807,18.6807,0,0,0-1.5719,1.5114M50.93,26.3144q4.4135.1209,8.3432.1209,1.7126.0489,5.683.06h1.451q.9366.0267,1.8137.06a31.8431,31.8431,0,0,0-4.353-5.3807,32.3065,32.3065,0,0,0-21.0392-9.915q.786,1.4509,1.5114,2.8415h.06q1.7637,3.2031,2.3578,4.2925,1.7533,3.2646,2.8416,5.26Z" fill="#4e1431"/></g><g id="constellation_premium01_0_Layer0_1_FILL" data-name="constellation premium01 0 Layer0 1 FILL"><path d="M78.74,27.4027l.6651-.6651q-1.1487,0-2.5393.0605H70.8808q-.3022-.5442-.665-1.0883-.1209-.2418-.3023-.5441-.1209-.1814-.3023-.4232-.4231-.6045-.9068-1.27a.9452.9452,0,0,1-.1814-.2418l-.2419-.3628L67.072,21.4174a.9461.9461,0,0,0-.1814-.2419l-1.33-1.451-.2419-.1813q0-.06-.1209-.121a30.769,30.769,0,0,0-4.0506-3.6274l-4.1716-2.8415q-.786-.4837-1.6324-.9069a28.92,28.92,0,0,0-2.781-1.2091,27.3489,27.3489,0,0,0-3.6275-1.2092A33.2524,33.2524,0,0,0,41.3775,8.419.2462.2462,0,0,0,41.438,8.6q.1209.3628-.8464-1.4509T39.3824,4.852a8.2965,8.2965,0,0,1-.4232-.8464l-.06-.0605q-.4233-.8465-.8465-1.6324L37.9314,1.95v.0605h-.06v.06l-.2419.8464q-.3627,1.0882-.7859,2.2974-.1814.5442-.3628,1.1487h-.06q-.3023.9069-.665,2.0556a.2464.2464,0,0,1-.1814.06q-1.2092.06-2.4183.2419a30.5646,30.5646,0,0,0-3.8089.8464A32.7524,32.7524,0,0,0,15.32,17.7294l-.786.786-.2418.2418-.1209.1209-.1209.1209-.3628.4232a.949.949,0,0,0-.1813.2419.3947.3947,0,0,0-.1814.1814l-2.2974,2.9019A30.1781,30.1781,0,0,0,8.8513,26.133a8.2876,8.2876,0,0,0-.4232.8465q-1.3905,0-2.781-.0605l-.0605.0605H5.4052q-1.5718-.0606-4.6552,0a17.5927,17.5927,0,0,0,1.5719,1.39l.2418.2418.9069.9069a8.24,8.24,0,0,1,.665.6045l.1814.1814q.9673.9673,2.0556,1.9347a24.26,24.26,0,0,0-.8464,3.567A37.8877,37.8877,0,0,0,5.0425,40.22q-.06.9067-.0605,1.8137,0,.8465.0605,1.6928v.0605l.5441,5.0179a33.9377,33.9377,0,0,0,2.0556,6.8922L9.0932,58.78q.3023.4836.5441.9068a.7036.7036,0,0,0,.1209.1814q.786,1.27,1.6323,2.4788l.0605.06a.9475.9475,0,0,0,.1814.2418.7582.7582,0,0,0,.1813.3023q.4838.6651,1.0278,1.33l.6046.7255q.9069,1.0883,1.8742,2.0555l.9673.9674.1209.1209q.5442.5441,1.1487,1.0882l-1.8137,8.585q2.9019-2.0556,4.4134-3.0229,1.2092-.9069,2.4788-1.8137a40.9515,40.9515,0,0,0,5.32,2.66,35.2154,35.2154,0,0,0,8.0409,2.116q1.27.1815,2.5392.3023h.8464l.9069.06,5.8039-.2418A31.3912,31.3912,0,0,0,54.1945,75.89l5.5017-2.7811q1.27-.8464,2.5392-1.8137,1.1487.7254,2.2369,1.451l.2419.1813q2.781,1.6929,4.1715,2.4183l.7255.4837L66.83,67.1838q.9673-1.0883,1.8742-2.237.2418-.3022.4232-.5441.6045-.786,1.0882-1.5114a6.3712,6.3712,0,0,1,.3627-.5441.1743.1743,0,0,1,.06-.121.0534.0534,0,0,1,.0605-.06.6577.6577,0,0,1,.1209-.2419.7028.7028,0,0,1,.1209-.1813A28.8484,28.8484,0,0,0,72.755,58.236a204.2761,204.2761,0,0,0,.1209-.2418,3.3184,3.3184,0,0,1,.1814-.4232q.3627-.9069.665-1.7533.1815-.4836.3023-.8464a10.9568,10.9568,0,0,0,.3023-1.0882,24.7157,24.7157,0,0,0,.6046-2.4788.4618.4618,0,0,0,.06-.1813l.121-.7255.1209-.8464a5.98,5.98,0,0,0,.06-.8465q.1209-1.1486.2419-2.3578V45.6a10.4134,10.4134,0,0,0,.06-1.1487q0-.9069-.06-1.7533v-.4836a.2464.2464,0,0,0-.0605-.1814V41.852a29.7958,29.7958,0,0,0-.4837-3.8088q-.2418-1.5114-.6045-2.9624a3.2077,3.2077,0,0,1-.1814-.6651q-.1814-.5441-.3627-1.1487a.9915.9915,0,0,1-.0605-.3022,4.2654,4.2654,0,0,1,.6046-.6046q.6045-.7255,1.2091-1.39v-.0605l.06-.06.1209-.1209v-.06q.786-.786,1.3905-1.451t1.0278-1.2092q.3022-.3627.5441-.6045M59.273,26.4353q-3.93,0-8.3432-.1209l-1.33-2.66q-1.0883-1.9951-2.8416-5.26Q46.1537,17.3063,44.4,14.102h-.06q-.7254-1.39-1.5114-2.8415a32.3065,32.3065,0,0,1,21.0392,9.915,31.8431,31.8431,0,0,1,4.353,5.3807q-.9069-.06-1.7533-.06H64.956q-3.99,0-5.683-.06M65.1978,41.187q1.0278-.9673,3.8693-3.7484a18.6807,18.6807,0,0,1,1.5719-1.5114q.7255-.7255,1.33-1.39l.1209.3627a31.5559,31.5559,0,0,1,1.2091,8.8268q0,.8465-.06,1.6324a28.3078,28.3078,0,0,1-7.2549,18.0163L60.7239,45.48q1.6324-1.5114,4.4739-4.2925M75.3547,28.4909q-1.4509,1.33-17.1095,16.1422,6.65,22.7321,7.98,26.5409Q54.98,64.1,51.8971,61.803a73.9672,73.9672,0,0,0-9.4313-5.8039Q31.5833,64.04,18.585,73.6527q4.7762-20.4951,6.2876-26.42L5.2239,28.9141q17.049-.06,26.48.06,2.1765-7.3155,6.65-22.0671Q45.67,21.78,49.1765,28.6723q9.0687.06,26.1782-.1814M28.5,13.0742a.2463.2463,0,0,0,.1814-.06,30.1709,30.1709,0,0,1,6.1062-1.5719h.0605a2.5531,2.5531,0,0,0-.2418.786,5.9681,5.9681,0,0,0-.3023.9069l.06-.0605Q32.7925,17.79,32.43,18.9386q-1.2092,3.8088-2.6,8.2222h-.6046q-5.6829-.06-8.2222,0-2.6-.06-3.4461,0-.8465-.06-1.9951-.06H12.4183V27.04a29.8893,29.8893,0,0,1,5.9249-7.5572A30.4019,30.4019,0,0,1,28.5,13.0742M14.0507,39.6151v.0605q5.32,5.0179,8.3431,7.92l-2.8415,12.817v.1209a4.76,4.76,0,0,1-.1814.7255q-.06.3023-.1209.5441-.3023,1.27-.5441,2.4183l-.3627-.3627A31.0342,31.0342,0,0,1,8.9118,41.3079a32.7558,32.7558,0,0,1,.5441-6.0458q1.0278.9674,2.116,1.9951,1.1487,1.0883,2.4788,2.3579M28.9232,68.5743a.7054.7054,0,0,1,.1814-.1209q.3022-.2418.6651-.4837l.2418-.1814q2.4183-1.8741,2.66-1.9951,4.7762-3.567,10.036-7.799,2.4183,1.6323,9.4314,6.4085.6649.4838,4.5947,3.1438h-.06q1.27.9069,2.4788,1.6928L58.91,69.36a30.6652,30.6652,0,0,1-17.835,4.5344,33.03,33.03,0,0,1-14.3284-3.7484Q27.7746,69.36,28.9232,68.5743Z" fill="#c7c3be"/></g><g filter="url(#Filter_1)"><g id="star2_0_Layer0_0_FILL" data-name="star2 0 Layer0 0 FILL"><path d="M61.1948,34.553l-9.5839-6.9714L55.2215,18.74l-6.1264,7.3058-9.9862-4.0228,8.7182,6.5546L43.3988,38.8833,50.1952,29.89Z" fill="url(#radial-gradient)"/></g></g><g filter="url(#Filter_1)"><g id="star2_0_Layer0_0_FILL-2" data-name="star2 0 Layer0 0 FILL"><path d="M40.6058,16.174l-3.9779-4.9181,3.0829-4.0592-4.1677,2.92L30.9505,6.6633,34.54,11.2469,30.8329,15.948,35.5792,12.25Z" fill="url(#radial-gradient-2)"/></g></g><g filter="url(#Filter_1)"><g id="star2_0_Layer0_0_FILL-3" data-name="star2 0 Layer0 0 FILL"><path d="M73.4244,71.2667l-6.29-.6643-.6907-5.05-.8817,5.0114-5.6889.8058,5.7785.7027.7035,5.9446.7411-5.97Z" fill="url(#radial-gradient-3)"/></g></g><g filter="url(#Filter_1)"><g id="star2_0_Layer0_0_FILL-4" data-name="star2 0 Layer0 0 FILL"><path d="M29.9646,54.0241l-5.2841-6.533,4.0952-5.3921-5.5363,3.879L17.1387,41.39l4.7677,6.0887-4.9238,6.2448,6.3048-4.9118Z" fill="url(#radial-gradient-4)"/></g></g></svg>