<svg id="Layer_1" data-name="Layer 1" xmlns="http://www.w3.org/2000/svg" xmlns:xlink="http://www.w3.org/1999/xlink" width="80" height="80" viewBox="0 0 80 80"><defs><filter id="Filter_1" x="-20" y="-20" width="140" height="140" name="Filter_1"><feColorMatrix result="result1" values="1 0 0 0 0 0 1 0 0 0 0 0 1 0 0 0 0 0 0.75 0" in="SourceGraphic"/></filter><radialGradient id="radial-gradient" cx="244.2057" cy="-245.1434" r="27.8" gradientTransform="matrix(0.5204, 0, 0, -0.5204, -67.279, -104.7684)" gradientUnits="userSpaceOnUse"><stop offset="0" stop-color="#fff"/><stop offset="1" stop-color="#fff" stop-opacity="0"/></radialGradient><radialGradient id="radial-gradient-2" cx="1086.0618" cy="240.8781" r="27.8" gradientTransform="matrix(0.2294, 0.2294, 0.2294, -0.2294, -290.7061, -144.5328)" xlink:href="#radial-gradient"/><radialGradient id="radial-gradient-3" cx="1163.5348" cy="229.632" r="27.8" gradientTransform="matrix(0.217, 0.217, 0.217, -0.217, -248.693, -147.5921)" xlink:href="#radial-gradient"/></defs><title>search-icon</title><g id="Symbol_11_copy_2_0_Layer1_0_FILL" data-name="Symbol 11 copy 2 0 Layer1 0 FILL"><path d="M79.2845,28.42a24.7931,24.7931,0,0,0-4.0719-9.3153A31.3244,31.3244,0,0,0,67.9612,11.63a25.61,25.61,0,0,0-6.9167-4.0161,14.518,14.518,0,0,0-2.2312-.8367,9.4173,9.4173,0,0,0-1.3388-.4463Q49.6654,4.1555,44.0315,8.06a.6441.6441,0,0,1-.1115.1673l-.0558.0558a.0493.0493,0,0,0-.0558.0558,10.8976,10.8976,0,0,0-2.1754,1.9523l-2.6217,2.3428a1.8262,1.8262,0,0,1-.2231.2789l-7.6976,8.4227a5.8777,5.8777,0,0,0-.3347.5021,16.1593,16.1593,0,0,0-1.3945,6.3589,30.9086,30.9086,0,0,0,.1673,3.18,134.3145,134.3145,0,0,1-9.7615,9.7615q-1.1156,1.0039-3.2352,2.9563-1.7292,1.6176-2.9564,3.0121-.7251.9483-1.2829,1.6734a8.4441,8.4441,0,0,0-.8367,1.8965,3.6665,3.6665,0,0,0-.1116.8925.4963.4963,0,0,0-.0557.2231,10.3892,10.3892,0,0,0-.1116,2.2312q.0558.7253.1116,1.3945L9.2248,56.8118A.6.6,0,0,0,8.89,56.7q-3.6814-1.2829-6.1358.6136v-.0558Q.1884,58.8757.3,62.6688a10.5351,10.5351,0,0,0,.2231,2.1754,11.7944,11.7944,0,0,0,2.0081,5.1317,12.5683,12.5683,0,0,0,4.2393,3.6815,9.4975,9.4975,0,0,0,4.1835,1.1714,6.84,6.84,0,0,0,2.1754-.3347,5.7188,5.7188,0,0,0,1.9523-1.004,6.8551,6.8551,0,0,0,2.12-2.9006,5.5544,5.5544,0,0,0,.39-3.7372q2.008-1.2273,2.1754-1.283a1.3132,1.3132,0,0,1,.5021-.1673q.39-.1116.5578-.1674l1.1156.1116a12.0781,12.0781,0,0,0,2.008.0558,10.0575,10.0575,0,0,0,2.5659-.502q.9483-.2232,14.8375-6.4148,3.4026-1.45,5.8569-2.5658.8367.3346,1.7292.6135a16.7487,16.7487,0,0,0,5.076,1.06,5.513,5.513,0,0,0,.7809-.0558q2.12-.9483,3.1237-1.3387.8367-.39,3.1237-1.6177.2789-.1114,5.5222-2.7332a55.8006,55.8006,0,0,0,5.2991-2.9563,21.5592,21.5592,0,0,0,4.63-4.0162,13.3268,13.3268,0,0,0,2.789-5.2433,20.2184,20.2184,0,0,0,.4463-2.5659q.0556-1.06.0557-2.6216A37.6758,37.6758,0,0,0,79.2845,28.42Z" fill="#c7c3be"/></g><g id="Symbol_11_copy_2_0_Layer0_0_FILL" data-name="Symbol 11 copy 2 0 Layer0 0 FILL"><path d="M79.2845,28.42a24.7931,24.7931,0,0,0-4.0719-9.3153A31.3244,31.3244,0,0,0,67.9612,11.63a25.61,25.61,0,0,0-6.9167-4.0161,14.518,14.518,0,0,0-2.2312-.8367,9.4173,9.4173,0,0,0-1.3388-.4463Q49.6654,4.1555,44.0315,8.06a.6441.6441,0,0,1-.1115.1673l-.0558.0558a.0493.0493,0,0,0-.0558.0558,10.8976,10.8976,0,0,0-2.1754,1.9523l-2.6217,2.3428a1.8262,1.8262,0,0,1-.2231.2789l-7.6976,8.4227a5.8777,5.8777,0,0,0-.3347.5021,16.1593,16.1593,0,0,0-1.3945,6.3589,30.9086,30.9086,0,0,0,.1673,3.18,134.3145,134.3145,0,0,1-9.7615,9.7615q-1.1156,1.0039-3.2352,2.9563-1.7292,1.6176-2.9564,3.0121-.7251.9483-1.2829,1.6734a8.4441,8.4441,0,0,0-.8367,1.8965,3.6665,3.6665,0,0,0-.1116.8925.4963.4963,0,0,0-.0557.2231,10.3892,10.3892,0,0,0-.1116,2.2312q.0558.7253.1116,1.3945L9.2248,56.8118A.6.6,0,0,0,8.89,56.7q-3.6814-1.2829-6.1358.6136v-.0558Q.1884,58.8757.3,62.6688a10.5351,10.5351,0,0,0,.2231,2.1754,11.7944,11.7944,0,0,0,2.0081,5.1317,12.5683,12.5683,0,0,0,4.2393,3.6815,9.4975,9.4975,0,0,0,4.1835,1.1714,6.84,6.84,0,0,0,2.1754-.3347,5.7188,5.7188,0,0,0,1.9523-1.004,6.8551,6.8551,0,0,0,2.12-2.9006,4.01,4.01,0,0,0,.4463-1.3387,4.2768,4.2768,0,0,0-.0558-2.3985,24.7129,24.7129,0,0,1,2.1754-1.283,1.3132,1.3132,0,0,1,.5021-.1673q.39-.1116.5578-.1674l1.1156.1116a12.0781,12.0781,0,0,0,2.008.0558,10.0575,10.0575,0,0,0,2.5659-.502q.9483-.2232,14.8375-6.4148,3.4026-1.45,5.8569-2.5658.8367.3346,1.7292.6135a16.7487,16.7487,0,0,0,5.076,1.06,5.513,5.513,0,0,0,.7809-.0558q2.12-.9483,3.1237-1.3387.8367-.39,3.1237-1.6177.2789-.1114,5.5222-2.7332a55.8006,55.8006,0,0,0,5.2991-2.9563,21.5592,21.5592,0,0,0,4.63-4.0162,13.3268,13.3268,0,0,0,2.789-5.2433,20.2184,20.2184,0,0,0,.4463-2.5659q.0556-1.06.0557-2.6216a37.6758,37.6758,0,0,0-.502-6.0243M45.8723,10.7375l.0558-.0557Q50.39,7.6139,56.5263,9.2873q.6135.1672,1.2829.39a26.05,26.05,0,0,1,12.4947,9.65q5.2992,7.084,5.3549,14.5586a11.8508,11.8508,0,0,1-.0558,2.008,10.7372,10.7372,0,0,1-3.9046,8.0324,17.934,17.934,0,0,1-2.2312,1.7849,12.652,12.652,0,0,1-5.3548,1.3945,17.7768,17.7768,0,0,1-5.1318-.39l-2.3428-.6694a36.1941,36.1941,0,0,1-7.5861-3.57,28.1834,28.1834,0,0,0,9.2038,5.4106l.8367.2789h.0557a24.6155,24.6155,0,0,0,3.5142.7252l-3.8488,2.12q-1.6009.9339-3.1795,1.6734a1.3268,1.3268,0,0,1-.4463.2789,5.0488,5.0488,0,0,1-2.9005.1116l-3.291-.4463a17.97,17.97,0,0,1-9.26-4.797,26.9892,26.9892,0,0,1-3.1237-3.7373,30.7624,30.7624,0,0,1-2.0081-3.2352q-2.5659-4.9646-2.3427-13.1641a6.1979,6.1979,0,0,1,1.1713-4.0162q.123-.2191.2232-.4462l4.1835-4.63a11.173,11.173,0,0,0,0,2.2312A27.0356,27.0356,0,0,0,39.5134,28.81a6.8108,6.8108,0,0,0,.5578,1.3945q.2841.7019.6135,1.3387a28.1,28.1,0,0,1-.7809-6.1916,20.4575,20.4575,0,0,1,2.51-10.4866q.1033-.2151.2231-.4463v-.0558a.0493.0493,0,0,1,.0558-.0557A7.51,7.51,0,0,1,43.92,12.4109l1.7849-1.5618h.0558v-.0558l.1116-.0558M7.9419,59.7124a.9868.9868,0,0,0-.2789.4462.5967.5967,0,0,0,.1673.6136q.1072.1608,1.2272-.502l3.1236-1.6734a9.86,9.86,0,0,0,.6136,1.06.6491.6491,0,0,1,.1116.1674,2.215,2.215,0,0,0,.2789.3346,1.4092,1.4092,0,0,1,.1673.3347q.279.3348.502.6136a12.8776,12.8776,0,0,0,2.12,1.8965l-3.57,2.3428q-1.3878,1.1621-1.45,1.6176a.6088.6088,0,0,0,.502.6136,1.3335,1.3335,0,0,0,1.004-.0558l.6694-.2789h.1673v.502a2.5509,2.5509,0,0,1-1.004,2.3428,3.1472,3.1472,0,0,1-3.1237.1673,9.18,9.18,0,0,1-3.96-3.1236,1.7472,1.7472,0,0,1-.3346-.4463,7.5137,7.5137,0,0,1-1.45-4.1277,3.3572,3.3572,0,0,1,1.1156-2.789,3.5982,3.5982,0,0,1,3.2352-.1674.6491.6491,0,0,0,.1674.1116m7.53-9.4826q.3625-.2649.6693-.502L30.2539,35.6154q.0558.2232.1115.5021a23.9147,23.9147,0,0,0,1.1714,3.3468,23.948,23.948,0,0,0,1.283,2.9005.6466.6466,0,0,0,.1115.1674,18.41,18.41,0,0,0,1.8965,3.1794q.2232.39.4463.7252l1.3387,1.8965a18.4338,18.4338,0,0,0,6.08,5.076.161.161,0,0,1,.1116.0557L27.186,61.0511q-2.4264,1.142-3.291,1.5061a5.955,5.955,0,0,1-3.7373.0558A7.8046,7.8046,0,0,1,16.1415,60.27l-.6693-1.004a8.175,8.175,0,0,1-.9483-1.6177,8.0367,8.0367,0,0,1-.6136-4.0719A5.6476,5.6476,0,0,1,15.4722,50.23M72.3678,29.9817q-.3086-1.1994-.5578-2.3986v.0558a20.1291,20.1291,0,0,0-3.5141-6.5821h0a21.5067,21.5067,0,0,0-9.5942-7.6418q-5.6784-2.1654-9.4826.5578a.314.314,0,0,1-.1674.0558h0a.5316.5316,0,0,1-.1115.1673.6173.6173,0,0,1-.1116.1116q-3.4893,2.6374-3.2352,8.2v.0558a21.92,21.92,0,0,0,.39,2.9006.5641.5641,0,0,1,.0558.1673,7.4389,7.4389,0,0,0,.2789,1.6176v.0558a17.7163,17.7163,0,0,0,3.6257,7.3072q.62.7134,1.45,1.5061H51.45a25.567,25.567,0,0,0,3.0679,2.789h0a18.0915,18.0915,0,0,0,6.6378,3.4583,10.7693,10.7693,0,0,0,7.2514-.39,6.4554,6.4554,0,0,0,4.2393-5.4107,17.6591,17.6591,0,0,0-.2789-6.582m-1.785-.1116.0558.7251a11.8844,11.8844,0,0,1-.502,6.0243,4.71,4.71,0,0,1-4.6855,3.5141,15.3385,15.3385,0,0,1-6.6378-1.2829,14.2637,14.2637,0,0,1-4.63-3.0121A24.6226,24.6226,0,0,1,51.45,32.6591a20.368,20.368,0,0,1-2.5659-4.6855,23.4887,23.4887,0,0,1-1.45-5.5223Q47.2111,17.7659,50,15.59a.1608.1608,0,0,0,.1116-.0558l.1115-.1115q3.18-2.0639,7.8092-.39A19.4407,19.4407,0,0,1,66.79,22.0051a21.5843,21.5843,0,0,1,3.0679,5.6338l.7251,2.3985Z" fill="#c7c3be"/><path d="M16.1415,49.7278q-.3068.237-.6693.502A5.6476,5.6476,0,0,0,13.91,53.5766a8.0367,8.0367,0,0,0,.6136,4.0719,8.175,8.175,0,0,0,.9483,1.6177l.6693,1.004a7.8046,7.8046,0,0,0,4.0162,2.3428,5.955,5.955,0,0,0,3.7373-.0558q.8645-.364,3.291-1.5061L42.8044,53.465a.161.161,0,0,0-.1116-.0557,18.4338,18.4338,0,0,1-6.08-5.076l-1.3387-1.8965q-.2232-.3348-.4463-.7252a18.41,18.41,0,0,1-1.8965-3.1794.6466.6466,0,0,1-.1115-.1674,23.948,23.948,0,0,1-1.283-2.9005,23.9147,23.9147,0,0,1-1.1714-3.3468q-.0558-.279-.1115-.5021L16.1415,49.7278M7.663,60.1586a.9868.9868,0,0,1,.2789-.4462.6491.6491,0,0,1-.1674-.1116,3.5982,3.5982,0,0,0-3.2352.1674,3.3572,3.3572,0,0,0-1.1156,2.789,7.5137,7.5137,0,0,0,1.45,4.1277,1.7472,1.7472,0,0,0,.3346.4463,9.18,9.18,0,0,0,3.96,3.1236,3.1472,3.1472,0,0,0,3.1237-.1673,2.5509,2.5509,0,0,0,1.004-2.3428v-.502h-.1673l-.6694.2789a1.3335,1.3335,0,0,1-1.004.0558.6088.6088,0,0,1-.502-.6136q.0625-.4556,1.45-1.6176l3.57-2.3428a12.8776,12.8776,0,0,1-2.12-1.8965q-.223-.2789-.502-.6136a1.4092,1.4092,0,0,0-.1673-.3347,2.215,2.215,0,0,1-.2789-.3346.6491.6491,0,0,0-.1116-.1674,9.86,9.86,0,0,1-.6136-1.06L9.0575,60.27q-1.12.6628-1.2272.502a.5967.5967,0,0,1-.1673-.6136M45.9281,10.6818l-.0558.0557-.1116.0558v.0558h-.0558L43.92,12.4109a7.51,7.51,0,0,0-1.2272,1.8966.0493.0493,0,0,0-.0558.0557v.0558q-.12.2311-.2231.4463a20.4575,20.4575,0,0,0-2.51,10.4866,28.1,28.1,0,0,0,.7809,6.1916q-.3294-.6369-.6135-1.3387a6.8108,6.8108,0,0,1-.5578-1.3945A27.0356,27.0356,0,0,1,37.84,20.8337a11.173,11.173,0,0,1,0-2.2312l-4.1835,4.63q-.1.227-.2232.4462a6.1979,6.1979,0,0,0-1.1713,4.0162q-.2232,8.2,2.3427,13.1641a30.7624,30.7624,0,0,0,2.0081,3.2352,26.9892,26.9892,0,0,0,3.1237,3.7373,17.97,17.97,0,0,0,9.26,4.797l3.291.4463a5.0488,5.0488,0,0,0,2.9005-.1116,1.3268,1.3268,0,0,0,.4463-.2789q1.5786-.74,3.1795-1.6734l3.8488-2.12a24.6155,24.6155,0,0,1-3.5142-.7252h-.0557l-.8367-.2789a28.1834,28.1834,0,0,1-9.2038-5.4106,36.1941,36.1941,0,0,0,7.5861,3.57l2.3428.6694a17.7768,17.7768,0,0,0,5.1318.39,12.652,12.652,0,0,0,5.3548-1.3945,17.934,17.934,0,0,0,2.2312-1.7849,10.7372,10.7372,0,0,0,3.9046-8.0324,11.8508,11.8508,0,0,0,.0558-2.008q-.0558-7.4746-5.3549-14.5586a26.05,26.05,0,0,0-12.4947-9.65q-.6693-.223-1.2829-.39Q50.39,7.6139,45.9281,10.6818M71.81,27.5831q.2493,1.1992.5578,2.3986a17.6591,17.6591,0,0,1,.2789,6.582,6.4554,6.4554,0,0,1-4.2393,5.4107,10.7693,10.7693,0,0,1-7.2514.39,18.0915,18.0915,0,0,1-6.6378-3.4583h0a25.567,25.567,0,0,1-3.0679-2.789h-.0558q-.83-.7928-1.45-1.5061a17.7163,17.7163,0,0,1-3.6257-7.3072v-.0558a7.4389,7.4389,0,0,1-.2789-1.6176.5641.5641,0,0,0-.0558-.1673,21.92,21.92,0,0,1-.39-2.9006v-.0558q-.2541-5.562,3.2352-8.2a.6173.6173,0,0,0,.1116-.1116.5316.5316,0,0,0,.1115-.1673h0a.314.314,0,0,0,.1674-.0558q3.8042-2.7232,9.4826-.5578a21.5067,21.5067,0,0,1,9.5942,7.6418h0A20.1291,20.1291,0,0,1,71.81,27.6389v-.0558m-1.1714,3.0121-.0558-.7251v.1673l-.7251-2.3985A21.5843,21.5843,0,0,0,66.79,22.0051a19.4407,19.4407,0,0,0-8.7575-6.9725q-4.63-1.6734-7.8092.39l-.1115.1115A.1608.1608,0,0,1,50,15.59q-2.7889,2.1754-2.5659,6.8609a23.4887,23.4887,0,0,0,1.45,5.5223A20.368,20.368,0,0,0,51.45,32.6591a24.6226,24.6226,0,0,0,2.7332,3.1795,14.2637,14.2637,0,0,0,4.63,3.0121,15.3385,15.3385,0,0,0,6.6378,1.2829A4.71,4.71,0,0,0,70.1366,36.62,11.8844,11.8844,0,0,0,70.6386,30.5952Z" fill="#280f4b"/></g><g id="constellation_search01_0_Layer0_1_FILL" data-name="constellation search01 0 Layer0 1 FILL"><path d="M79.2845,28.42a24.7931,24.7931,0,0,0-4.0719-9.3153A31.3244,31.3244,0,0,0,67.9612,11.63a25.61,25.61,0,0,0-6.9167-4.0161,14.518,14.518,0,0,0-2.2312-.8367,9.4173,9.4173,0,0,0-1.3388-.4463Q49.6654,4.1555,44.0315,8.06a.6441.6441,0,0,1-.1115.1673l-.0558.0558a.0493.0493,0,0,0-.0558.0558,10.8976,10.8976,0,0,0-2.1754,1.9523l-2.6217,2.3428a1.8262,1.8262,0,0,1-.2231.2789l-7.6976,8.4227a5.8777,5.8777,0,0,0-.3347.5021,16.1593,16.1593,0,0,0-1.3945,6.3589,30.9086,30.9086,0,0,0,.1673,3.18,134.3145,134.3145,0,0,1-9.7615,9.7615q-1.1156,1.0039-3.2352,2.9563-1.7292,1.6176-2.9564,3.0121-.7251.9483-1.2829,1.6734a8.4441,8.4441,0,0,0-.8367,1.8965,3.6665,3.6665,0,0,0-.1116.8925.4963.4963,0,0,0-.0557.2231,10.3892,10.3892,0,0,0-.1116,2.2312q.0558.7253.1116,1.3945L9.2248,56.8118A.6.6,0,0,0,8.89,56.7q-3.6814-1.2829-6.1358.6136v-.0558Q.1884,58.8757.3,62.6688a10.5351,10.5351,0,0,0,.2231,2.1754,11.7944,11.7944,0,0,0,2.0081,5.1317,12.5683,12.5683,0,0,0,4.2393,3.6815,9.4975,9.4975,0,0,0,4.1835,1.1714,6.84,6.84,0,0,0,2.1754-.3347,5.7188,5.7188,0,0,0,1.9523-1.004,6.8551,6.8551,0,0,0,2.12-2.9006,5.5544,5.5544,0,0,0,.39-3.7372q2.008-1.2273,2.1754-1.283a1.3132,1.3132,0,0,1,.5021-.1673q.39-.1116.5578-.1674l1.1156.1116a12.0781,12.0781,0,0,0,2.008.0558,10.0575,10.0575,0,0,0,2.5659-.502q.9483-.2232,14.8375-6.4148,3.4026-1.45,5.8569-2.5658.8367.3346,1.7292.6135a16.7487,16.7487,0,0,0,5.076,1.06,5.513,5.513,0,0,0,.7809-.0558q2.12-.9483,3.1237-1.3387.8367-.39,3.1237-1.6177.2789-.1114,5.5222-2.7332a55.8006,55.8006,0,0,0,5.2991-2.9563,21.5592,21.5592,0,0,0,4.63-4.0162,13.3268,13.3268,0,0,0,2.789-5.2433,20.2184,20.2184,0,0,0,.4463-2.5659q.0556-1.06.0557-2.6216a37.6758,37.6758,0,0,0-.502-6.0243M45.8723,10.7375l.0558-.0557Q50.39,7.6139,56.5263,9.2873q.6135.1672,1.2829.39a26.05,26.05,0,0,1,12.4947,9.65q5.2992,7.084,5.3549,14.5586a11.8508,11.8508,0,0,1-.0558,2.008,10.7372,10.7372,0,0,1-3.9046,8.0324,17.6749,17.6749,0,0,1-2.2312,1.7849,12.652,12.652,0,0,1-5.3548,1.3945,17.7768,17.7768,0,0,1-5.1318-.39l-2.3428-.6694a34.568,34.568,0,0,1-7.53-3.57,27.9552,27.9552,0,0,0,9.148,5.4106l.8367.2789h.0557a24.6155,24.6155,0,0,0,3.5142.7252l-3.8488,2.12q-1.6178.9483-3.1795,1.7292a2.4694,2.4694,0,0,1-.4463.2231,5.0488,5.0488,0,0,1-2.9005.1116l-3.291-.4463a17.97,17.97,0,0,1-9.26-4.797,26.9892,26.9892,0,0,1-3.1237-3.7373,30.7624,30.7624,0,0,1-2.0081-3.2352q-2.5659-4.9646-2.3427-13.1641a6.1269,6.1269,0,0,1,1.2271-4.0162,2.1792,2.1792,0,0,1,.1674-.4462l4.1835-4.63a11.173,11.173,0,0,0,0,2.2312A27.0356,27.0356,0,0,0,39.5134,28.81a6.8108,6.8108,0,0,0,.5578,1.3945q.2789.7251.6135,1.3945a29.3186,29.3186,0,0,1-.7809-6.2474,20.1555,20.1555,0,0,1,2.51-10.4309q.1116-.2789.2231-.502v-.0558a.0493.0493,0,0,1,.0558-.0557A7.51,7.51,0,0,1,43.92,12.4109l1.7849-1.5618h.0558q0-.0558.1116-.1116M7.7745,59.6008a.6491.6491,0,0,0,.1674.1116.9868.9868,0,0,0-.2789.4462.5967.5967,0,0,0,.1673.6136q.1116.1674,1.2272-.502l3.1236-1.6734a9.86,9.86,0,0,0,.6136,1.06.6491.6491,0,0,1,.1116.1674,2.215,2.215,0,0,0,.2789.3346,1.4092,1.4092,0,0,1,.1673.3347q.279.3348.502.6136a12.8776,12.8776,0,0,0,2.12,1.8965l-3.57,2.3428Q11.01,66.5176,11.01,66.9638a.5432.5432,0,0,0,.4462.6136,1.3449,1.3449,0,0,0,1.004-.0558l.6694-.2789h.1673v.502a2.5509,2.5509,0,0,1-1.004,2.3428,3.1472,3.1472,0,0,1-3.1237.1673,9.18,9.18,0,0,1-3.96-3.1236,1.7472,1.7472,0,0,1-.3346-.4463,7.5137,7.5137,0,0,1-1.45-4.1277,3.3572,3.3572,0,0,1,1.1156-2.789,3.5982,3.5982,0,0,1,3.2352-.1674m7.6977-9.371q.39-.2788.6693-.502L30.2539,35.6154q.0558.2232.1115.5021a23.9147,23.9147,0,0,0,1.1714,3.3468,23.948,23.948,0,0,0,1.283,2.9005.6466.6466,0,0,0,.1115.1674,18.41,18.41,0,0,0,1.8965,3.1794q.2232.39.4463.7252l1.3387,1.8965a18.4338,18.4338,0,0,0,6.08,5.076.161.161,0,0,1,.1116.0557L27.186,61.0511q-2.3986,1.1157-3.291,1.5061a5.955,5.955,0,0,1-3.7373.0558A7.8046,7.8046,0,0,1,16.1415,60.27l-.6693-1.004a7.7041,7.7041,0,0,1-.9483-1.6177,8.0367,8.0367,0,0,1-.6136-4.0719A5.6476,5.6476,0,0,1,15.4722,50.23M72.4236,29.9817a13.212,13.212,0,0,1-.5578-2.3986v.1116a20.449,20.449,0,0,0-3.57-6.5821v-.0558a21.5793,21.5793,0,0,0-9.5384-7.6418q-5.7454-2.1754-9.5384.5578l-.1116.1115h-.0558l-.1115.1116-.1116.1116q-3.5141,2.6216-3.2352,8.2554a19.5589,19.5589,0,0,0,.4462,2.9564v.1115a6.6839,6.6839,0,0,0,.3347,1.6734V27.36A17.561,17.561,0,0,0,50,34.6672a13.286,13.286,0,0,0,1.45,1.45v.0557a25.7084,25.7084,0,0,0,3.0679,2.7333l.0558.0557a19.2474,19.2474,0,0,0,6.582,3.4584,11.23,11.23,0,0,0,7.3072-.4462A6.4916,6.4916,0,0,0,72.6467,36.62a18.1624,18.1624,0,0,0-.2231-6.6378M70.5828,29.87l.0558.7251a11.8844,11.8844,0,0,1-.502,6.0243,4.71,4.71,0,0,1-4.6855,3.5141,15.3385,15.3385,0,0,1-6.6378-1.2829,14.2637,14.2637,0,0,1-4.63-3.0121A24.6226,24.6226,0,0,1,51.45,32.6591a20.368,20.368,0,0,1-2.5659-4.6855,23.4887,23.4887,0,0,1-1.45-5.5223Q47.2111,17.7659,50,15.59a.1608.1608,0,0,0,.1116-.0558l.1115-.1115q3.18-2.0639,7.8092-.39A19.4407,19.4407,0,0,1,66.79,22.0051a21.5843,21.5843,0,0,1,3.0679,5.6338l.7251,2.3985Z" fill="#c7c3be"/></g><g filter="url(#Filter_1)"><g id="star2_0_Layer0_0_FILL" data-name="star2 0 Layer0 0 FILL"><path d="M74.2777,22.8608,61.4754,21.5077,60.07,11.2294l-1.7954,10.2L46.6956,23.069,58.457,24.5l1.4312,12.1,1.5092-12.1517Z" fill="url(#radial-gradient)"/></g></g><g filter="url(#Filter_1)"><g id="star2_0_Layer0_0_FILL-2" data-name="star2 0 Layer0 0 FILL"><path d="M20.1149,55.7955l-5.0478-6.241,3.9121-5.1511L13.69,48.109l-5.828-4.3825,4.5545,5.8165L7.7132,55.5087l6.0231-4.6922Z" fill="url(#radial-gradient-2)"/></g></g><g filter="url(#Filter_1)"><g id="star2_0_Layer0_0_FILL-3" data-name="star2 0 Layer0 0 FILL"><path d="M59.643,61.1244l-4.7741-5.9025,3.7-4.8718-5.002,3.5047L48.0549,49.71l4.3076,5.5011-4.4486,5.6422L53.61,56.4154Z" fill="url(#radial-gradient-3)"/></g></g></svg>