<svg id="Layer_1" data-name="Layer 1" xmlns="http://www.w3.org/2000/svg" xmlns:xlink="http://www.w3.org/1999/xlink" width="80" height="80" viewBox="0 0 80 80"><defs><filter id="Filter_1" x="-20" y="-20" width="140" height="140" name="Filter_1"><feColorMatrix result="result1" values="1 0 0 0 0 0 1 0 0 0 0 0 1 0 0 0 0 0 0.75 0" in="SourceGraphic"/></filter><radialGradient id="radial-gradient" cx="404.5451" cy="-91.0423" r="27.8" gradientTransform="matrix(0.5018, 0.1344, 0.1344, -0.5018, -124.7007, -80.8454)" gradientUnits="userSpaceOnUse"><stop offset="0" stop-color="#fff"/><stop offset="1" stop-color="#fff" stop-opacity="0"/></radialGradient><radialGradient id="radial-gradient-2" cx="855.9225" cy="-1064.6132" r="27.8" gradientTransform="matrix(0.2364, 0, 0, -0.2364, -158.6882, -218.0872)" xlink:href="#radial-gradient"/><radialGradient id="radial-gradient-3" cx="1185.3201" cy="226.3515" r="27.8" gradientTransform="matrix(0.2138, 0.2137, 0.2137, -0.2138, -278.1797, -184.9373)" xlink:href="#radial-gradient"/><radialGradient id="radial-gradient-4" cx="855.9225" cy="-1064.6132" r="27.8" gradientTransform="matrix(0.2364, 0, 0, -0.2364, -172.3819, -183.7131)" xlink:href="#radial-gradient"/><radialGradient id="radial-gradient-5" cx="855.9225" cy="-1064.6132" r="27.8" gradientTransform="matrix(0.2364, 0, 0, -0.2364, -141.8085, -200.5368)" xlink:href="#radial-gradient"/></defs><title>shop-icon</title><g id="shop_basic_copy_2_0_Layer3_0_FILL" data-name="shop basic copy 2 0 Layer3 0 FILL"><path d="M70.6107,14.5206a4.9229,4.9229,0,0,0-1.2268-.0355q-.4154.0373-1.2236.17l-1.7208.2868-1.0809-4.37a19.57,19.57,0,0,0-.64-2.1573A5.7007,5.7007,0,0,0,63.578,6.5269a4.9713,4.9713,0,0,0-2.5226-1.3992A8.1162,8.1162,0,0,0,58.07,5.017a19.7288,19.7288,0,0,0-2.8773.6854q-2.3978.7317-2.8573.8434-.2067.0567-2.1622.48a17.9883,17.9883,0,0,0-2.1264.5826,7.229,7.229,0,0,0-1.9432,1.0636,4.5645,4.5645,0,0,0-1.3771,1.6719,5.1347,5.1347,0,0,0-.3859,2.5623q.06.8328.7258,3.98-3.5013.161-7.91-.0216Q33.04,16.6912,30.51,16.622q-.031-.0036-.0546-.0083a2.2885,2.2885,0,0,1-.9434-.3312A1.992,1.992,0,0,1,28.92,15.41a7.7051,7.7051,0,0,0-.4567-1.0117,2.12,2.12,0,0,0-.7956-.7319,3.0589,3.0589,0,0,0-1.0525-.3479,5.3671,5.3671,0,0,0-1.0961-.0292q-.3713.024-1.1.124l-4.7621.6416q-1.1636.1626-1.7292.28a9.4124,9.4124,0,0,0-1.6735.4794,5.6052,5.6052,0,0,0-1.5148.8871,3.95,3.95,0,0,0-1.075,1.3433,4.7337,4.7337,0,0,0-.41,1.7708,12.7218,12.7218,0,0,0,.0895,1.8527,15.74,15.74,0,0,1-2.0294.6238q-.69.1638-2.0777.4848a10.1245,10.1245,0,0,0-3.8044,1.6279,5.67,5.67,0,0,0-1.6,1.9674,5.5515,5.5515,0,0,0-.54,1.7034q-.04.1593-.0737.3225a3.9806,3.9806,0,0,0,0,1.6883,3.8383,3.8383,0,0,0,.6991,1.5387,3.7821,3.7821,0,0,0,.695.7217q.129.1.2682.1876a4.5322,4.5322,0,0,0,.7426.5552,5.3589,5.3589,0,0,0,2.1615.7193,8.1975,8.1975,0,0,0,2.3058-.0706,5.4492,5.4492,0,0,1,.5423-.0611.9091.9091,0,0,1,.4975.128,1.4264,1.4264,0,0,1,.4646.6516l7.0945,15.717q.26.6012.3578.8944a2.9444,2.9444,0,0,1,.1717.9331,3.2878,3.2878,0,0,1-.176,1.0231q-.0608.1834-.3715.9868a8.8457,8.8457,0,0,0-.5994,4.6749,5.96,5.96,0,0,0,.8469,2.2227,4.8312,4.8312,0,0,0,1.6761,1.6517,5.7273,5.7273,0,0,0,1.7777.6457,10.6593,10.6593,0,0,0,1.3587.1716q-.3068.4132-.5786.86a9.4379,9.4379,0,0,0-1.1215,2.7853,8.86,8.86,0,0,0-.1985,2.7143,7.8549,7.8549,0,0,0,.6625,2.6357,7.47,7.47,0,0,0,1.5218,2.1831,7.3532,7.3532,0,0,0,4.76,2.1776,7.2551,7.2551,0,0,0,2.6458-.2817A10.0235,10.0235,0,0,0,34.59,73.7834a9.3121,9.3121,0,0,0,2.2345-2.2618,4.8109,4.8109,0,0,0,.8767-3.0293,9.8531,9.8531,0,0,0,4.3735-3.1058,9.98,9.98,0,0,0,2.1835-4.654l.12-.0153q.4352-.0627,1.4369-.2355-.4853.9324-1.1582,2.1941a9.6274,9.6274,0,0,0-1.04,3.8522,6.6,6.6,0,0,0,.6375,2.9216,7.107,7.107,0,0,0,1.7949,2.4082,7.4361,7.4361,0,0,0,3.52,1.7313,8.3285,8.3285,0,0,0,3.7393-.1529,10.5362,10.5362,0,0,0,3.4162-1.617,8.132,8.132,0,0,0,2.5092-2.6862,5.3714,5.3714,0,0,0,.6044-1.7419,4.3432,4.3432,0,0,0-.0633-1.8255,7.8423,7.8423,0,0,0,3.9284-1.1929,8.3756,8.3756,0,0,0,2.89-2.9406,9.113,9.113,0,0,0,1.2117-3.9428,9.8477,9.8477,0,0,0-.3274-3.4879q.3708-.33.7669-.7007,1.1216-1.0359,1.6827-1.6724a8.5441,8.5441,0,0,0,1.3259-1.9556,5.1161,5.1161,0,0,0,.5-2.3246,3.5657,3.5657,0,0,0-.7491-2.1741,3.6843,3.6843,0,0,0-1.1324-.9184,4.8892,4.8892,0,0,0-1.4006-.5024,7.93,7.93,0,0,0-1.4508-.1753q-.4446-.0125-1.4815.0044a.3905.3905,0,0,1-.046-.0018q1.2368-1.1475,1.3393-1.2469a1.6273,1.6273,0,0,0,.3668-.4819,1.4544,1.4544,0,0,0,.0936-.2258.9039.9039,0,0,0,.1668-.3114,1.2388,1.2388,0,0,0,.0532-.2436q.2178-.6923.3449-1.1972.1017-.4026.2133-1.15l.04-.2266q.1092-.4646.2408-1.0542,1.7931-8.1174,3.4545-16.9314a.6671.6671,0,0,0,.0281-.08q.2381-.9546.3764-1.43.4365-1.56.4411-1.5838a2.6373,2.6373,0,0,0-.0966-1.5462,2.0709,2.0709,0,0,0-.7949-.9077,2.9946,2.9946,0,0,0-1.1486-.4427M28.9042,53.09l-.0075.001a.4567.4567,0,0,1,.0413-.0358.2222.2222,0,0,0-.0338.0348M53.1423,65.3135a.5336.5336,0,0,1,.0453.1165,1.3728,1.3728,0,0,1,.0194.3948c-.0024.0207-.0046.0438-.0064.07l-.0021-.1372A2.2071,2.2071,0,0,0,53.1423,65.3135Z" fill="#c7c3be"/><path d="M53.1876,65.43a.5336.5336,0,0,0-.0453-.1165,2.2071,2.2071,0,0,1,.0562.4436l.0021.1372c.0018-.0257.004-.0488.0064-.07A1.3728,1.3728,0,0,0,53.1876,65.43Z" fill="#15347a"/><path d="M28.8967,53.0912l.0075-.001a.2222.2222,0,0,1,.0338-.0348A.4567.4567,0,0,0,28.8967,53.0912Z" fill="#77104f"/></g><g id="shop_basic_copy_2_0_Layer2_0_FILL" data-name="shop basic copy 2 0 Layer2 0 FILL"><path d="M34.143,51.3264a2.0538,2.0538,0,0,0-1.03-.8933,2.1867,2.1867,0,0,0-1.369-.1321,7.8127,7.8127,0,0,0-1.0362.3834q-.2188.0813-.7056.2193-.4652.1276-.7056.2193a8.8635,8.8635,0,0,0-1.8594,1.1217,2.6669,2.6669,0,0,0-.7912.75,2.4974,2.4974,0,0,0-.27,1.0045,3.3068,3.3068,0,0,0,.0734,1.1824,2.1821,2.1821,0,0,0,.5307.8724,2.507,2.507,0,0,0,.8592.5711,2.947,2.947,0,0,0,2.0268.0182,4.718,4.718,0,0,0,1.7514-1.07l.6307-.63a5.0122,5.0122,0,0,1,.6618-.5652,8.649,8.649,0,0,0,.7906-.5127,1.8988,1.8988,0,0,0,.66-1.1837A1.9933,1.9933,0,0,0,34.143,51.3264Z" fill="#5cd4d1"/><path d="M64.7571,8.3562a5.7025,5.7025,0,0,0-1.1407-1.8876,4.9714,4.9714,0,0,0-2.5226-1.3993,8.1184,8.1184,0,0,0-2.9858-.1106,19.7279,19.7279,0,0,0-2.8772.6854q-2.3979.7316-2.8573.8433-.2067.0567-2.1623.48a17.9976,17.9976,0,0,0-2.1263.5827,7.2247,7.2247,0,0,0-1.9432,1.0636,4.5628,4.5628,0,0,0-1.3772,1.6718,5.1336,5.1336,0,0,0-.3858,2.5623q.0592.83.7258,3.98-3.5042.162-7.91-.0215-4.1155-.1755-6.6541-.2418l-.047-.0093a2.2867,2.2867,0,0,1-.9435-.3312,1.9907,1.9907,0,0,1-.5918-.8723,7.71,7.71,0,0,0-.4566-1.0117,2.1208,2.1208,0,0,0-.7956-.7319,3.0589,3.0589,0,0,0-1.0525-.3479,5.3754,5.3754,0,0,0-1.0962-.0292q-.3713.0242-1.1.1241l-4.7622.6415q-1.1634.1627-1.7292.28a9.4168,9.4168,0,0,0-1.6734.4795,5.5985,5.5985,0,0,0-1.5148.8871,3.95,3.95,0,0,0-1.0751,1.3432,4.7361,4.7361,0,0,0-.41,1.7708,12.71,12.71,0,0,0,.09,1.8527,15.731,15.731,0,0,1-2.03.6238q-.69.1638-2.0776.4848a10.125,10.125,0,0,0-3.8045,1.628,5.67,5.67,0,0,0-1.5995,1.9674,5.34,5.34,0,0,0-.5834,2.45,5.0984,5.0984,0,0,0,.6462,2.4468,4.7378,4.7378,0,0,0,1.728,1.8208,5.36,5.36,0,0,0,2.1614.7193A8.1983,8.1983,0,0,0,10.13,32.68a5.4151,5.4151,0,0,1,.5423-.0611.9093.9093,0,0,1,.4975.1279,1.4262,1.4262,0,0,1,.4645.6517l7.0946,15.717q.26.6012.3577.8943a2.9421,2.9421,0,0,1,.1717.9332,3.2879,3.2879,0,0,1-.1759,1.0231q-.0607.1833-.3716.9867a8.8457,8.8457,0,0,0-.5994,4.6749,5.9608,5.9608,0,0,0,.8469,2.2228,4.8321,4.8321,0,0,0,1.6761,1.6517,5.7278,5.7278,0,0,0,1.7778.6456,11.2569,11.2569,0,0,0,1.3586.1716,9.8953,9.8953,0,0,0-.5785.86,9.4369,9.4369,0,0,0-1.1215,2.7854,8.8559,8.8559,0,0,0-.1986,2.7142,7.86,7.86,0,0,0,.6625,2.6358,7.4745,7.4745,0,0,0,1.5218,2.183,7.3526,7.3526,0,0,0,4.76,2.1777,7.2551,7.2551,0,0,0,2.6458-.2818A10.02,10.02,0,0,0,34.628,73.725a9.3149,9.3149,0,0,0,2.2344-2.2617,4.81,4.81,0,0,0,.8767-3.0294,10.2909,10.2909,0,0,0,6.55-7.7588q.0663-.0079.1278-.0162.4392-.0609,1.436-.2431-.4824.9416-1.1572,2.2017a9.6278,9.6278,0,0,0-1.04,3.8522,6.6008,6.6008,0,0,0,.6376,2.9215,7.1057,7.1057,0,0,0,1.7948,2.4082,7.437,7.437,0,0,0,3.52,1.7313,8.327,8.327,0,0,0,3.7393-.1529,10.5344,10.5344,0,0,0,3.4163-1.6169,8.1345,8.1345,0,0,0,2.5091-2.6862,5.372,5.372,0,0,0,.6044-1.742,4.3434,4.3434,0,0,0-.0632-1.8255,7.8409,7.8409,0,0,0,3.9283-1.1929,8.3731,8.3731,0,0,0,2.8895-2.9406,9.1126,9.1126,0,0,0,1.2117-3.9427,9.7173,9.7173,0,0,0-.3348-3.487q.3742-.3338.7743-.7017,1.1217-1.0359,1.6827-1.6723a8.5484,8.5484,0,0,0,1.326-1.9557,5.1174,5.1174,0,0,0,.5-2.3246,3.5664,3.5664,0,0,0-.7491-2.174,3.6833,3.6833,0,0,0-1.1325-.9184,4.8917,4.8917,0,0,0-1.4005-.5025A7.9215,7.9215,0,0,0,67.058,43.52q-.4448-.0125-1.4815.0043a12.8277,12.8277,0,0,0-1.5679.107,4.1964,4.1964,0,0,0-1.46.4753,2.57,2.57,0,0,0-.2329.1517,1.1405,1.1405,0,0,0-.5051.3543.9312.9312,0,0,0-.1958.445q-.0548.1086-.1021.2192a1.6358,1.6358,0,0,0,.0016,1.459,1.8267,1.8267,0,0,0,1.2085.9164,4.0437,4.0437,0,0,0,1.6452.0818q1.0836-.1908,1.6184-.2509a3.5748,3.5748,0,0,1,1.5757.1365,16.3432,16.3432,0,0,1-1.9834,2.314q-.4015.3958-1.0315.9634-.118.0018-.2425.0154a2.76,2.76,0,0,0-1.5518.655,2.3669,2.3669,0,0,0-.8221,1.41q-.019.1031-.0279.2022-.4793.3861-.8355.6406A9.9484,9.9484,0,0,1,58.55,55.1782a12.4283,12.4283,0,0,1-4.2256.5354q-.1532-.0035-2.1791-.0753-1.3124-.0477-2.1706-.0077a29.3691,29.3691,0,0,0-3.4943.4581q-2.607.4677-3.4886.5642-1.0695.12-3.0764.1988-2.1141.0768-3.0793.1762-.9051.0918-2.2011.2942-.735.1084-2.1879.3383-1.7867.2493-3.847.3881-1.7106.1251-3.8576.1832a6.2885,6.2885,0,0,1-1.037-.0443,1.9579,1.9579,0,0,1-.92-.3876,1.7145,1.7145,0,0,1-.5584-1.1516,3.5944,3.5944,0,0,1,.134-1.3539q.0206-.0791.8216-2.2584a6.1787,6.1787,0,0,0,.4587-2.2889,4.9746,4.9746,0,0,0-.2788-1.4162q-.1681-.4829-.5606-1.35L14.948,30.4885a7.2969,7.2969,0,0,0-.6214-1.1665,2.3422,2.3422,0,0,0-.9612-.8332,2.438,2.438,0,0,0-1.1866-.14q-.0837.003-1.2208.1929a7.8946,7.8946,0,0,1-2.1771.0619,1.4619,1.4619,0,0,1-1.1571-.51.8846.8846,0,0,1-.1074-.7275,1.306,1.306,0,0,1,.3975-.6615,2.2322,2.2322,0,0,1,.6461-.3874,7.0969,7.0969,0,0,1,.7337-.2381l4.2452-1.1644a1.6506,1.6506,0,0,1,.877-.0729,1.2021,1.2021,0,0,1,.47.269q.2778.2628.4227.3819a2.45,2.45,0,0,0,1.9344.4349,8.1728,8.1728,0,0,0,2.0812-.6381l4.0355-1.7336q.4555-.202.7778-.3736l1.0666,2.63a1.0078,1.0078,0,0,0,.911.618.9323.9323,0,0,0,.544-.1683l3.6021-2.3815a.9965.9965,0,0,0,.3674-1.2l-.6559-1.5594q.0195-.0771.0326-.1646.27.0612.5492.1138,1.1735.2179,3.1819.4525,4.3044.5088,7.372.6626a53.5351,53.5351,0,0,0,7.3811-.11,7.1455,7.1455,0,0,0,1.3833-.2364c.0224-.0069.0444-.0148.0658-.0236q.2418.0075.5029-.01a13.51,13.51,0,0,0,1.3891-.1913q5.8668-1.0217,11.362-1.9132.3489,1.49.6251,2.8238.1433.7075.24,1.0468a4.4844,4.4844,0,0,0,.4.9883,2.6571,2.6571,0,0,0,.6988.8129,1.8187,1.8187,0,0,0,.9652.3819,1.74,1.74,0,0,0,1.3471-.5221,2.5637,2.5637,0,0,0,.7649-1.3192,4.3086,4.3086,0,0,0,.0454-1.5108,13.5727,13.5727,0,0,0-.3127-1.5035l-.4676-1.8812q.3093-.0458.6147-.0932a5.9571,5.9571,0,0,1,.0025.9241q-.0487.7014-.0436.9223a1.9722,1.9722,0,0,0,.6758,1.6561,1.3955,1.3955,0,0,0,1.35.1651,2.2437,2.2437,0,0,0,1.1868-.8838,4.5386,4.5386,0,0,0,.5871-1.3349q.2382-.9545.3765-1.43.4364-1.56.441-1.5838a2.6373,2.6373,0,0,0-.0966-1.5462,2.0692,2.0692,0,0,0-.7949-.9077,2.9941,2.9941,0,0,0-1.1485-.4427,4.9227,4.9227,0,0,0-1.2268-.0356q-.4155.0373-1.2237.17l-1.7208.2868-1.0808-4.37a19.5956,19.5956,0,0,0-.64-2.1572m-5.9754.8946a3.0582,3.0582,0,0,1,.766-.1047,1.07,1.07,0,0,1,.6913.21,1.1505,1.1505,0,0,1,.2968.4132,3.7742,3.7742,0,0,1,.1616.4913q.9387,3.3659,1.4641,5.3455L52.1067,17.2853q-.5385.0911-.8336.1132a2.9985,2.9985,0,0,1-.84-.054,6.11,6.11,0,0,1-.7581-.2554l-.9761-4.1468a2.454,2.454,0,0,1-.0722-.4492.7768.7768,0,0,1,.0914-.4241.72.72,0,0,1,.3285-.3014,2.438,2.438,0,0,1,.4369-.17q2.0313-.6088,4.6239-1.25,1.4592-.3606,4.6739-1.0964m-41.74,9.4215a1.1075,1.1075,0,0,1,.6636-1.2147q7.7894-1.5117,8.3693-.51l2.4237,5.7434-1.925,1.2676-.9779-2.4124a1.7485,1.7485,0,0,0,.0022-.3441.9476.9476,0,0,0,.12-.0152,2.0652,2.0652,0,0,0,.4435-.1173q-.1476.018-.438.04a.0425.0425,0,0,0-.0019-.015q.3579-.0367.4906-.0469a.6347.6347,0,0,0,.0874-.034,1.3423,1.3423,0,0,0,.6373-.5773.0785.0785,0,0,0,.0132-.017.9131.9131,0,0,0,.0935-.8293.9422.9422,0,0,0-.31-.3961,1.2893,1.2893,0,0,0-.4657-.239,3.172,3.172,0,0,0-1.0239-.0612q-.1025.006-.2349.0145-.3633.0265-.9456.0739-.0718-.0079-.1467-.012a1.49,1.49,0,0,0-.1513.0116l-.7218.0914q.6671-.02,1.1872-.0358.4629-.0091.8075-.0183,2.0951-.0479.1909.06-.0521.002-.1126.1365-.0289.0662-.0636.1608a.1387.1387,0,0,1-.0441.0744,6.5689,6.5689,0,0,1-2.1392.7828,25.2927,25.2927,0,0,1-3.9554.738q-1.8543.1823-1.8727-2.299M26.342,66.7534a5.42,5.42,0,0,1,.8469-1.6963q.183-.2448.6427-.7766.4258-.4971.6332-.7907a3.11,3.11,0,0,0,.591-1.3049q1.26-.1084,2.6758-.2855,6.1514-.7717,7.4156-.8632l.8271-.0437a5.3,5.3,0,0,1-.9758,1.6439,5.2225,5.2225,0,0,1-2.5391,1.6663q-.2133.0652-.8072.2016a6.5423,6.5423,0,0,0-.8128.2175,2.049,2.049,0,0,0-1.2607,1.023,2.7806,2.7806,0,0,0-.1067,1.3887,4.3709,4.3709,0,0,1,.0127,1.4269,3.0637,3.0637,0,0,1-1.0984,1.4608,6.55,6.55,0,0,1-1.8077,1.1076,3.3978,3.3978,0,0,1-2.0236.1877A2.9365,2.9365,0,0,1,27,70.3217a3.5224,3.5224,0,0,1-.79-1.7105,4.23,4.23,0,0,1,.1313-1.8578m22.0929-2.295a14.7419,14.7419,0,0,1,1.0536-1.8142,19.8778,19.8778,0,0,0,1.0856-1.8029,5.1334,5.1334,0,0,0,.3808-1.0338q1.206-.0027,3.1465.0521A17.9827,17.9827,0,0,0,58.7465,59.5a13.6067,13.6067,0,0,0,3.4625-1.4929q.7818-.4578,1.5954-1.0349a4.5566,4.5566,0,0,1-.2555,1.2394,5.7361,5.7361,0,0,1-.7853,1.4594,4.8523,4.8523,0,0,1-1.3713,1.2356,3.3606,3.3606,0,0,1-1.7232.5087,10.6358,10.6358,0,0,1-1.5468-.209,3.8917,3.8917,0,0,0-1.5257-.0435,2.1132,2.1132,0,0,0-1.15.7493,2.0712,2.0712,0,0,0-.4782,1.2905,5.23,5.23,0,0,0,.4041,1.6219,3.9319,3.9319,0,0,1,.327,1.6163,2.313,2.313,0,0,1-.73,1.4141,5.083,5.083,0,0,1-1.3935.9405,5.8982,5.8982,0,0,1-2.5746.6624,3.5351,3.5351,0,0,1-1.3156-.2535,2.7418,2.7418,0,0,1-1.0757-.7728,2.8742,2.8742,0,0,1-.64-1.9129A4.8579,4.8579,0,0,1,48.4349,64.4584Z" fill="#c7c3be"/><path d="M17.705,17.4576a1.1075,1.1075,0,0,0-.6636,1.2147q.0184,2.4811,1.8727,2.299a25.2927,25.2927,0,0,0,3.9554-.738,6.5689,6.5689,0,0,0,2.1392-.7828.1387.1387,0,0,0,.0441-.0744q.0346-.0945.0636-.1608.0606-.1346.1126-.1365,1.9043-.1078-.1909-.06-.3447.0092-.8075.0183-.52.0162-1.1872.0358l.7218-.0914a1.49,1.49,0,0,1,.1513-.0116q.0749.004.1467.012.5825-.0472.9456-.0739.1323-.0086.2349-.0145a3.172,3.172,0,0,1,1.0239.0612,1.2893,1.2893,0,0,1,.4657.239.9422.9422,0,0,1,.31.3961.9131.9131,0,0,1-.0935.8293.0785.0785,0,0,1-.0132.017,1.3423,1.3423,0,0,1-.6373.5773.6347.6347,0,0,1-.0874.034q.2646-.01-.0507.0217a2.0652,2.0652,0,0,1-.4435.1173.9476.9476,0,0,1-.12.0152,1.7485,1.7485,0,0,1-.0022.3441l.9779,2.4124,1.925-1.2676-2.4237-5.7434Q25.4944,15.9459,17.705,17.4576Z" fill="#4f245f"/></g><g id="shop_basic_copy_2_0_Layer1_0_FILL" data-name="shop basic copy 2 0 Layer1 0 FILL"><path d="M22.8983,21.6659a.0973.0973,0,0,1-.0226.0029A31.9221,31.9221,0,0,0,17.51,23.7544q-.0441.0438-.0816.0791a.0861.0861,0,0,0-.0179-.0207q-.6763.5318-.4608,1.0057.5865,3.2766,2.1252,2.6643l.09-.0114.0376-.0048q.0735-.011.172-.0294l2.1512-.3261q.0514-.0051.1053-.0133.3678-.0582.7866-.1226.1293-.02.27-.0418l.2112-5.2675m34.2749,36.33q-.1883.0265-.4888.0619-.1141.48-.2241.884-.0688.264-.1457.538a4.29,4.29,0,0,0,1.0407,1.1592h0a4.1014,4.1014,0,0,0,3.1346.8633l.0451-.0057.0075-.0009A4.1684,4.1684,0,0,0,61.38,61.29a4.0217,4.0217,0,0,0,1.7915-1.2354h0q.0744-.0858.1388-.17h0a4.0977,4.0977,0,0,0,.8559-3.1337,4.1639,4.1639,0,0,0-.5508-1.6338q-.183.15-.3746.3a11.5816,11.5816,0,0,1-4.1767,2.1869,14.91,14.91,0,0,1-1.8907.3924M33.5321,63.7492l.0085.0066.0075-.001A4.245,4.245,0,0,0,39.503,63h0a4.0717,4.0717,0,0,0,.8664-2.99q-3.1693.3713-5.9918.6446-.2044.6834-.4653,1.6938-.2129.8187-.38,1.4m-16.4-33.9882a1.493,1.493,0,0,1-.0632-.1372l-1.6569-4.2133q-.0806-.8728-1.8869-.7235-.5334.0649-1.03.13l-1.671.2575a17.3391,17.3391,0,0,0-3.8977.9523q-.0391.0423-.0732.0856a1.959,1.959,0,0,0-.2983,1.5046q.0478,1.55,1.4655,1.6173l6.3007-.7984,9.2355,22.7263a.9276.9276,0,0,1,.07.4877.9571.9571,0,0,1-.1713.4572,6.2963,6.2963,0,0,0-1.25,2.8551q.0051.1752.0128.3422a.2728.2728,0,0,1-.0018.046,3.9819,3.9819,0,0,0,.2033,1.846,3.0377,3.0377,0,0,0,1.0582,1.4778,3.6369,3.6369,0,0,0,1.6856.6421,10.5782,10.5782,0,0,0,1.8793.06q4.6689-.1713,8.8531-.7321l1.8684-.2673q2.23-.3054,6.706-.735,4.4748-.4371,6.6975-.7417,1.5311-.2169,3.4829-.5482.9426-.1577,3.4668-.615.6645-.1224.99-.2019a6.224,6.224,0,0,0,.9565-.2892,8.985,8.985,0,0,0,1.8031-1.0841A29.1233,29.1233,0,0,0,67.2036,49.07a3.1114,3.1114,0,0,0,.5185-.7914,1.2341,1.2341,0,0,0,.0883-.63.8288.8288,0,0,0-.2755-.5457.6408.6408,0,0,0-.1091-.0779.97.97,0,0,0-.7434-.4405q-1.3193-.2442-6.7382.6016T26.9167,51.8141q-2.2123,1.6995-.5155,3.167l32.4136-4.1069q5.6424-2.8593,5.1769-2.1914-.4425.2956-1.5557,1.1673-1,.782-2.5469,2.0263a.9261.9261,0,0,1-.4294.169l-33.12,4.1964a.9659.9659,0,0,1-.7364-.2047,2.782,2.782,0,0,1-1.0139-1.43l.0019.0151q-.572-1.44.987-3.4253L17.1324,29.761M28.9342,53.0253l-.0075.0009a.3542.3542,0,0,0,.0638-.0386.3763.3763,0,0,1-.0563.0377M60.4014,24.9281l-.1067-.8421L18.3743,28.71l.0094.0141q.436,1.8747,8.2914,21.9673l32.7122-4.8246.4662-6.8124.7126,5.624,4.278-3.98,4.097-21.2068-7.01,4.2419-1.4068,6.4427h0l-.0085-.0066-.114-5.2415M43.7886,33.7557l8.38-2.116q-3.1763,2.9694-6.354,5.5034l4.34,7.4793L40.1466,41.49l-8.1323,6.24,3.5918-7.9495-6.151-2.4216,8.22-2.05,2.89-6.9133,3.2231,5.3595m7.9157-10.3613.0478-1.7326q.0086-.5358-.5038-.54L27.2937,19.818q2.3179.0589-.2558-.0288a3.0024,3.0024,0,0,0-3.2795,2.4553l.0677,4.4529q6.454-.7729,14.7482-1.7769,8.6534-1.04,13.13-1.5261M58.7376,8.7216a.8.8,0,0,0-.1635.036q-1.2283.2988-2.4544.586l-7.45,1.8-.0452.0057a.8084.8084,0,0,0-.6637,1.0925h0l1.4361,5.9679a2.5363,2.5363,0,0,0,.04.2547q.6616.077,1.5637.222a7.5088,7.5088,0,0,1,2.5458.6782h0a2.2033,2.2033,0,0,1,.6923.8214,2.93,2.93,0,0,1,.2423.9472,8.36,8.36,0,0,1,.014,1.0754l.0009.0075q-.0036.4244-.022.8508a.4.4,0,0,0,.213.355.394.394,0,0,0,.2182.0334q.1407-.0175.2716-.0268l.0075-.0009q3.5951-.31,4.3536-.4294a9.6783,9.6783,0,0,0,2.3172-.5839,20.5167,20.5167,0,0,0,2.4567-1.4724q-1.7652-6.24-3.28-11.6013a1.3173,1.3173,0,0,0-1.7-.7549l-.001-.0075-.5929.1439M65.7311,19.119q.0438.1784.0843.3637l.0009.0075-.0009-.0075q.04.1491.0757.296.9214-.5612,2.1768-1.33-1.1742.0995-2.4466.226Q65.6765,18.8966,65.7311,19.119Z" fill="#4f245f"/><path d="M72.3762,16.2144a1.4325,1.4325,0,0,0-.5068-.6233,1.6293,1.6293,0,0,0-.9123-.2664q-.3265-.0139-6.03.5807-.83-3.2575-1.3753-5.0664-.7987-2.6262-1.0739-3.592a2.2365,2.2365,0,0,0-1.1323-1.4,4.2406,4.2406,0,0,0-2.2868-.3214,19.2942,19.2942,0,0,0-2.6671.4144q-.8477.1838-2.6273.669-1.6913.4587-2.6252.7451-1.4423.4348-2.5705.8758A7.9,7.9,0,0,0,47.25,8.863a3.2513,3.2513,0,0,0-1.0456.9729q-.045.0667-.0759.1242a2.3371,2.3371,0,0,0-.4107.6173,3.325,3.325,0,0,0-.2167,1.3644,11.94,11.94,0,0,0,.3353,2.1042q.4125,1.8941.9063,3.957-6.6156-.2589-7.0725-.288-5.9558-.2767-10.4217-.7346a13.2747,13.2747,0,0,0-2.72-.06,4.741,4.741,0,0,0-2.4979.9659q-.9318.7592-1.1979,3.2076.0238.1229.0639.5648a.0393.0393,0,0,1-.0216.01.0973.0973,0,0,0,.0226-.0029l-.2112,5.2675q-.14.0221-.27.0418-.4188.0643-.7866.1226-.0539.0083-.1053.0133l-2.1512.3261q-.0986.0184-.172.0294l-.0376.0048-.09.0114q-1.5387.6123-2.1252-2.6643-.2156-.474.4608-1.0057a2.56,2.56,0,0,0-.2675-.3022q-.0177-.019-.0358-.0413a2.9818,2.9818,0,0,0-.8426-.7413,3.0774,3.0774,0,0,0-1.1878-.3308,8.4808,8.4808,0,0,0-1.2578.0219,40.18,40.18,0,0,0-4.2161.5495q-.1755.0335-.35.0673a13.3035,13.3035,0,0,0-2.9813.89,6.2972,6.2972,0,0,0-1.62,1.0226,4.74,4.74,0,0,0-.7346.8341A4.2906,4.2906,0,0,0,3.2579,27.34a3.9839,3.9839,0,0,0,0,1.6883,3.8375,3.8375,0,0,0,.6992,1.5386,3.6845,3.6845,0,0,0,.694.7142,3.4652,3.4652,0,0,0,.5825.377,6.2139,6.2139,0,0,0,3.3633.4371q.5719-.062,1.4943-.2046.663-.1025,1.7753-.2784l7.4556,17.9631q.8667,2.1,1.1637,2.7938A8.3428,8.3428,0,0,0,19.1389,56.39a5.317,5.317,0,0,0,.5071,2.495,4.1581,4.1581,0,0,0,1.6567,1.86,4.9557,4.9557,0,0,0,2.0164.6,10.9759,10.9759,0,0,0,1.41.0352q1.2149,2.186,1.8686,3.2927,1.3247,2.2539,2.5326,3.95a3.2416,3.2416,0,0,0,.4493.5313,1.1235,1.1235,0,0,0,.589.3074.9582.9582,0,0,0,.54-.0761,1.4929,1.4929,0,0,0,.4563-.3176,3.81,3.81,0,0,0,.5906-.9457q.5373-1.1172.77-1.6408.1337.0873.2729.1641a6.5455,6.5455,0,0,0,1.6941.6486,5.1917,5.1917,0,0,0,1.806.0844,8.3189,8.3189,0,0,0,1.928-.58A12.7469,12.7469,0,0,0,39.47,66.236a5.1175,5.1175,0,0,0,1.1089-.7746,4.8061,4.8061,0,0,0,.608-.6882q.19-.2532.5289-.77a8.1371,8.1371,0,0,0,.8183-1.4406,5.5877,5.5877,0,0,0,.3107-1.4068,7.3608,7.3608,0,0,0,.06-1.4591q2.4361-.3013,4.5282-.5584.1337.2088.3214.4864,1.7406,2.5832,3.8388,5.9995a3.1741,3.1741,0,0,0,.7885.9773,1.3093,1.3093,0,0,0,.6011.2218.8237.8237,0,0,0,.5854-.143,1.6436,1.6436,0,0,0,.465-.7311q.9-2.3066,1.3178-3.4673l.0112-.032a6.8074,6.8074,0,0,0,2.3807,1.4249,6.1277,6.1277,0,0,0,3.3555.2548,7.0472,7.0472,0,0,0,2.9756-1.4771,7.7631,7.7631,0,0,0,1.5492-1.7013,7.2307,7.2307,0,0,0,.9647-2.0932,6.5072,6.5072,0,0,0,.2068-2.2875,5.9369,5.9369,0,0,0-.6232-2.2052,5.6984,5.6984,0,0,0-.5383-.8715q.7314-.59,1.426-1.1662,1.8006-1.4794,1.9893-1.6042a.5723.5723,0,0,0,.1587-.1347,1.841,1.841,0,0,0,.4157-.3964,3.0271,3.0271,0,0,0,.6853-1.164,5.8776,5.8776,0,0,0,.1657-.9225,4.8309,4.8309,0,0,0,.0033-.879,2.9441,2.9441,0,0,0-1.5913-2.1284,6.59,6.59,0,0,0-1.4907-.43,6.97,6.97,0,0,0-1.5127-.0605q-.777.0452-1.7256.1881.2086-.1883.4449-.4078,2.1333-1.982,2.2686-2.1132a1.6272,1.6272,0,0,0,.3667-.482,1.17,1.17,0,0,0,.0852-.2323.824.824,0,0,0,.1753-.3049,1.4762,1.4762,0,0,0,.0531-.2435q.2186-.6888.3449-1.1973.1019-.4025.2133-1.15l.0326-.2257q.114-.4654.2483-1.0551,1.9079-8.6376,3.6707-18.0589.03-.1526.055-.29l.1234-.4129q.1579-.5013.2205-.7919a3.53,3.53,0,0,0,.087-.8208,2.0527,2.0527,0,0,0-.17-.796m-6.5608,3.2683q-.04-.1854-.0843-.3637-.0546-.2224-.11-.4444,1.2723-.1266,2.4466-.226-1.2554.7691-2.1768,1.33-.0354-.147-.0757-.296l.0009.0075-.0009-.0075M58.5741,8.7576a.8.8,0,0,1,.1635-.036l.5929-.1439.001.0075a1.3173,1.3173,0,0,1,1.7.7549q1.5153,5.3616,3.28,11.6013a20.5167,20.5167,0,0,1-2.4567,1.4724,9.6783,9.6783,0,0,1-2.3172.5839q-.7585.12-4.3536.4294l-.0075.0009q-.131.0093-.2716.0268a.394.394,0,0,1-.2182-.0334.4.4,0,0,1-.213-.355q.0185-.4265.022-.8508l-.0009-.0075a8.36,8.36,0,0,0-.014-1.0754,2.93,2.93,0,0,0-.2423-.9472,2.2033,2.2033,0,0,0-.6923-.8214h0a7.5088,7.5088,0,0,0-2.5458-.6782q-.9021-.145-1.5637-.222a2.5363,2.5363,0,0,1-.04-.2547l-1.4361-5.9679h0a.8084.8084,0,0,1,.6637-1.0925l.0452-.0057,7.45-1.7995q1.2261-.2872,2.4544-.586m-6.822,12.9042-.0478,1.7326q-4.4766.4861-13.13,1.5261Q30.28,25.9245,23.8261,26.6974l-.0677-4.4529a3.0024,3.0024,0,0,1,3.2795-2.4553q2.5738.0877.2558.0288l23.9546,1.3041q.5124.0039.5038.54m8.5426,2.4242.1067.8421.114,5.2415.0085.0066h0l1.4068-6.4427,7.01-4.2419-4.097,21.2068-4.278,3.98-.7126-5.624-.4662,6.8124L26.6751,50.6912Q18.82,30.5987,18.3837,28.7239l-.0094-.0141,41.92-4.6238M17.0692,29.6238a1.493,1.493,0,0,0,.0632.1372L25.578,51.1969q-1.5589,1.9856-.987,3.4253l-.0019-.0151a2.782,2.782,0,0,0,1.0139,1.43.9659.9659,0,0,0,.7364.2047l33.12-4.1964a.9261.9261,0,0,0,.4294-.169q1.5465-1.2442,2.5469-2.0263,1.1133-.8717,1.5557-1.1673.4656-.668-5.1769,2.1914L26.4012,54.9811q-1.6969-1.4674.5155-3.167,27.61-3.7815,33.0275-4.6277t6.7382-.6016a.97.97,0,0,1,.7434.4405.6408.6408,0,0,1,.1091.0779.8288.8288,0,0,1,.2755.5457,1.2341,1.2341,0,0,1-.0883.63,3.1114,3.1114,0,0,1-.5185.7914,29.1233,29.1233,0,0,1-5.3366,5.0918,8.985,8.985,0,0,1-1.8031,1.0841,6.224,6.224,0,0,1-.9565.2892q-.3261.08-.99.2019-2.5242.4574-3.4668.615-1.9518.3314-3.4829.5482-2.2227.3047-6.6975.7417-4.4759.43-6.706.735l-1.8684.2673q-4.1842.5607-8.8531.7321a10.5782,10.5782,0,0,1-1.8793-.06,3.6369,3.6369,0,0,1-1.6856-.6421,3.0377,3.0377,0,0,1-1.0582-1.4778,3.9819,3.9819,0,0,1-.2033-1.846.2728.2728,0,0,0,.0018-.046q-.0077-.1669-.0128-.3422a6.2963,6.2963,0,0,1,1.25-2.8551.9571.9571,0,0,0,.1713-.4572.9276.9276,0,0,0-.07-.4877L14.3213,28.4364l-6.3007.7984q-1.4176-.0677-1.4655-1.6173a1.959,1.959,0,0,1,.2983-1.5046q.0341-.0434.0732-.0856a17.3391,17.3391,0,0,1,3.8977-.9523l1.671-.2575q.4966-.0655,1.03-.13,1.8063-.1494,1.8869.7235l1.6569,4.2133m16.4714,34.132-.0085-.0066q.1672-.5817.38-1.4.2608-1.01.4653-1.6938,2.8226-.2733,5.9918-.6446A4.0717,4.0717,0,0,1,39.503,63h0a4.245,4.245,0,0,1-5.9549.7545l-.0075.001m23.1438-5.6979q.3006-.0354.4888-.0619a14.91,14.91,0,0,0,1.8907-.3924,11.5816,11.5816,0,0,0,4.1767-2.1869q.1915-.15.3746-.3a4.1639,4.1639,0,0,1,.5508,1.6338,4.0977,4.0977,0,0,1-.8559,3.1337h0q-.0643.0846-.1388.17h0A4.0217,4.0217,0,0,1,61.38,61.29a4.1684,4.1684,0,0,1-.8373.2054l-.0075.0009-.0451.0057a4.1014,4.1014,0,0,1-3.1346-.8633h0A4.29,4.29,0,0,1,56.3146,59.48q.0768-.2741.1457-.538.11-.4039.2241-.884M52.1684,31.64l-8.38,2.116-3.2231-5.3595-2.89,6.9133-8.22,2.05,6.151,2.4216-3.5918,7.95,8.1323-6.24L50.154,44.6224l-4.34-7.4793Q48.9921,34.609,52.1684,31.64Z" fill="#c7c3be"/><path d="M28.9267,53.0262l.0075-.0009a.3763.3763,0,0,0,.0563-.0377A.3542.3542,0,0,1,28.9267,53.0262Z" fill="#77104f"/></g><g id="shop_basic_copy_2_0_Layer0_0_FILL" data-name="shop basic copy 2 0 Layer0 0 FILL"><path d="M45.282,63.33a6.6918,6.6918,0,0,0-.4364,1.56,6.93,6.93,0,0,0-.1448,1.63,5.3346,5.3346,0,0,0,.6758,2.1985,10.8357,10.8357,0,0,0,1.35,1.9145,7.847,7.847,0,0,0,1.2,1.2079,5.3047,5.3047,0,0,0,1.9522.9367,6.7094,6.7094,0,0,0,2.184.1741,9.9986,9.9986,0,0,0,4.101-1.3982,5.7879,5.7879,0,0,0,1.7227-1.3565,4.7644,4.7644,0,0,0,.8236-1.64,10.9035,10.9035,0,0,0,.3334-1.83,9.9512,9.9512,0,0,0,.0674-1.88,5.9175,5.9175,0,0,0-.8608-2.6335,6.3039,6.3039,0,0,0-1.9136-2.0189,6.9053,6.9053,0,0,0-2.57-1.05,7.4144,7.4144,0,0,0-2.7817-.0066,7.8818,7.8818,0,0,0-2.6022.9867,8.9744,8.9744,0,0,0-2.15,1.785A6.0463,6.0463,0,0,0,45.282,63.33m2.4068.7264a4.5221,4.5221,0,0,1,1.4855-2.1439A5.5123,5.5123,0,0,1,52.0433,60.8a4.3129,4.3129,0,0,1,1.2926.0119,3.6861,3.6861,0,0,1,2.0569,1.16A5.5088,5.5088,0,0,1,56.6,64.02a4.5154,4.5154,0,0,1,.2384.9171,3.9667,3.9667,0,0,1-.3417,1.9456,4.4938,4.4938,0,0,1-1.2146,1.6894q-.1642.1381-.3624.2751a4.79,4.79,0,0,1-.627.5378q-.0564.0376-.1052.0744l-.27.1565q-.0939.0425-.1869.0925-.0723.0321-.1371.0632c-.0057-.0044-.0132-.0034-.0226.0028a.2832.2832,0,0,1-.0357.02.779.779,0,0,1-.1024.0359,4.5149,4.5149,0,0,1-1.1229.2416q-.1323.0272-.2622.0409a3.2973,3.2973,0,0,1-1.1113-.0884,4.7836,4.7836,0,0,1-1.1409-.3826,4.0555,4.0555,0,0,1-1.4545-1.229,4.5327,4.5327,0,0,1-.8019-1.7471,4.7185,4.7185,0,0,1,.1507-2.6089M26.64,61.9333q-.2185.1319-.4386.2771A8.256,8.256,0,0,0,23.05,65.9712a7.4011,7.4011,0,0,0-.5455,2.0859,6.1615,6.1615,0,0,0,.94,3.9222,6.0918,6.0918,0,0,0,3.0652,2.6063,6.9157,6.9157,0,0,0,3.5407.3306,9.4969,9.4969,0,0,0,3.41-1.2418,7.8063,7.8063,0,0,0,1.888-1.5,8.1792,8.1792,0,0,0,1.3841-4.27,4.7644,4.7644,0,0,0-.16-1.5,5.7988,5.7988,0,0,0-.6962-1.4549A8.3267,8.3267,0,0,0,34.08,62.8242a6.6568,6.6568,0,0,0-2.6323-1.24,7.9764,7.9764,0,0,0-3.6812.008,8.7092,8.7092,0,0,0-1.1256.3413m-.8817,4.0155a4.54,4.54,0,0,1,1.21-1.5437,4.8589,4.8589,0,0,1,1.7348-.9,5.4563,5.4563,0,0,1,1.954-.1941,4.6519,4.6519,0,0,1,1.6449.441,3.6927,3.6927,0,0,1,1.1427.8789A3.7576,3.7576,0,0,1,34.19,65.866a4.1573,4.1573,0,0,1,.2546,1.5873,5.4015,5.4015,0,0,1-.2784,1.6014,4.1307,4.1307,0,0,1-1.2545,1.9772,3.2833,3.2833,0,0,1-.709.4336,4.7359,4.7359,0,0,1-.4309.3372,1.1225,1.1225,0,0,1-.1155.0529q-.1278.0773-.2715.1489-.0928.05-.1944.0934a1.173,1.173,0,0,1-.1381.0557.0593.0593,0,0,0-.0216.01.1263.1263,0,0,0-.0366.0123.7991.7991,0,0,1-.1024.0359,4.2062,4.2062,0,0,1-1.343.1931l-.0076.0009-.015.0019-.1072-.0017a4.141,4.141,0,0,1-2.9643-1.328l-.0085-.0066a4.1481,4.1481,0,0,1-1.1425-3.0485q.0066-.2241.0284-.4391A4.2012,4.2012,0,0,1,25.7587,65.9488Z" fill="#c7c3be"/><path d="M49.1743,61.9125a4.5221,4.5221,0,0,0-1.4855,2.1439,4.7185,4.7185,0,0,0-.1507,2.6089,4.5327,4.5327,0,0,0,.8019,1.7471,4.0555,4.0555,0,0,0,1.4545,1.229,4.7836,4.7836,0,0,0,1.1409.3826,3.2973,3.2973,0,0,0,1.1113.0884q.13-.0138.2622-.0409a4.5149,4.5149,0,0,0,1.1229-.2416.779.779,0,0,0,.1024-.0359.2832.2832,0,0,0,.0357-.02c.0094-.0062.0169-.0072.0226-.0028q.0648-.0312.1371-.0632.093-.05.1869-.0925l.27-.1565q.0489-.0367.1052-.0744a4.79,4.79,0,0,0,.627-.5378q.1982-.1368.3624-.2751a4.4938,4.4938,0,0,0,1.2146-1.6894,3.9667,3.9667,0,0,0,.3417-1.9456A4.5154,4.5154,0,0,0,56.6,64.02a5.5088,5.5088,0,0,0-1.2067-2.0473,3.6861,3.6861,0,0,0-2.0569-1.16A4.3129,4.3129,0,0,0,52.0433,60.8a5.5123,5.5123,0,0,0-2.869,1.1122m4.0064,3.3426a1.0236,1.0236,0,0,1,.0453.1165,1.3728,1.3728,0,0,1,.02.3948l-.0065.07q0-.0673-.0021-.1372a2.0963,2.0963,0,0,0-.0562-.4437m-26.2119-.85a4.54,4.54,0,0,0-1.21,1.5437,4.2012,4.2012,0,0,0-.4268,1.6354q-.0219.215-.0284.4391a4.1481,4.1481,0,0,0,1.1425,3.0485l.0085.0066a4.141,4.141,0,0,0,2.9643,1.328l.1072.0017.015-.0019.0076-.0009a4.2062,4.2062,0,0,0,1.343-.1931.7991.7991,0,0,0,.1024-.0359.1263.1263,0,0,1,.0366-.0123.0593.0593,0,0,1,.0216-.01,1.173,1.173,0,0,0,.1381-.0557q.1014-.0433.1944-.0934.1437-.0715.2715-.1489a1.1225,1.1225,0,0,0,.1155-.0529,4.7359,4.7359,0,0,0,.4309-.3372,3.2833,3.2833,0,0,0,.709-.4336,4.1307,4.1307,0,0,0,1.2545-1.9772,5.4015,5.4015,0,0,0,.2784-1.6014A4.1573,4.1573,0,0,0,34.19,65.866a3.7576,3.7576,0,0,0-.7447-1.2349,3.6927,3.6927,0,0,0-1.1427-.8789,4.6519,4.6519,0,0,0-1.6449-.441,5.4563,5.4563,0,0,0-1.954.1941A4.8589,4.8589,0,0,0,26.9688,64.4051Z" fill="#4f245f"/><path d="M53.226,65.3716a1.0236,1.0236,0,0,0-.0453-.1165,2.0963,2.0963,0,0,1,.0562.4437q.0022.07.0021.1372l.0065-.07A1.3728,1.3728,0,0,0,53.226,65.3716Z" fill="#15347a"/></g><g id="constellation_shop01_0_Layer0_1_FILL" data-name="constellation shop01 0 Layer0 1 FILL"><path d="M71.8605,20.4591v-.1118a.1607.1607,0,0,1,.0559-.1117,8.7549,8.7549,0,0,1,.3353-1.2856l.4472-1.565a2.6557,2.6557,0,0,0-.1118-1.565,1.8165,1.8165,0,0,0-.7825-.8943,2.9416,2.9416,0,0,0-1.1179-.4471,4.89,4.89,0,0,0-1.2855-.0559q-.3914.056-1.23.1677l-1.6768.2794-1.1178-4.36a10.2677,10.2677,0,0,0-.6707-2.1239,5.169,5.169,0,0,0-1.062-1.9,5.8141,5.8141,0,0,0-2.5711-1.4532,8.6812,8.6812,0,0,0-2.9623-.0559,13.3,13.3,0,0,0-2.85.6707q-2.4034.7266-2.8506.8384-.2235.056-2.2357.503-1.23.2794-2.068.559A5.9561,5.9561,0,0,0,46.15,8.6657a4.1326,4.1326,0,0,0-1.3973,1.6209,4.7186,4.7186,0,0,0-.3354,2.5711q.056.8384.6707,3.9684-3.5212.1677-7.8809,0-4.136-.1677-6.6512-.2236a.0494.0494,0,0,1-.0559-.0559,3.6624,3.6624,0,0,1-.95-.2794,3.4144,3.4144,0,0,1-.6148-.8943q-.3354-.8385-.3913-1.062a2.7434,2.7434,0,0,0-.8384-.7266,3.9949,3.9949,0,0,0-1.006-.3354,6.1834,6.1834,0,0,0-1.1738,0q-.3354.0559-1.0619.1118l-4.8068.6149q-1.118.2235-1.7327.2794a13.9507,13.9507,0,0,0-1.6209.5031,6.5605,6.5605,0,0,0-1.5091.8383,4.4107,4.4107,0,0,0-1.1179,1.3974,4.8783,4.8783,0,0,0-.3912,1.7885q0,.6708.0559,1.8445a11.9275,11.9275,0,0,1-2.0122.6148q-.6707.1677-2.0121.4472A10.1456,10.1456,0,0,0,5.46,23.31a6.5433,6.5433,0,0,0-1.6208,2.0121,5.7534,5.7534,0,0,0-.5031,1.6768l-.1118.3354a4.2334,4.2334,0,0,0,0,1.6768,4.326,4.326,0,0,0,.7266,1.565,6.7,6.7,0,0,0,.7266.7266.6541.6541,0,0,0,.1677.1118l.0559.0558a7.0972,7.0972,0,0,0,.7825.559,4.3784,4.3784,0,0,0,2.124.7266A9.5649,9.5649,0,0,0,10.0988,32.7a3.5742,3.5742,0,0,0,.5589-.1118q.2794.056.503.1118a2.4542,2.4542,0,0,1,.4472.7266l7.0984,15.7059q.2795.6149.3912.8943a2.5313,2.5313,0,0,1,.1677.8943,3.6982,3.6982,0,0,1-.1677,1.062,6.059,6.059,0,0,0-.3912.95,9.2346,9.2346,0,0,0-.6148,4.695,6.4638,6.4638,0,0,0,.8383,2.2358,5.1606,5.1606,0,0,0,1.7327,1.6209,5.6012,5.6012,0,0,0,1.7886.6707,10.8589,10.8589,0,0,0,1.2855.1676q-.2795.3913-.5589.8384A9.9724,9.9724,0,0,0,22.06,65.956a9.7682,9.7682,0,0,0-.1677,2.7387,6.9571,6.9571,0,0,0,.6148,2.627,9.0836,9.0836,0,0,0,1.5091,2.18,9.7659,9.7659,0,0,0,2.18,1.565,9.2953,9.2953,0,0,0,2.627.6149,7.3344,7.3344,0,0,0,2.6829-.2795,9.9348,9.9348,0,0,0,3.13-1.6768,9.3745,9.3745,0,0,0,2.18-2.2357,5.2955,5.2955,0,0,0,.95-3.0741,9.9779,9.9779,0,0,0,6.4836-7.7691h.1676q.3914-.056,1.3974-.2236-.4472.95-1.1179,2.18a9.0169,9.0169,0,0,0-1.062,3.8566,7.0035,7.0035,0,0,0,.6707,2.9624,6.6658,6.6658,0,0,0,1.7886,2.4033,7.5558,7.5558,0,0,0,3.5213,1.6768A7.7563,7.7563,0,0,0,53.304,73.39a9.2454,9.2454,0,0,0,3.4654-1.6209A7.4143,7.4143,0,0,0,59.2287,69.03a4.6714,4.6714,0,0,0,.6707-1.7327,4.1436,4.1436,0,0,0-.0559-1.7886,8.9678,8.9678,0,0,0,3.9125-1.1737,8.3535,8.3535,0,0,0,2.85-2.9623,8.9373,8.9373,0,0,0,1.23-3.9125,9.2341,9.2341,0,0,0-.3354-3.5213l.7825-.6707q1.118-1.062,1.6768-1.6768a9.2575,9.2575,0,0,0,1.2855-1.9562,4.6923,4.6923,0,0,0,.5031-2.3476,3.3456,3.3456,0,0,0-.7266-2.18,3.3,3.3,0,0,0-1.1179-.8943,5.1631,5.1631,0,0,0-1.3973-.503,5.5639,5.5639,0,0,0-1.4532-.1677H65.5446q1.23-1.1738,1.3414-1.23a2.9371,2.9371,0,0,0,.3354-.5031.3219.3219,0,0,0,.1117-.2235,1.4059,1.4059,0,0,0,.1677-.3354.4973.4973,0,0,1,.0559-.2236q.2236-.7266.3354-1.23a9.6855,9.6855,0,0,0,.2235-1.1179l.0559-.2235q.1119-.5031.2236-1.062,1.7886-8.1045,3.4654-16.9356M58.6138,8.7775a.4281.4281,0,0,0,.1677-.0559l.5031-.1677a1.3879,1.3879,0,0,1,1.7885.8384q1.4532,5.31,3.1859,11.514a7.8379,7.8379,0,0,1-.6707.503,16.0773,16.0773,0,0,1-1.7327,1.0061,13.0231,13.0231,0,0,1-2.2916.6148q-.7824.0559-4.4155.4472a.6217.6217,0,0,0-.2795-.0559h-.1677a.3656.3656,0,0,1-.1676-.1677.2277.2277,0,0,1-.0559-.1677,5.93,5.93,0,0,1,.0559-.8384,8.4626,8.4626,0,0,0-.0559-1.1179,2.6045,2.6045,0,0,0-.2236-.8942,2.343,2.343,0,0,0-.7266-.8943h.0559a7.7333,7.7333,0,0,0-2.5711-.6148q-.8943-.1677-1.565-.28a.4957.4957,0,0,1-.0559-.2236l-1.4532-5.9805V12.187q-.2236-.7825.6707-1.0061h.0559l7.4338-1.8445q1.23-.2794,2.5151-.5589M51.236,21.13a.4447.4447,0,0,1,.503.5031.0494.0494,0,0,0,.0559.0559l-.1118,1.6768q-4.4714.5029-13.1348,1.565Q31.897,25.713,26.42,26.44a1.0542,1.0542,0,0,0-.3354-.0559h-.0558q-1.1738.1677-2.18.2795l-.1118-4.4156a3.0072,3.0072,0,0,1,3.2977-2.4593h.2236q2.2358.1118.0559.0559L51.236,21.13m14.5321-2.0121a.9922.9922,0,0,1-.1117-.4471q1.23-.1119,2.4033-.2236-1.2855.7266-2.18,1.3414a.9177.9177,0,0,0-.0559-.2794,1.6461,1.6461,0,0,1-.0559-.3913m-5.3657,5.8129.1118,5.2539,1.3973-6.4277L68.954,19.509l-4.08,21.1834L60.57,44.7167l-.6707-5.6452L59.3963,45.89,26.6431,50.6972q-7.8251-20.0655-8.2722-21.9659v-.0559l41.92-4.5832.1118.8384M56.6576,58.0751a3.3576,3.3576,0,0,1,.503-.0559q1.062-.2236,1.9-.3913a11.0619,11.0619,0,0,0,4.192-2.18,3.6325,3.6325,0,0,1,.3912-.3353,4.5861,4.5861,0,0,1,.503,1.6209,4.2087,4.2087,0,0,1-.8384,3.1859.6489.6489,0,0,1-.1676.1117,3.7307,3.7307,0,0,1-1.7327,1.23,3.0914,3.0914,0,0,1-.8384.2236h-.0559a3.8412,3.8412,0,0,1-2.068-.2236,4.3719,4.3719,0,0,1-1.062-.6148h-.0559a7.7592,7.7592,0,0,1-.7825-.7825,3.6514,3.6514,0,0,0-.2236-.3913,1.3736,1.3736,0,0,0,.1118-.503l.2236-.8943m-2.0122-1.7327q-1.9562.3354-3.4653.5589-2.2358.2795-6.7072.7266-4.5273.4472-6.763.7267l-1.7886.3353q-4.1919.5031-8.887.6707a14.7927,14.7927,0,0,1-1.8444,0,3.5,3.5,0,0,1-1.7327-.7266,2.7876,2.7876,0,0,1-.8943-1.062,3.0783,3.0783,0,0,0-.1677-.3912,3.1915,3.1915,0,0,1-.1677-.5589,1.057,1.057,0,0,1-.0559-.3354,4.0556,4.0556,0,0,1,0-.95.0494.0494,0,0,0,.0559-.0559,1.0536,1.0536,0,0,0-.0559-.3353A7.109,7.109,0,0,1,23.4572,52.15v-.1118a.536.536,0,0,0,.1677-.3912v-.2795A.2277.2277,0,0,0,23.569,51.2L14.3466,28.4518l-6.3159.7825q-1.4532-.0558-1.4532-1.6209a2.1341,2.1341,0,0,1,.28-1.5091.1611.1611,0,0,1,.1118-.0559,13.8692,13.8692,0,0,1,3.8566-.95l1.6768-.2794q.4471-.0559,1.006-.1118,1.8446-.1677,1.9.7266l.1118.2236L17.03,29.6256q.1118.0558.1118.1118L25.5811,51.2q-1.5649,1.9561-1.0061,3.4653V54.61a2.9352,2.9352,0,0,0,1.062,1.4532.8377.8377,0,0,0,.6707.1677l33.1445-4.192a.7432.7432,0,0,0,.4472-.1676q1.565-1.23,2.5152-2.0122,1.1178-.8943,1.565-1.1737.5029-.6708-5.1422,2.18L26.42,55.001q-1.7326-1.5091.503-3.1859l1.4533-.2236q2.85-.3354,5.4216-.7266,21.4629-2.9623,26.1579-3.633.8943-.1677,1.6768-.28a23.4028,23.4028,0,0,1,5.03-.3913,1.0078,1.0078,0,0,1,.7825.4472l.1118.1118a.7524.7524,0,0,1,.2795.503,1.0754,1.0754,0,0,1-.1118.6707,3.6774,3.6774,0,0,1-.503.7825,30.2229,30.2229,0,0,1-5.3658,5.0863A10.8992,10.8992,0,0,1,60.0671,55.28a7.0716,7.0716,0,0,1-.95.2795l-1.0061.1677q-2.5152.4472-3.4654.6148M26.0841,16.9938a4.146,4.146,0,0,0-2.068.8943,2.7749,2.7749,0,0,0-.7266,1.1178l-.2236.0559a.4954.4954,0,0,1,.2236.0559,10.5162,10.5162,0,0,0-.3354,1.1179h-.1117a23.0426,23.0426,0,0,1-3.9126.7266q-1.8444.1677-1.9-2.2916a1.1392,1.1392,0,0,1,.7266-1.23q7.7131-1.4532,8.328-.4471m-3.2417,4.695h.0558l-.2235,5.2539a.9188.9188,0,0,0-.28.0559,5.5208,5.5208,0,0,1-.7825.0559.1609.1609,0,0,1-.1118.0559l-2.1239.3354h-.3354q-1.23.5029-1.8444-1.5092a4.9491,4.9491,0,0,1-.2236-1.1178q-.2237-.4471.4471-1.0061a.1607.1607,0,0,0,.1118-.0559,33.7159,33.7159,0,0,1,5.31-2.068m17.55,38.3425a3.9628,3.9628,0,0,1-.8942,2.9624V63.05a3.9014,3.9014,0,0,1-2.7947,1.5091,5.183,5.183,0,0,1-1.0061.1118.2281.2281,0,0,1-.0559-.1677,8.6134,8.6134,0,0,0-1.565-1.6768l-.2235-.2236a.623.623,0,0,0,.0559-.28q.1118-.3352.2235-.7266a7.0847,7.0847,0,0,1,.2795-.95q2.7947-.28,5.98-.6149m-6.9866,4.6392a1.9276,1.9276,0,0,1,.5031.6148,3.916,3.916,0,0,1,.2794.5589,3.1442,3.1442,0,0,1,.2236,1.4532.2277.2277,0,0,1,.0559.1677,3.6887,3.6887,0,0,1-.3354,1.565,3.8743,3.8743,0,0,1-1.23,2.0121,2.8886,2.8886,0,0,1-.6707.3913q-.2794.2235-.4472.3354-.0558.1118-.1118.1117a2.1854,2.1854,0,0,0-.2794.1118.3218.3218,0,0,1-.2236.1118.1609.1609,0,0,0-.1118.0559h-.0559a.1611.1611,0,0,0-.1118.0559A3.8959,3.8959,0,0,1,29.55,72.44h-.1677a3.9619,3.9619,0,0,1-2.9064-1.3415v-.0559a4.0249,4.0249,0,0,1-1.1738-3.0182v-.3912a6.1818,6.1818,0,0,1,.4472-1.6768,6.4389,6.4389,0,0,1,.8384-1.23,3.665,3.665,0,0,1,.3912-.3353,6.6766,6.6766,0,0,1,1.4533-.7825.6871.6871,0,0,1,.2794-.1118,6.572,6.572,0,0,1,1.9-.1677,5.5248,5.5248,0,0,1,1.6768.4472,3.298,3.298,0,0,1,1.1178.8943m18.6683-3.8567a3.4034,3.4034,0,0,1,1.23,0,3.7663,3.7663,0,0,1,2.068,1.1738,3.6673,3.6673,0,0,1,.8384,1.1179,7.235,7.235,0,0,1,.3913.95,2.2466,2.2466,0,0,1,.2236.8943,3.82,3.82,0,0,1-.3354,1.9563,4.6705,4.6705,0,0,1-1.23,1.6768,2.2181,2.2181,0,0,0-.3354.2794q-.3354.2795-.6148.559a.1612.1612,0,0,0-.1118.0558,2.1875,2.1875,0,0,0-.28.1118.3216.3216,0,0,1-.2235.1118.1611.1611,0,0,1-.1118.0559h-.0559l-.1118.1118a3.3363,3.3363,0,0,1-1.062.1677,2.1506,2.1506,0,0,0-.2794.1118,7.2616,7.2616,0,0,1-1.1738-.1118,4.452,4.452,0,0,1-1.1178-.3913,4.575,4.575,0,0,1-1.4533-1.23,4.6958,4.6958,0,0,1-.6148-4.36,3.82,3.82,0,0,1,1.5091-2.1239v-.0559a4.4464,4.4464,0,0,1,1.1179-.6707,5.1316,5.1316,0,0,1,1.7327-.3913M35.5859,39.7981l-3.5771,7.9368,8.1045-6.26,10.0048,3.1859-4.3037-7.5456a83.3034,83.3034,0,0,0,6.3718-5.4775l-8.384,2.124L40.56,28.3959,37.654,35.3267l-8.2163,2.0121Z" fill="#c7c3be"/><path d="M53.2481,65.7883v-.0559a.1826.1826,0,0,0-.0559.1118Q53.1993,65.7883,53.2481,65.7883Z" fill="#15347a"/></g><g filter="url(#Filter_1)"><g id="star2_0_Layer0_0_FILL" data-name="star2 0 Layer0 0 FILL"><path d="M80.006,23.0183,68.0108,18.4062l1.3-10.274-4.3664,9.3719-11.589-1.4107,10.9714,4.4185L62.5813,32.549l4.5946-11.3277Z" fill="url(#radial-gradient)"/></g></g><g filter="url(#Filter_1)"><g id="star2_0_Layer0_0_FILL-2" data-name="star2 0 Layer0 0 FILL"><path d="M50.2348,33.6242,44.4191,33.01,43.7808,28.34l-.8157,4.6337-5.26.7447,5.3429.65.65,5.4966.6856-5.52Z" fill="url(#radial-gradient-2)"/></g></g><g filter="url(#Filter_1)"><g id="star2_0_Layer0_0_FILL-3" data-name="star2 0 Layer0 0 FILL"><path d="M29.4934,25.9748l-4.7028-5.8134,3.6439-4.7989L23.508,18.8149l-5.4294-4.0821,4.2432,5.4181-4.3813,5.5577,5.61-4.3715Z" fill="url(#radial-gradient-3)"/></g></g><g filter="url(#Filter_1)"><g id="star2_0_Layer0_0_FILL-4" data-name="star2 0 Layer0 0 FILL"><path d="M36.541,67.9983l-5.8157-.6146-.6383-4.6692-.8156,4.6337-5.26.7447,5.3429.65.65,5.4966.6856-5.52Z" fill="url(#radial-gradient-4)"/></g></g><g filter="url(#Filter_1)"><g id="star2_0_Layer0_0_FILL-5" data-name="star2 0 Layer0 0 FILL"><path d="M67.1145,51.1746,61.2987,50.56,60.66,45.8908l-.8156,4.6336-5.26.7447,5.3429.65.65,5.4966.6856-5.52Z" fill="url(#radial-gradient-5)"/></g></g></svg>